<svg width="46" height="46" viewBox="0 0 46 46" fill="none" xmlns="http://www.w3.org/2000/svg">
<path fill-rule="evenodd" clip-rule="evenodd" d="M14.3464 2.37692C16.5589 2.27507 17.2643 2.25244 22.9 2.25244C28.5357 2.25244 29.2411 2.27696 31.4516 2.37692C33.6621 2.47689 35.171 2.82959 36.4913 3.34073C37.8738 3.86318 39.1281 4.67987 40.1654 5.73609C41.2216 6.77156 42.0364 8.02394 42.557 9.40835C43.07 10.7286 43.4208 12.2375 43.5227 14.4443C43.6245 16.6604 43.6472 17.3658 43.6472 22.9997C43.6472 28.6354 43.6227 29.3408 43.5227 31.5532C43.4227 33.7599 43.07 35.2688 42.557 36.5891C42.0364 37.9737 41.2203 39.2281 40.1654 40.2651C39.1281 41.3213 37.8738 42.1361 36.4913 42.6567C35.171 43.1697 33.6621 43.5205 31.4554 43.6224C29.2411 43.7243 28.5357 43.7469 22.9 43.7469C17.2643 43.7469 16.5589 43.7224 14.3464 43.6224C12.1397 43.5224 10.6308 43.1697 9.31053 42.6567C7.92598 42.1361 6.67152 41.3199 5.6345 40.2651C4.579 39.229 3.76219 37.9752 3.24103 36.591C2.72989 35.2707 2.37907 33.7618 2.27722 31.5551C2.17537 29.3389 2.15274 28.6335 2.15274 22.9997C2.15274 17.364 2.17726 16.6586 2.27722 14.448C2.37719 12.2375 2.72989 10.7286 3.24103 9.40835C3.76296 8.0241 4.58039 6.77027 5.63639 5.7342C6.67194 4.67893 7.92513 3.86213 9.30865 3.34073C10.6289 2.82959 12.1378 2.47877 14.3446 2.37692H14.3464ZM31.2837 6.11142C29.0958 6.01146 28.4395 5.99071 22.9 5.99071C17.3605 5.99071 16.7041 6.01146 14.5162 6.11142C12.4924 6.20384 11.3947 6.54146 10.6629 6.82626C9.6953 7.20348 9.0031 7.65049 8.27694 8.37664C7.5886 9.04631 7.05886 9.86155 6.72656 10.7626C6.44176 11.4944 6.10414 12.5921 6.01172 14.6159C5.91176 16.8038 5.89101 17.4602 5.89101 22.9997C5.89101 28.5392 5.91176 29.1955 6.01172 31.3834C6.10414 33.4072 6.44176 34.5049 6.72656 35.2368C7.05852 36.1364 7.58851 36.9531 8.27694 37.6227C8.94651 38.3111 9.7632 38.8411 10.6629 39.1731C11.3947 39.4579 12.4924 39.7955 14.5162 39.8879C16.7041 39.9879 17.3586 40.0086 22.9 40.0086C28.4414 40.0086 29.0958 39.9879 31.2837 39.8879C33.3075 39.7955 34.4052 39.4579 35.1371 39.1731C36.1046 38.7958 36.7968 38.3488 37.523 37.6227C38.2114 36.9531 38.7414 36.1364 39.0734 35.2368C39.3582 34.5049 39.6958 33.4072 39.7882 31.3834C39.8882 29.1955 39.9089 28.5392 39.9089 22.9997C39.9089 17.4602 39.8882 16.8038 39.7882 14.6159C39.6958 12.5921 39.3582 11.4944 39.0734 10.7626C38.6961 9.795 38.2491 9.1028 37.523 8.37664C36.8533 7.68835 36.0381 7.15861 35.1371 6.82626C34.4052 6.54146 33.3075 6.20384 31.2837 6.11142ZM20.25 29.3955C21.7299 30.0115 23.3779 30.0947 24.9123 29.6307C26.4468 29.1667 27.7725 28.1844 28.6632 26.8516C29.5538 25.5187 29.9541 23.918 29.7957 22.3227C29.6372 20.7275 28.9299 19.2368 27.7944 18.1052C27.0706 17.3818 26.1954 16.828 25.2318 16.4834C24.2682 16.1389 23.2403 16.0123 22.2219 16.1127C21.2035 16.2132 20.2201 16.5382 19.3424 17.0643C18.4647 17.5905 17.7146 18.3046 17.146 19.1555C16.5775 20.0063 16.2046 20.9726 16.0544 21.9849C15.9041 22.9971 15.9801 24.03 16.277 25.0093C16.5738 25.9887 17.0841 26.89 17.7711 27.6484C18.4581 28.4068 19.3047 29.0035 20.25 29.3955ZM15.3593 15.459C16.3495 14.4687 17.5251 13.6832 18.819 13.1473C20.1128 12.6114 21.4995 12.3355 22.9 12.3355C24.3004 12.3355 25.6871 12.6114 26.9809 13.1473C28.2748 13.6832 29.4504 14.4687 30.4406 15.459C31.4309 16.4492 32.2164 17.6248 32.7523 18.9187C33.2882 20.2125 33.5641 21.5992 33.5641 22.9997C33.5641 24.4001 33.2882 25.7868 32.7523 27.0806C32.2164 28.3745 31.4309 29.5501 30.4406 30.5403C28.4407 32.5402 25.7283 33.6638 22.9 33.6638C20.0717 33.6638 17.3592 32.5402 15.3593 30.5403C13.3594 28.5404 12.2358 25.828 12.2358 22.9997C12.2358 20.1714 13.3594 17.4589 15.3593 15.459ZM35.9292 13.9237C36.1746 13.6922 36.3711 13.4138 36.5069 13.1051C36.6428 12.7963 36.7154 12.4634 36.7203 12.1261C36.7252 11.7888 36.6624 11.4539 36.5356 11.1413C36.4087 10.8287 36.2205 10.5447 35.982 10.3062C35.7434 10.0677 35.4594 9.87942 35.1468 9.7526C34.8342 9.62577 34.4994 9.56296 34.1621 9.56788C33.8248 9.5728 33.4919 9.64534 33.1831 9.78122C32.8743 9.9171 32.596 10.1136 32.3645 10.3589C31.9143 10.8362 31.6678 11.4701 31.6774 12.1261C31.6869 12.7821 31.9518 13.4086 32.4157 13.8725C32.8796 14.3364 33.5061 14.6012 34.1621 14.6108C34.8181 14.6204 35.452 14.3739 35.9292 13.9237Z" fill="#F8F8F8"/>
</svg>
