<svg width="16" height="16" viewBox="0 0 16 16" fill="none" xmlns="http://www.w3.org/2000/svg">
<path fill-rule="evenodd" clip-rule="evenodd" d="M3.1647 0.365524C2.97257 0.466529 2.87993 0.742999 2.97648 0.927234C2.99891 0.970084 3.08893 1.08928 3.17649 1.19211C3.46966 1.53641 3.55291 1.8786 3.41068 2.15484C3.37435 2.22541 3.21229 2.40994 3.05053 2.56489C2.54984 3.04458 2.39461 3.34792 2.39215 3.85121C2.39094 4.09901 2.40365 4.18271 2.47268 4.38095C2.59992 4.74633 2.91487 5.2071 3.12544 5.33591C3.35993 5.47936 3.64913 5.41252 3.76398 5.18835C3.87342 4.9748 3.83664 4.82568 3.61312 4.57643C3.29971 4.22697 3.20162 3.85836 3.34683 3.57574C3.3831 3.50516 3.5451 3.32063 3.70687 3.16568C4.1552 2.73615 4.33196 2.42289 4.37278 1.98538C4.4113 1.57276 4.21832 1.04481 3.87972 0.636343C3.61463 0.316581 3.40728 0.238031 3.1647 0.365524ZM6.00925 0.359344C5.86221 0.437128 5.77322 0.579837 5.77322 0.737878C5.77322 0.895154 5.79693 0.941949 5.99334 1.17245C6.19558 1.40978 6.28568 1.60057 6.29996 1.82171C6.3161 2.07184 6.23886 2.22082 5.9553 2.48619C5.41283 2.99393 5.21154 3.36716 5.21154 3.86533C5.21154 4.32539 5.50717 4.95164 5.8769 5.27482C6.09291 5.46364 6.36559 5.45923 6.53764 5.26413C6.71868 5.05886 6.68953 4.8537 6.43861 4.56725C6.20864 4.30473 6.11526 4.10228 6.11523 3.86592C6.1152 3.73669 6.13276 3.64193 6.16935 3.57382C6.19912 3.51841 6.3786 3.31975 6.56815 3.13237C7.00466 2.70092 7.15543 2.42872 7.2061 1.98064C7.25617 1.53777 6.98305 0.892506 6.58154 0.505172C6.36577 0.29701 6.20468 0.255955 6.00925 0.359344ZM8.87724 0.33783C8.6782 0.416615 8.55274 0.652177 8.60651 0.846094C8.62162 0.900481 8.71382 1.04263 8.81143 1.162C9.03693 1.43776 9.11637 1.59642 9.13579 1.80991C9.15914 2.06604 9.06206 2.24051 8.72612 2.54617C8.24715 2.98198 8.0495 3.36731 8.0495 3.86527C8.0495 4.33269 8.26326 4.815 8.63894 5.19532C8.80794 5.3664 8.85078 5.39427 8.97184 5.41181C9.2799 5.45652 9.53263 5.18349 9.4673 4.87662C9.45639 4.82547 9.36729 4.68641 9.26926 4.5676C9.04468 4.29537 8.96335 4.13477 8.94434 3.92584C8.92028 3.66167 9.00031 3.51732 9.3659 3.16562C9.84611 2.70368 9.99944 2.41727 10.0231 1.93823C10.0439 1.51499 9.90245 1.10452 9.60358 0.720838C9.30876 0.342392 9.11879 0.242211 8.87724 0.33783ZM0.348588 6.82109C0.239859 6.86918 0.14124 6.97284 0.0992911 7.08311C0.0574608 7.19303 0.0572834 9.59203 0.0990841 10.0463C0.257862 11.7721 1.17644 13.2887 2.68213 14.3109L2.94635 14.4903H1.68326C0.485637 14.4903 0.414216 14.4933 0.306196 14.5482C0.22623 14.5888 0.172605 14.6464 0.126429 14.7414C0.023287 14.9535 0.0776516 15.1429 0.286064 15.2978L0.367714 15.3585L6.18186 15.366C11.6721 15.373 12.0018 15.3705 12.0989 15.3218C12.4154 15.1632 12.4154 14.7002 12.0989 14.5419C12.0059 14.4953 11.8756 14.4903 10.7396 14.4894C9.74471 14.4886 9.49346 14.481 9.53233 14.4526C9.55932 14.4329 9.70483 14.3307 9.85568 14.2254C10.5687 13.7281 11.2331 12.9995 11.6254 12.2844L11.7312 12.0917L12.4548 12.0718C13.0476 12.0554 13.2213 12.0407 13.415 11.9904C14.065 11.8215 14.5725 11.4227 14.8756 10.8428C15.5816 9.4917 14.7659 7.84989 13.2586 7.5882C13.1209 7.5643 12.8569 7.54473 12.6721 7.54473H12.336V7.31364C12.336 7.04732 12.2772 6.92778 12.1 6.83404C12.0007 6.78151 11.787 6.77957 6.21713 6.78068C1.46648 6.78163 0.421488 6.78884 0.348588 6.82109ZM11.4489 8.7293C11.4488 9.31609 11.435 9.91482 11.4183 10.0598C11.2844 11.2237 10.7909 12.1957 9.91135 13.0283C9.10587 13.7907 8.09606 14.2685 6.94092 14.4336C6.6033 14.4818 5.8095 14.4818 5.46282 14.4336C3.3672 14.1418 1.65355 12.6952 1.13222 10.778C0.996706 10.2797 0.979442 10.0824 0.963094 8.84702L0.947397 7.66245H6.19827H11.4491L11.4489 8.7293ZM13.0603 8.45846C13.3397 8.49851 13.6028 8.62668 13.8105 8.82395C14.0984 9.09733 14.2356 9.41915 14.234 9.81767C14.2321 10.3182 13.9717 10.7478 13.5105 11.0114C13.3055 11.1285 13.0855 11.1647 12.577 11.1647H12.1023L12.1454 11.0249C12.2778 10.5955 12.3148 10.2581 12.327 9.36942C12.3336 8.89191 12.3445 8.48468 12.3513 8.46443C12.3667 8.41881 12.7604 8.41549 13.0603 8.45846Z" fill="white"/>
</svg>
