<svg width="16" height="16" viewBox="0 0 16 16" fill="none" xmlns="http://www.w3.org/2000/svg">
<path fill-rule="evenodd" clip-rule="evenodd" d="M6.80969 0.901061C4.46166 1.14227 2.39126 2.42933 1.13756 4.42707C-0.294599 6.70924 -0.38102 9.66693 0.915504 12.0284C1.84665 13.7245 3.36818 14.9868 5.21511 15.5955C5.99584 15.8528 6.63152 15.9489 7.54556 15.948C8.42585 15.947 9.04384 15.8548 9.81206 15.6096C10.9323 15.2522 11.9117 14.6612 12.766 13.8272C13.441 13.1683 13.8731 12.5762 14.2828 11.7484C15.4748 9.34014 15.2948 6.49775 13.8078 4.24857C13.5341 3.8346 13.2608 3.50062 12.88 3.11487C11.7044 1.92397 10.2493 1.18906 8.57579 0.940889C8.21583 0.8875 7.17103 0.863945 6.80969 0.901061ZM8.37442 1.68203C9.15445 1.78444 9.83726 1.99016 10.5185 2.32809C11.2644 2.69804 11.829 3.11062 12.4041 3.70586C13.6397 4.9847 14.3009 6.62696 14.3009 8.41708C14.3009 9.67858 13.9624 10.9036 13.3272 11.941L13.1755 12.1888L12.9512 11.8875C12.5163 11.3034 11.8388 10.6676 11.2249 10.2675C10.8298 10.01 10.1267 9.67109 9.69432 9.5297C9.48386 9.46089 9.30828 9.39459 9.30416 9.38236C9.30004 9.37015 9.37951 9.28973 9.48077 9.20365C10.5568 8.2891 10.8513 6.72319 10.1813 5.47917C10.0345 5.20662 9.9074 5.0375 9.65629 4.7806C8.91035 4.0175 7.77678 3.71332 6.7361 3.99701C5.91345 4.22127 5.20165 4.81787 4.82165 5.60169C4.61972 6.01819 4.55629 6.28136 4.53742 6.78091C4.5195 7.25537 4.56327 7.55834 4.70735 7.95718C4.87375 8.41776 5.19677 8.87715 5.58814 9.20981C5.69337 9.29925 5.77676 9.37817 5.77343 9.38519C5.77013 9.3922 5.59131 9.45653 5.37606 9.52811C4.64115 9.77256 3.86386 10.2013 3.24632 10.7029C2.88892 10.9932 2.38525 11.5185 2.11051 11.8875L1.88618 12.1888L1.73618 11.9438C1.25321 11.155 0.920125 10.192 0.802915 9.24572C0.748931 8.80991 0.748931 8.02345 0.802944 7.5905C1.1272 4.99059 2.91358 2.80205 5.38209 1.98046C5.82847 1.83191 6.22767 1.73878 6.66251 1.68179C7.08184 1.62681 7.95489 1.62693 8.37442 1.68203ZM7.96625 4.6901C8.83152 4.86745 9.50137 5.50623 9.72593 6.36818C9.80444 6.6695 9.79905 7.17993 9.71416 7.48228C9.53046 8.1366 9.11274 8.64319 8.51692 8.93425C8.16346 9.10689 7.91771 9.16255 7.51613 9.16081C7.12217 9.15913 6.83368 9.09 6.50427 8.91836C5.30259 8.2922 4.90754 6.79432 5.64636 5.6654C6.14625 4.9015 7.08081 4.50859 7.96625 4.6901ZM8.04596 9.95009C9.8591 10.115 11.4884 11.0688 12.5045 12.5602C12.6348 12.7515 12.6732 12.83 12.654 12.866C12.6006 12.9658 11.8913 13.6288 11.6197 13.8329C10.6421 14.5671 9.48404 15.0298 8.28144 15.1669C7.93514 15.2064 7.13312 15.2059 6.77175 15.166C5.59243 15.0359 4.42219 14.567 3.44223 13.8318C3.17158 13.6288 2.4612 12.966 2.40845 12.8673C2.38828 12.8296 2.42422 12.7554 2.55721 12.5602C3.779 10.767 5.90615 9.75543 8.04596 9.95009Z" fill="white"/>
</svg>
