<svg width="46" height="46" viewBox="0 0 46 46" fill="none" xmlns="http://www.w3.org/2000/svg">
<g clip-path="url(#clip0_1_250)">
<path fill-rule="evenodd" clip-rule="evenodd" d="M45.8 23C45.8 35.4993 35.6659 45.6334 23.1667 45.6334C10.6674 45.6334 0.533325 35.4993 0.533325 23C0.533325 10.5008 10.6674 0.366699 23.1667 0.366699C35.6659 0.366699 45.8 10.5008 45.8 23ZM23.9777 17.0758C21.7766 17.9905 17.3763 19.8861 10.7787 22.7605C9.70737 23.1868 9.14531 23.6036 9.09438 24.011C9.00762 24.7013 9.87146 24.9729 11.0446 25.3407C11.2049 25.3916 11.3709 25.4425 11.5407 25.4991C12.6969 25.8745 14.251 26.3139 15.0583 26.3309C15.792 26.346 16.6105 26.0442 17.514 25.4256C23.6778 21.2629 26.8597 19.1599 27.0596 19.1146C27.2011 19.0826 27.3972 19.0411 27.5292 19.1599C27.6613 19.2768 27.6481 19.4994 27.6349 19.5598C27.5481 19.9238 24.1644 23.0717 22.4103 24.7013C21.8634 25.2087 21.4767 25.5689 21.3975 25.6519C21.2202 25.8349 21.0391 26.0103 20.8656 26.1781C19.7905 27.2117 18.987 27.9888 20.9109 29.2563C21.8351 29.8655 22.5744 30.3691 23.3119 30.8708C24.1173 31.4196 24.9207 31.9666 25.9619 32.6494C26.2259 32.8229 26.4787 33.0021 26.7257 33.1775C27.6631 33.8471 28.5062 34.4468 29.5474 34.3525C30.1509 34.296 30.7771 33.7282 31.094 32.0326C31.8428 28.0227 33.3177 19.3391 33.6591 15.7593C33.6799 15.462 33.6672 15.1634 33.6214 14.869C33.5939 14.6312 33.4781 14.4124 33.297 14.256C33.0272 14.0353 32.6085 13.9882 32.4199 13.992C31.5693 14.0071 30.2641 14.4616 23.9777 17.0758Z" fill="#F8F8F8"/>
</g>
<defs>
<clipPath id="clip0_1_250">
<rect width="45.2667" height="45.2667" fill="white" transform="translate(0.533325 0.366699)"/>
</clipPath>
</defs>
</svg>
