<svg width="46" height="46" viewBox="0 0 46 46" fill="none" xmlns="http://www.w3.org/2000/svg">
<g clip-path="url(#clip0_1_256)">
<path d="M44.3904 12.6392C44.1341 11.7249 43.6349 10.8971 42.9457 10.2438C42.237 9.5705 41.3685 9.08885 40.4221 8.84435C36.88 7.91072 22.6889 7.91072 22.6889 7.91072C16.7727 7.84341 10.8581 8.13946 4.97827 8.79719C4.0318 9.05976 3.16489 9.55218 2.45465 10.2306C1.75679 10.9021 1.25132 11.7301 0.98726 12.6373C0.352948 16.0545 0.0447554 19.5242 0.0668379 22.9996C0.0442046 26.4719 0.351641 29.9405 0.98726 33.3619C1.24566 34.2654 1.74925 35.0896 2.449 35.7554C3.14874 36.4212 4.02013 36.9021 4.97827 37.1568C8.56754 38.0885 22.6889 38.0885 22.6889 38.0885C28.6125 38.1559 34.5347 37.8599 40.4221 37.202C41.3685 36.9575 42.237 36.4759 42.9457 35.8025C43.6346 35.1494 44.1333 34.3215 44.3886 33.4072C45.0394 29.9913 45.3559 26.5202 45.3335 23.043C45.3825 19.5511 45.0664 16.0636 44.3904 12.6373V12.6392ZM18.1773 29.4577V16.5435L29.9843 23.0015L18.1773 29.4577Z" fill="#F8F8F8"/>
</g>
<defs>
<clipPath id="clip0_1_256">
<rect width="45.2667" height="45.2667" fill="white" transform="translate(0.0666504 0.366699)"/>
</clipPath>
</defs>
</svg>
