<svg width="78" height="81" viewBox="0 0 78 81" fill="none" xmlns="http://www.w3.org/2000/svg">
<path d="M53.5197 0.628365C44.7957 2.22374 38.1957 8.90659 36.5809 17.8052C36.3702 18.9574 36.3176 20.1097 36.3702 22.0064C36.4229 24.4704 36.4404 24.6299 36.8442 25.0553C37.4761 25.7289 38.2309 25.6757 39.1787 24.8603C40.4426 23.7967 41.3027 23.4777 43.0053 23.4777C44.6378 23.4777 45.4979 23.8145 46.9372 24.9667C47.3059 25.268 47.7973 25.5162 48.0431 25.5162C48.2713 25.5162 48.991 25.2503 49.6404 24.9135C51.1324 24.1513 53.3442 23.4422 54.7309 23.2827L55.8191 23.1586V30.8164V38.4565H54.608C52.8176 38.4565 52.7824 38.5096 52.0277 41.984C51.6941 43.5794 51.3782 44.9621 51.3255 45.0507C51.2729 45.1216 50.1319 44.4303 48.7979 43.5085C45.6734 41.3459 45.5681 41.3281 43.8303 43.0476L42.6016 44.253L40.741 42.6399C38.3186 40.5305 35.8963 38.6337 35.633 38.6337C35.5101 38.6337 35.4574 38.5096 35.5277 38.3678C35.5803 38.226 37.2479 35.9925 39.2314 33.4222C41.2676 30.7809 42.8824 28.5297 42.9351 28.2283C43.0931 27.4661 42.4612 26.7571 41.6362 26.7571C41.2851 26.7571 39.3016 27.2002 37.2654 27.7143C35.2117 28.2461 33.5266 28.6006 33.5266 28.5297C33.5266 28.4588 33.8777 27.5547 34.3165 26.5089C34.7553 25.4453 35.1064 24.3463 35.1064 24.0272C35.1064 23.3004 34.5798 22.7863 33.825 22.7863C33.509 22.7863 31.4202 23.6018 29.1032 24.5944C26.8213 25.5871 24.908 26.4025 24.8553 26.4025C24.8027 26.4025 23.1 25.2858 21.0638 23.9208C17.2372 21.3682 16.7984 21.1555 16.0261 21.705C15.3415 22.1836 15.3766 22.8041 16.2191 25.0021C16.6404 26.1012 16.9739 27.0407 16.9388 27.0761C16.9037 27.1116 15.4293 26.7216 13.6388 26.2075C10.725 25.3744 10.3388 25.3035 9.86489 25.4985C9.26809 25.7467 8.86436 26.5443 9.02234 27.0761C9.09255 27.2711 10.8479 29.8946 12.9191 32.8904C15.0606 35.9925 16.6229 38.3856 16.5 38.421C16.2543 38.5096 13.3053 40.8141 11.8484 42.0549C6.74043 46.4511 3.5633 50.1913 1.65 54.1443C0.351064 56.821 0 58.3277 0 61.1462C0 72.0125 6.40691 77.7913 19.8702 79.0676C22.9069 79.3512 31.9293 79.1917 34.3165 78.8017C37.7569 78.2522 39.6878 77.7204 42.2681 76.6214L43.7074 76.001L44.4096 76.6391C45.5505 77.6672 45.9191 77.5786 48.7979 75.5932C50.1319 74.6537 51.2729 73.9624 51.3255 74.051C51.3782 74.1397 51.6941 75.5223 52.0277 77.1177C52.5191 79.3867 52.7298 80.0957 53.0282 80.3439C53.3617 80.6098 53.8356 80.6453 57.1707 80.6453C60.8394 80.6453 60.9271 80.6275 61.3133 80.2376C61.6293 79.9362 61.8399 79.2094 62.2963 76.9582C62.6298 75.3805 62.9457 74.0333 63.016 73.9979C63.0862 73.9624 64.2096 74.6715 65.5261 75.5932C68.8787 77.9509 68.5101 78.004 72.0032 74.4765C75.0926 71.3566 75.1803 71.1971 74.3202 69.9031C74.0569 69.5308 73.3021 68.3963 72.6176 67.3859C71.7223 66.0742 71.4415 65.5069 71.5819 65.4183C71.7048 65.3474 73.0388 65.0283 74.566 64.7092C76.0755 64.3902 77.4622 64.0002 77.6378 63.8584C77.9011 63.6102 77.9362 63.1493 77.9362 59.5509C77.9362 55.9524 77.9011 55.4915 77.6378 55.2434C77.4622 55.1015 76.0755 54.7116 74.566 54.3925C73.0388 54.0734 71.7048 53.7543 71.5819 53.6834C71.4239 53.5771 71.5995 53.1871 72.2489 52.2476C74.5484 48.915 74.7766 48.5251 74.7766 47.9755C74.7766 47.4969 74.408 47.0538 72.0032 44.6253C68.5101 41.0977 68.8787 41.1509 65.5261 43.5085C64.192 44.4303 63.0686 45.1216 62.9984 45.0507C62.9282 44.9798 62.6122 43.6503 62.2963 42.0904C61.5766 38.5806 61.4888 38.4565 59.6809 38.4565H58.4521V30.8341V23.2118H58.891C60.2952 23.2118 63.7356 24.2931 65.2101 25.1971C65.9649 25.658 66.5617 25.5871 67.334 24.9667C69.1245 23.5131 71.4064 23.0345 73.2495 23.7436C73.8112 23.9563 74.6186 24.4349 75.0574 24.8249C76.2686 25.8885 77.392 25.7289 77.7606 24.4349C78.0766 23.3181 77.9713 19.0815 77.5676 17.1316C75.8473 8.60524 69.1771 2.09966 60.6638 0.610641C58.7681 0.291565 55.3277 0.291565 53.5197 0.628365ZM58.5574 3.64185C59.3824 4.04956 60.6638 5.37904 61.4011 6.60216C63.3495 9.88154 64.5431 14.384 64.7186 19.2588L64.8239 21.7937L63.5426 21.3505C59.4878 19.9501 54.8011 19.9501 50.7638 21.3328L49.5 21.7759V20.1983C49.5 17.0253 50.3426 12.4341 51.4309 9.63337C52.6245 6.58443 54.2569 4.38636 55.9069 3.58867C56.8723 3.12778 57.5043 3.12778 58.5574 3.64185ZM50.1846 5.60948C48.3239 8.83568 47.0074 13.9941 46.7617 19.1347L46.6388 21.3682L45.6559 21.0137C43.9707 20.411 41.1447 20.5528 39.3191 21.3328C39.0734 21.4391 39.0559 21.2619 39.1787 19.8969C39.4245 16.9012 40.5303 13.7991 42.3207 11.1224C43.2862 9.68655 45.4101 7.52393 46.867 6.53125C47.9027 5.8222 50.4654 4.43954 50.7638 4.42181C50.834 4.42181 50.5707 4.95361 50.1846 5.60948ZM64.7011 4.95361C66.2984 5.68038 68.1415 6.95669 69.5457 8.28616C72.8106 11.406 74.759 15.5008 75.1979 20.2692C75.3032 21.386 75.2856 21.4746 75.0048 21.3505C74.8293 21.2619 74.1447 21.0492 73.4601 20.8719C71.9856 20.4642 70.0548 20.5351 68.5628 21.0669L67.5798 21.4037V19.9501C67.5798 14.8627 65.7894 7.91391 63.683 4.90042C63.4899 4.63453 63.3846 4.42181 63.4548 4.42181C63.5074 4.42181 64.0692 4.65225 64.7011 4.95361ZM22.4681 28.2993C23.5213 29.0083 24.3112 29.416 24.6271 29.416C24.908 29.416 26.4351 28.8488 28.0324 28.1574C29.6298 27.4661 30.9638 26.9343 30.9989 26.9698C31.034 27.0052 29.9984 29.5933 28.717 32.6954L26.3824 38.3678H25.3468H24.3112L22.433 33.4044C21.3798 30.6746 20.3793 28.0156 20.1686 27.4838L19.8176 26.5266L20.309 26.8457C20.5723 27.023 21.5553 27.6788 22.4681 28.2993ZM16.0612 29.8592C17.2021 30.196 18.2027 30.5328 18.2729 30.6037C18.4133 30.7632 21.2394 38.1019 21.2394 38.3147C21.2394 38.4033 21.0112 38.4565 20.7303 38.4565C20.2564 38.4565 20.0106 38.1551 17.7989 34.9466C16.4824 33.0322 15.0431 30.9582 14.6218 30.3378C14.183 29.7351 13.867 29.2388 13.9197 29.2388C13.9548 29.2388 14.9202 29.5224 16.0612 29.8592ZM36.8793 31.8445C36.2824 32.6068 34.9133 34.3794 33.825 35.7975L31.8415 38.3678L30.6654 38.421C30.016 38.4565 29.4894 38.4033 29.4894 38.3324C29.4894 38.1197 31.9644 32.1813 32.1223 32.0218C32.2452 31.88 37.1952 30.5328 37.7043 30.4973C37.8271 30.4796 37.4585 31.1 36.8793 31.8445ZM20.116 41.594C18.0271 48.3832 17.167 51.5563 17.2372 52.4071C17.4128 54.5343 19.6947 55.8815 21.7133 55.0306C22.3452 54.7647 25.6277 51.6626 25.6277 51.3258C25.6277 51.0954 24.0303 49.4468 23.8021 49.4468C23.6968 49.4468 22.9245 50.1382 22.0995 50.9713C21.0463 52.0349 20.4846 52.478 20.2915 52.4071C20.1335 52.3362 20.0106 52.159 20.0106 51.9817C20.0106 51.8044 20.7128 49.3405 21.5553 46.522L23.1 41.3813L24.6096 41.3281C25.9436 41.2927 26.1367 41.3104 26.2245 41.594C26.2596 41.7713 26.8037 44.1821 27.4005 46.9651C27.9973 49.7482 28.5064 52.0349 28.5064 52.0526C28.5415 52.1235 31.2447 51.4854 31.2447 51.3967C31.2447 51.3436 30.7356 49.0568 30.1213 46.2915L29.0154 41.2927H31.8239H34.6149L36.0543 42.4272C36.8266 43.0476 38.1782 44.1644 39.0207 44.9266L40.583 46.2915L40.2319 46.6815C39.7755 47.1778 39.4947 47.7451 39.4947 48.1528C39.4947 48.3478 40.2495 49.5886 41.1798 50.9358C42.0926 52.3008 42.8122 53.4884 42.7771 53.5948C42.7245 53.7189 41.9697 53.9493 41.0745 54.1089C38.0553 54.6938 36.9846 54.9952 36.6686 55.3143C36.3702 55.6156 36.3351 55.9879 36.3351 59.48C36.3351 61.6603 36.4053 63.4329 36.5106 63.6279C36.7213 64.0356 37.2303 64.1952 40.1968 64.7979C41.4957 65.0638 42.6367 65.3474 42.7245 65.436C42.8298 65.5247 42.2154 66.606 41.1973 68.095C40.267 69.4954 39.4947 70.7717 39.4947 70.9489C39.4947 71.463 39.8282 71.9771 40.7585 72.952L41.6186 73.8561L40.7761 74.2106C36.5457 76.0187 29.384 76.8518 22.2223 76.4087C11.0585 75.6819 5.38883 72.5266 3.37021 65.8969C2.89628 64.3724 2.58032 61.359 2.72074 59.994C3.3 54.9066 7.47766 49.2696 15.5346 42.7285L17.2899 41.3104L18.7468 41.2927C20.0633 41.2927 20.2037 41.3281 20.116 41.594ZM59.7686 43.6326C60.0319 44.9266 60.3654 46.2029 60.4883 46.4688C61.0149 47.4792 62.4543 48.1528 63.6654 47.9224C64.034 47.8515 65.175 47.1956 66.3335 46.4156L68.3697 45.0152L69.8968 46.5574C70.7569 47.4083 71.4415 48.1883 71.4415 48.2592C71.4415 48.3478 70.9324 49.1455 70.3181 50.0495C69.7037 50.9358 69.0718 51.9108 68.9138 52.2299C68.317 53.4175 68.7559 55.2079 69.8441 56.0056C70.1777 56.236 71.2835 56.5728 72.7931 56.8919C74.1271 57.1933 75.233 57.4237 75.2505 57.4237C75.2856 57.4237 75.3032 58.3809 75.3032 59.5509C75.3032 60.7208 75.2856 61.678 75.2505 61.678C75.2154 61.678 74.1096 61.9262 72.7755 62.2098C71.3186 62.5289 70.1426 62.9012 69.8441 63.1139C68.7559 63.8938 68.317 65.6842 68.9138 66.8719C69.0718 67.1909 69.7037 68.1659 70.3181 69.0522C70.9324 69.9563 71.4415 70.7539 71.4415 70.8426C71.4415 70.9135 70.7569 71.6934 69.8968 72.5443L68.3697 74.0865L66.3335 72.6861C65.175 71.9062 64.034 71.2503 63.6654 71.1794C62.4543 70.9489 61.0149 71.6048 60.4883 72.6329C60.3479 72.8988 60.0319 74.1751 59.7511 75.4514L59.2771 77.809H57.1356H55.0117L54.5904 75.6287C54.3447 74.441 53.9936 73.147 53.8005 72.757C53.1511 71.463 51.6239 70.8248 50.2723 71.3035C49.9037 71.4275 48.7628 72.1189 47.7622 72.8279L45.9367 74.1042L44.3745 72.5443C43.5319 71.6934 42.8298 70.9312 42.8298 70.878C42.8298 70.8071 43.4266 69.8676 44.1814 68.7686C45.2697 67.1378 45.533 66.606 45.6032 65.9324C45.7787 64.0888 44.8835 62.9543 42.8824 62.5112C42.233 62.3694 41.0745 62.1212 40.3372 61.9439L38.9681 61.6603V59.5509V57.4592L40.1617 57.1933C40.8112 57.0514 41.9521 56.7856 42.7069 56.626C44.8835 56.1474 45.7787 55.0838 45.6032 53.1694C45.533 52.478 45.2872 51.9817 44.3043 50.5281C43.6372 49.5355 43.0229 48.6137 42.9176 48.4719C42.7771 48.2592 43.0931 47.8515 44.3394 46.6106L45.9191 44.9975L47.9027 46.3624C49.0085 47.1069 50.2021 47.7983 50.5883 47.8869C51.9574 48.1883 53.4319 47.4083 53.941 46.132C54.0814 45.7597 54.3798 44.5189 54.608 43.3667L55.0293 41.2927H57.1532H59.2771L59.7686 43.6326Z" fill="#090847"/>
<path d="M24.5744 58.9126C24.5744 59.6571 24.5217 59.7281 23.8723 60.1003C22.1872 61.0575 21.5026 63.4683 22.4153 65.3119C23.0297 66.535 24.1004 67.2618 25.6451 67.4922C26.7861 67.6517 27.3829 68.2899 27.102 69.0699C26.8387 69.8321 26.2946 70.0094 24.0127 70.0094H21.9414V71.3388V72.6683H23.2579H24.5744V73.3774V74.0864H25.9786H27.3829V73.3065C27.3829 72.562 27.4356 72.4911 28.085 72.1188C29.7701 71.1616 30.4547 68.7508 29.5419 66.9072C28.9276 65.6841 27.7515 64.9042 26.2595 64.7092C25.1712 64.5674 24.5744 63.9115 24.8552 63.1492C25.1185 62.387 25.6627 62.2097 27.9622 62.2097H30.0159V60.8803V59.5508H28.6994H27.3829V58.8417V58.1327H25.9786H24.5744V58.9126Z" fill="#0F0C4C"/>
<path d="M54.714 50.5813C53.222 51.0244 51.9055 51.8044 50.7119 52.9921C49.3779 54.3216 48.588 55.8106 48.1842 57.6896C47.8683 59.2495 47.8683 59.8522 48.1842 61.4121C48.588 63.2911 49.3779 64.7801 50.7119 66.1096C52.555 67.9354 54.556 68.7686 57.1364 68.7686C59.6114 68.7686 61.6124 67.9886 63.3677 66.34C64.3156 65.4537 65.2635 64.2306 65.1055 64.0711C65.0704 64.0533 64.5438 63.7343 63.947 63.3797L62.8763 62.7416L61.6651 63.947C60.1906 65.4537 59.0497 65.9501 57.1364 65.9501C54.6438 65.9501 52.5374 64.5851 51.3965 62.2452C50.8699 61.1817 50.8172 60.9158 50.8172 59.5508C50.8172 58.2923 50.905 57.8668 51.2911 57.0337C52.8709 53.6125 56.6975 52.1589 59.9273 53.772C60.4188 54.0202 60.8225 54.1975 60.8401 54.1797C60.8401 54.162 61.1911 53.6479 61.5949 53.0275C62.4725 51.7158 62.4725 51.7335 60.5592 50.9358C59.6114 50.5281 59.1023 50.4395 57.4874 50.404C56.206 50.3686 55.2757 50.4217 54.714 50.5813Z" fill="#0F0C4C"/>
<path d="M63.7179 55.5801C63.1913 55.8991 62.7525 56.2359 62.77 56.3069C62.77 56.3955 62.8754 56.6791 62.9982 56.9805C63.1211 57.2641 63.3142 57.9731 63.4195 58.5227L63.6301 59.5508H64.9817H66.3509V59.0544C66.3333 57.7072 65.3679 54.9242 64.894 54.9596C64.7887 54.9596 64.2445 55.2433 63.7179 55.5801Z" fill="#0F0C4C"/>
</svg>
