<svg width="73" height="65" viewBox="0 0 73 65" fill="none" xmlns="http://www.w3.org/2000/svg">
<path d="M51.7961 0.687485C51.6074 0.878042 51.453 1.25916 51.453 1.55366C51.453 2.36786 51.9334 2.71433 53.2885 2.85292C53.9232 2.90489 54.8667 3.00883 55.3814 3.07813L56.3077 3.19939L50.2865 8.39645C46.9586 11.2548 44.1796 13.6108 44.0767 13.6455C43.9738 13.6801 40.663 12.2596 36.7004 10.4926C32.7377 8.7256 29.3069 7.27042 29.0667 7.27042C28.7751 7.27042 27.6944 8.08463 25.43 9.99021C11.9639 21.4064 12.856 20.5922 12.856 21.2332C12.856 21.597 12.9932 21.9608 13.199 22.1686C13.971 22.9482 14.0568 22.8962 21.8791 16.2786C25.9275 12.8486 29.324 10.0422 29.427 10.0422C29.5299 10.0422 32.8407 11.48 36.7861 13.247C40.7145 15.014 44.1282 16.4519 44.3512 16.4519C44.7629 16.4519 45.6034 15.7589 53.6316 8.79489C55.9131 6.82001 57.8173 5.1916 57.8516 5.1916C57.8687 5.1916 57.8516 5.76328 57.783 6.43889C57.5428 8.7256 57.5943 9.48783 57.9717 9.86895C58.452 10.354 59.2411 10.3194 59.6528 9.79965C59.9787 9.36657 60.236 7.39168 60.4933 3.28601C60.6306 0.981985 60.785 1.08593 56.3935 0.67016C52.0534 0.271721 52.2078 0.271721 51.7961 0.687485Z" fill="#050443"/>
<path d="M52.8591 12.7447L52.4817 13.0045V32.5801V52.1383H51.0236H49.5655L49.5312 39.1284C49.4797 26.4822 49.4626 26.1184 49.1538 25.8759C48.8793 25.6853 47.8329 25.6334 43.5787 25.6334C40.6968 25.6334 38.2437 25.7026 38.1408 25.7719C37.5747 26.1531 37.5575 26.6035 37.5575 39.3882V52.1383H36.1852H34.8128V36.0275C34.8128 24.0916 34.7614 19.8127 34.607 19.4835C34.5041 19.241 34.2468 18.9985 34.0581 18.9465C33.8522 18.9118 31.3477 18.8945 28.4658 18.9118L23.2509 18.9638L23.0279 19.3969C22.8563 19.7434 22.8049 23.312 22.8049 35.9755V52.1383H21.3468H19.8886V42.1946C19.8886 33.377 19.8543 32.2163 19.6142 31.9738C19.3912 31.7312 18.6364 31.6966 13.9704 31.6966C8.60114 31.6966 8.58399 31.6966 8.32667 32.0777C8.08652 32.4242 8.05221 33.6715 8.05221 42.2812V52.1037L6.13093 52.173C4.31258 52.2249 4.12388 52.2769 3.11178 52.8313C1.91098 53.4722 1.05327 54.4077 0.470025 55.707C0.109786 56.4865 0.0754774 56.8503 0.0240147 59.9166C-0.0274481 63.1907 -0.0274481 63.2773 0.349946 63.6758L0.727339 64.0916H36.1852H71.643L72.0204 63.6758C72.3978 63.2773 72.3978 63.1907 72.3464 59.9166C72.2949 56.6944 72.2777 56.5212 71.8317 55.5684C71.2828 54.3557 70.1849 53.2297 69.0356 52.658C68.3323 52.3116 67.8519 52.2249 66.2566 52.173L64.3182 52.1037V32.7013V13.3163L63.8893 12.9006L63.4776 12.4675H58.3656C54.0085 12.4675 53.1851 12.5021 52.8591 12.7447ZM61.9166 33.5156V52.1383H58.3999H54.8833V33.5156V14.8928H58.3999H61.9166V33.5156ZM32.2397 36.7204V52.1383H28.7231H25.2065V36.7204V21.3025H28.7231H32.2397V36.7204ZM47.1639 40.0985V52.1383H43.6473H40.1307V40.0985V28.0586H43.6473H47.1639V40.0985ZM17.487 43.1301V52.1383H13.9704H10.4538V43.1301V34.1219H13.9704H17.487V43.1301ZM67.8348 54.8928C68.7097 55.2912 69.5674 56.2613 69.7904 57.1102C69.8933 57.474 69.9791 58.652 69.9791 59.7087V61.6663H36.1852H2.3913V59.7087C2.3913 58.652 2.47707 57.474 2.58 57.1102C2.803 56.2613 3.66072 55.2912 4.53558 54.8928C5.18745 54.5809 6.59409 54.5636 36.1852 54.5636C65.7763 54.5636 67.1829 54.5809 67.8348 54.8928Z" fill="#050443"/>
</svg>
