<svg width="72" height="74" viewBox="0 0 72 74" fill="none" xmlns="http://www.w3.org/2000/svg">
<path d="M24.4216 0.442413C22.8091 0.684944 21.5397 1.60309 20.7506 3.04094C20.356 3.76853 20.2359 4.25359 20.1845 5.32764L20.0987 6.69621L16.8565 9.50261C14.6265 11.4082 13.4772 12.2744 13.2198 12.257C13.0311 12.2397 12.3964 12.1704 11.8132 12.1185C8.82836 11.7547 6.22091 14.076 6.20375 17.0903C6.20375 17.6966 6.28953 18.4935 6.42676 18.8746C6.70123 19.7408 7.52463 20.9535 8.03926 21.2999L8.43381 21.5598L7.02716 25.9253L5.63766 30.2735L4.69418 30.3428C3.47623 30.4467 2.39551 30.9491 1.50349 31.8153C-0.469251 33.7555 -0.503559 37.099 1.41772 39.1258C2.06958 39.8188 3.51054 40.6156 4.11094 40.6156C4.41971 40.6156 4.67703 41.3259 6.20375 46.419L7.95349 52.2397L7.3874 53.002C6.63261 54.0067 6.35814 54.8209 6.35814 56.2241C6.35814 59.2038 8.77689 61.5078 11.7789 61.3865C12.6881 61.3519 12.7052 61.3692 16.6164 63.9331L20.5276 66.5316L20.5619 68.1774C20.5962 69.9097 20.8363 70.62 21.7627 71.746C22.8948 73.1146 25.4508 73.7382 27.3206 73.1146C28.4528 72.7334 29.7394 71.5554 30.254 70.4467L30.6486 69.5979L32.9129 69.2341C34.9543 68.9049 35.1773 68.8876 35.3317 69.1301C36.4124 70.8625 37.8362 71.7633 40.0663 72.1444C41.8331 72.4563 46.2075 72.2657 48.1459 71.8153C53.2407 70.62 56.9804 67.7443 58.833 63.5866C59.4677 62.1661 59.502 62.1314 60.1882 62.0275C61.7835 61.7677 63.3446 60.7282 64.2023 59.3597C64.8027 58.4242 65.2659 56.9517 65.2659 56.0162C65.2659 55.4446 65.4202 55.2194 66.6039 54.0067C68.1649 52.3783 69.2285 50.6113 70.0004 48.2553C70.8067 45.7781 71.0125 44.3575 71.0125 41.0487C70.9954 37.2029 70.4636 34.639 69.1084 31.9019L68.6967 31.0877L69.0741 29.8231C69.3829 28.853 69.4687 28.16 69.4687 26.6702C69.4687 24.9552 69.4172 24.6607 69.0055 23.7599C68.4909 22.6685 67.1185 21.092 66.2608 20.6243L65.6947 20.3125L65.6776 18.4762C65.6604 16.1548 65.283 15.0461 64.0479 13.6949C63.2245 12.7941 61.7492 11.8586 61.1317 11.8586C60.943 11.8586 60.5999 11.4255 60.2054 10.6806C57.495 5.70876 51.5939 1.82829 45.041 0.702263C43.0511 0.355797 40.4436 0.355797 39.2257 0.667618C37.5274 1.13535 36.035 2.31335 35.4689 3.68191C35.2802 4.14964 35.1601 4.25359 34.8514 4.1843C34.6455 4.13232 33.4962 3.95908 32.2954 3.78585L30.1168 3.47403L29.5679 2.62518C28.5214 0.979439 26.4629 0.113266 24.4216 0.442413ZM27.1834 2.74644C27.698 3.09291 28.0068 3.49136 28.3156 4.16697C28.7788 5.2237 28.8131 5.65679 28.5386 6.50565C27.6294 9.22543 24.1986 9.79711 22.5518 7.51041C21.351 5.81271 21.9171 3.47403 23.7869 2.52123C24.8161 1.98421 26.1885 2.08815 27.1834 2.74644ZM44.5264 2.43462C47.6313 2.95432 50.7877 4.23626 53.4294 6.02058C54.939 7.04267 57.0661 9.13882 57.941 10.4727C58.6615 11.5468 58.6958 11.4775 57.1347 11.8413C56.6887 11.9452 55.9683 12.2744 55.5394 12.5689C53.7382 13.8162 52.4345 16.8651 53.4466 17.4021C54.1156 17.7833 54.5616 17.4888 54.939 16.3974C55.7452 14.1973 57.0661 13.3138 59.382 13.4524C61.3375 13.5736 62.6584 14.4052 63.4647 15.9816C63.8249 16.7265 64.1165 18.5108 63.9793 19.1691L63.8592 19.6542H62.3668C60.5827 19.6542 59.2619 19.966 57.6151 20.7802C55.4365 21.8543 53.7725 24.141 53.7725 26.0466V26.7049L52.0228 26.6356C50.719 26.5836 49.9986 26.6356 49.3124 26.8434C47.597 27.3458 47.597 27.3458 47.597 26.9647C47.597 26.3237 46.9108 24.6953 46.2933 23.8811C45.7272 23.1362 45.71 23.1016 45.9845 22.6858C46.3447 22.1315 47.597 21.2999 48.6091 20.9535C49.0379 20.7975 49.5183 20.607 49.6555 20.5377C49.9986 20.3645 50.0843 19.5329 49.8099 19.1865C49.2438 18.5108 46.5334 19.5503 45.0753 21.0401L44.2176 21.9062L43.0339 21.3692C41.6616 20.7282 39.1914 20.1739 37.7504 20.1739H36.7383L36.8413 18.5628C37.0471 14.9768 38.4709 13.3658 40.9583 13.9201C41.3871 14.024 42.3135 14.3359 42.9996 14.5957C44.9895 15.3926 45.8644 15.5832 47.4426 15.5832C48.7806 15.5832 48.9865 15.5312 49.7413 15.0635C50.7019 14.4571 51.2165 13.591 51.3366 12.3783C51.4395 11.3389 51.0107 9.88373 50.3588 8.96558C49.4496 7.70097 47.2196 6.66155 44.6121 6.29776C42.8109 6.03791 42.2792 6.19382 42.2792 6.9907C42.2792 7.26788 42.3821 7.56238 42.5022 7.64899C42.6051 7.71829 43.4456 7.90885 44.3377 8.06476C47.5455 8.61911 49.0722 9.57191 49.4668 11.2869C49.7756 12.5516 49.4496 13.2791 48.3689 13.6776C47.6656 13.9548 47.4426 13.9721 46.4476 13.7815C45.8129 13.6603 44.6293 13.3138 43.8059 12.9846C40.7181 11.7547 39.0027 11.72 37.4073 12.8114L36.7898 13.2272V9.20811C36.7898 5.65679 36.8413 5.10244 37.1157 4.47879C38.0249 2.46926 40.5809 1.759 44.5264 2.43462ZM33.0673 5.70876L35.0744 6.02058V13.8855V21.7503L32.7414 21.6984L30.3913 21.6464L30.1683 20.9015C29.7394 19.377 28.3671 18.0258 26.8403 17.558L26.2056 17.3675L26.2742 16.1202C26.3085 15.4446 26.3943 13.9201 26.4629 12.7248L26.583 10.5767L27.1148 10.4208C28.693 9.97035 30.2369 7.96082 30.4084 6.14185C30.477 5.44891 30.5456 5.27567 30.7687 5.34497C30.923 5.37962 31.9523 5.55285 33.0673 5.70876ZM22.9292 10.1956C23.4266 10.4381 24.0442 10.646 24.3186 10.646H24.8161L24.7132 12.6728C24.6617 13.7988 24.5588 15.306 24.5073 16.0163L24.4044 17.3328L23.581 17.6273C22.3802 18.0604 21.3853 18.9093 20.7677 20.0007C20.2874 20.8668 20.2359 21.092 20.2359 22.5126C20.2359 23.9158 20.2874 24.1583 20.7334 24.9898C21.2137 25.856 21.7627 26.4623 22.6718 27.1033L23.0321 27.3632L22.2944 30.1003C21.8999 31.5901 21.5397 32.8547 21.5054 32.8894C21.471 32.924 21.0593 32.9933 20.579 33.0453L19.7213 33.1319L17.4226 28.264C16.1532 25.5788 14.9181 22.9803 14.678 22.4779L14.2663 21.5944L14.798 21.1267C16.1532 19.966 16.7708 17.8699 16.3076 16.0336C16.1532 15.4446 15.8101 14.6304 15.5357 14.2146L15.0382 13.487L17.9716 10.9405L20.905 8.41123L21.471 9.08685C21.7798 9.45064 22.4317 9.95302 22.9292 10.1956ZM12.7224 14.1973C15.1411 15.3233 15.3641 18.5108 13.1512 20.0873C12.4994 20.5377 12.2421 20.607 11.3157 20.607C10.3894 20.607 10.1321 20.5377 9.49737 20.0873C8.45096 19.3424 7.91918 18.2683 8.00495 17.021C8.10788 15.6871 8.72543 14.7343 9.90907 14.18C11.0241 13.6603 11.6073 13.6603 12.7224 14.1973ZM26.806 19.4983C27.6466 19.914 28.47 21.0401 28.6587 22.0448C28.7959 22.7724 28.4871 23.8985 27.921 24.6434C26.6345 26.3757 23.8555 26.3064 22.5518 24.4875C20.5104 21.6464 23.6496 17.9565 26.806 19.4983ZM64.7169 21.8889C67.7532 23.4654 68.5423 26.549 66.9127 30.4641L66.6382 31.1397L67.4788 32.8894C70.2921 38.6408 69.8289 46.5749 66.398 51.4082C65.9863 51.9972 65.4889 52.6208 65.3002 52.7941C64.9742 53.1059 64.9399 53.0886 64.0308 52.1531C62.95 51.079 61.9208 50.6633 60.2911 50.6633C59.2619 50.6633 58.9188 50.8538 58.9188 51.4602C58.9188 52.0318 59.382 52.3956 60.0853 52.3956C62.1095 52.3956 63.5504 53.6429 63.5504 55.3926C63.5504 58.0258 61.8693 59.9833 59.279 60.3298C58.6958 60.4164 58.1468 60.555 58.0782 60.6416C57.9925 60.7282 57.7523 61.3346 57.5464 61.9755C56.7917 64.3315 54.7331 66.7915 52.3659 68.212C49.9128 69.6845 47.3225 70.3774 43.823 70.5334C39.2257 70.7066 36.7898 69.5632 36.7898 67.1899C36.7898 66.6182 36.8241 66.5663 37.1843 66.6702C40.3922 67.623 40.7867 67.6923 43.7373 67.7096C46.2933 67.7269 46.825 67.675 47.9915 67.3285C51.0107 66.445 53.2922 64.7646 54.3214 62.6685C54.7846 61.733 54.8532 61.3692 54.8532 60.3125C54.8361 57.6966 53.5323 56.0682 50.496 54.8556C50.153 54.717 50.0157 54.5091 49.9471 54.0067C49.6383 52.0492 47.7857 49.8144 45.933 49.1042C44.1318 48.4285 40.7696 48.3246 40.375 48.9483C40.1692 49.2947 40.1863 49.6758 40.4436 50.005C40.598 50.2302 41.0612 50.2995 42.5365 50.3515C44.8694 50.4381 45.8815 50.8192 46.9966 52.0838C47.7514 52.9327 48.4547 54.5611 48.1802 54.8036C48.0944 54.8729 47.6656 55.0635 47.2367 55.2367C45.5728 55.843 44.2691 57.558 44.0632 59.429C43.9431 60.4164 44.1833 60.7802 44.9552 60.6763C45.4698 60.6243 45.6242 60.4164 45.8815 59.3943C46.156 58.2856 46.7393 57.558 47.7514 57.021C49.2095 56.2761 50.5475 56.4667 51.7483 57.558C54.7331 60.2778 52.4173 64.3489 47.1681 65.6828C46.3276 65.8907 45.2983 65.9773 43.7373 65.9773C41.4729 65.9599 40.4093 65.7867 37.9563 65.0072L36.7898 64.6434V43.2835V21.9062H37.5274C38.7625 21.9062 41.3014 22.5299 42.3992 23.1016C45.7615 24.7993 46.6878 27.5017 45.5042 32.0578C45.0753 33.7036 45.1782 34.0327 46.1389 34.0327C46.6535 34.0327 46.7393 33.9634 46.9966 33.2878C47.1338 32.8894 47.4083 31.8499 47.5627 31.0011L47.8543 29.442L48.8835 28.9223C49.7927 28.4545 50.0843 28.4026 51.4567 28.4026C53.3608 28.4026 54.0813 28.6451 54.7331 29.5113C56.0026 31.2263 58.9531 32.283 59.3648 31.1743C59.6221 30.516 59.279 30.0829 58.3184 29.7884C56.7573 29.338 55.5051 27.8829 55.4879 26.5143C55.4708 24.4355 57.4435 22.4433 60.2911 21.6464C61.6463 21.2826 63.7563 21.3865 64.7169 21.8889ZM15.347 28.1081L18.0917 33.8768L17.4741 34.4138C17.1482 34.7083 16.685 35.332 16.4448 35.7997C16.0503 36.5966 15.9817 36.6312 15.4671 36.5446C15.1583 36.4926 13.9232 36.2674 12.6881 36.0596L10.458 35.6611L10.3036 34.9682C9.92623 33.1665 9.01705 31.694 7.90203 31.105C7.66187 30.9664 7.45602 30.7759 7.45602 30.6719C7.45602 30.568 8.03926 28.6451 8.75974 26.4104L10.0635 22.3393H11.3329H12.6023L15.347 28.1081ZM35.0744 29.9617V36.458L34.697 36.5273C34.474 36.5793 32.6899 36.7352 30.7 36.8911C28.7273 37.0297 26.8746 37.1856 26.6173 37.2376C26.2742 37.2895 26.1198 37.2376 26.0512 37.0124C25.6738 35.7131 24.799 34.5004 23.6325 33.6862L23.2551 33.4264L23.9927 30.6719L24.7132 27.9002L25.914 27.6923C27.2863 27.4671 27.6637 27.2939 28.6758 26.4797C29.2934 25.9599 29.9796 24.8512 30.3398 23.7599C30.4256 23.5 30.7 23.4654 32.7585 23.4654H35.0744V29.9617ZM7.06147 32.7508C8.12503 33.6169 8.50243 34.4485 8.45096 35.6958C8.3995 36.5273 8.27942 36.8911 7.91918 37.3761C6.9757 38.6234 5.79205 39.0912 4.28248 38.814C3.54485 38.6754 2.34405 37.636 2.01812 36.8564C1.52064 35.6265 1.82942 34.0154 2.75575 33.1319C3.63062 32.3177 4.17955 32.1098 5.34604 32.1618C6.23806 32.2137 6.52969 32.3177 7.06147 32.7508ZM21.8313 34.9335C22.8605 35.1934 23.9927 36.3194 24.2672 37.3415C24.8676 39.5589 22.9978 41.811 20.7506 41.6204C19.5155 41.5165 18.5891 40.8582 18.0059 39.6975C17.7657 39.2124 17.577 38.6234 17.577 38.3809C17.577 36.5793 19.0523 34.9855 20.8878 34.743C20.9736 34.7256 21.3853 34.8123 21.8313 34.9335ZM13.237 37.9651C15.7244 38.3982 15.8616 38.4502 15.8616 38.814C15.8616 39.5762 16.5649 41.118 17.2168 41.7936L17.8686 42.4693L15.4499 46.7828L13.0311 51.0964L11.7446 51.0444C11.0413 51.0098 10.2522 51.0617 10.012 51.1483L9.56599 51.3216L7.95349 46.0206L6.32383 40.7023L7.28447 40.2519C8.24511 39.8014 9.54884 38.5368 9.77184 37.8612C9.90907 37.3935 10.0463 37.3935 13.237 37.9651ZM35.0744 45.3796V52.3956H33.8907H32.7071L32.6042 51.824C32.5527 51.4948 32.2782 50.8885 31.9866 50.4381C30.9745 48.827 29.0704 47.9262 27.0976 48.134L26.0512 48.238L24.919 45.5182L23.7869 42.7811L24.5417 42.0188C25.2964 41.2566 25.9826 40.0613 25.9826 39.5243C25.9826 39.351 26.0855 39.1778 26.2228 39.1258C26.4972 39.0219 33.0159 38.4156 34.2681 38.3809L35.0744 38.3636V45.3796ZM21.0593 43.3874H22.1229L23.2894 46.2458L24.473 49.1042L23.7697 49.901C22.8434 50.9751 22.4831 52.1011 22.5861 53.6776C22.7405 55.9816 24.0613 57.6273 26.3429 58.3376C26.583 58.4242 26.583 58.6494 26.1885 60.6763L25.7425 62.9283L24.9019 63.0323C23.8898 63.1709 22.6375 63.7945 22.0543 64.4182C21.8141 64.6607 21.5568 64.8686 21.471 64.8686C21.3338 64.8686 15.1926 60.8842 14.7809 60.5377C14.7123 60.4684 14.8838 60.1566 15.1926 59.8274C17.0109 57.8872 17.0624 54.665 15.3298 52.6728L14.6608 51.8933L17.0967 47.545C18.7778 44.5481 19.6184 43.2315 19.7728 43.3008C19.8929 43.3528 20.4761 43.3874 21.0593 43.3874ZM28.5214 50.005C29.585 50.2648 30.6657 51.3562 30.923 52.4303C31.2661 53.7642 30.9059 54.9075 29.8595 55.8084C27.252 58.1297 23.2722 55.4099 24.5073 52.1531C24.8504 51.2696 25.914 50.1955 26.6173 50.0396C26.8918 49.9877 27.1834 49.9184 27.2692 49.8837C27.578 49.7798 27.698 49.7971 28.5214 50.005ZM13.3399 53.3657C15.3984 54.8382 15.3298 57.7313 13.2198 59.0652C10.9898 60.4511 8.14219 58.8227 8.14219 56.1722C8.14219 53.435 11.1442 51.824 13.3399 53.3657ZM35.0744 60.607V67.0686L33.2389 67.3631C32.2096 67.5364 31.2661 67.6923 31.1117 67.7443C30.9059 67.7962 30.7687 67.571 30.5628 66.8088C30.2197 65.5269 29.4306 64.4528 28.3671 63.7945C27.9039 63.5 27.5265 63.2055 27.5265 63.1535C27.5265 63.1016 27.7323 62.0275 27.9725 60.7802L28.4185 58.5108L29.3277 58.2163C29.8423 58.0604 30.5628 57.6273 31.026 57.2289C31.8494 56.5013 32.6728 55.1154 32.6728 54.4745C32.6728 54.1626 32.7757 54.128 33.8736 54.128H35.0744V60.607ZM27.0976 65.1631C28.2984 65.7867 28.9675 66.8954 28.9503 68.2466C28.9503 69.2861 28.6072 69.9963 27.801 70.7066C25.1935 73.0453 21.2137 70.3081 22.4488 67.0513C22.7919 66.1678 23.8555 65.0938 24.5588 64.9379C24.8333 64.8859 25.1249 64.8166 25.2107 64.7819C25.5023 64.6607 26.5487 64.8859 27.0976 65.1631Z" fill="#050443"/>
<path d="M40.803 33.946C40.5457 34.3444 40.5457 34.5523 40.7172 35.6437C41.2147 38.8312 43.256 40.9447 46.7727 41.9321C48.2308 42.3479 51.9018 42.4345 53.3256 42.1053C54.9038 41.7242 56.3447 40.9273 57.3054 39.8879L58.0945 39.0391L58.6949 39.5068C60.0329 40.5289 60.7534 42.088 60.5818 43.5952C60.3931 45.1889 59.4668 46.4362 57.9058 47.1638C56.6364 47.7528 54.6636 47.6662 53.2227 46.9386C52.3821 46.5055 52.1763 46.4709 51.816 46.6441C51.2842 46.8866 51.1985 47.6835 51.6788 48.1166C52.6566 49.0174 55.3498 49.6064 57.0481 49.2946C60.1187 48.7576 62.1257 46.5921 62.3144 43.5952C62.383 42.5384 62.486 42.14 62.8977 41.499C63.9955 39.7493 64.4759 36.5272 63.9269 34.6043C63.6868 33.8074 63.155 33.4956 62.5717 33.8247C62.2973 33.9806 62.263 34.2578 62.263 36.3193C62.263 38.1902 62.1943 38.7619 61.937 39.3682L61.6111 40.1131L61.3538 39.7147C60.9249 39.0564 59.8957 38.017 59.3124 37.6532C58.8149 37.3414 58.7806 37.2721 58.935 36.8217C59.038 36.5445 59.0894 35.9382 59.0551 35.4878C59.0036 34.7429 58.9522 34.6216 58.5405 34.483C57.9401 34.2751 57.374 34.7429 57.374 35.4358C57.374 36.4232 56.6707 37.8957 55.7615 38.8139C54.4235 40.1478 53.377 40.5116 50.6838 40.5116C48.4195 40.5289 47.3044 40.3383 45.7777 39.6627C43.8736 38.8139 42.4498 36.8044 42.4498 34.9507C42.4498 33.946 42.1582 33.5129 41.5063 33.5129C41.249 33.5129 40.9745 33.6861 40.803 33.946Z" fill="#050443"/>
</svg>
