<svg width="86" height="58" viewBox="0 0 86 58" fill="none" xmlns="http://www.w3.org/2000/svg">
<path d="M25.9701 0.641911C19.2973 2.00456 14.1957 7.60448 13.3085 14.4924L13.1791 15.463L8.72447 15.519C4.25133 15.575 4.25133 15.575 3.29016 16.079C1.99628 16.7697 1.07207 17.7404 0.480585 19.0097L0 20.055V36.7614V53.4679L0.665426 54.6812C1.44176 56.0998 2.68019 57.1638 4.04801 57.5745C4.84282 57.8172 8.63205 57.8545 31.9959 57.8545H59.038L60.1101 57.4438C61.441 56.9398 62.9197 55.5212 63.4003 54.2519L63.733 53.3746H74.3983C84.4906 53.3746 85.082 53.3559 85.3593 53.0386C85.6366 52.7212 85.6735 51.6386 85.6735 41.204C85.6735 30.3215 85.6551 29.7055 85.3408 29.4255C85.0636 29.1642 84.6015 29.1082 83.0303 29.1082H81.0525V26.8122C81.0525 25.2816 80.9786 24.4416 80.8307 24.2923C80.6828 24.1429 79.9435 24.0683 78.7051 24.0683H76.8012V21.8656C76.8012 20.4096 76.7273 19.5883 76.5794 19.439C76.413 19.271 74.6755 19.215 69.8697 19.215H63.4003L62.9566 18.375C62.4206 17.3484 61.4964 16.4897 60.3689 15.967C59.648 15.6497 59.038 15.575 56.4688 15.4817L53.4189 15.3884L53.2895 14.3244C52.6241 8.96713 49.3709 4.39386 44.4541 1.94856C41.663 0.548576 41.2379 0.492577 33.8258 0.436577C28.8536 0.399246 26.8758 0.455246 25.9701 0.641911ZM41.7739 3.03121C46.894 4.84185 50.443 9.11646 51.2563 14.3991L51.4226 15.4817H33.3267H15.2124L15.3418 14.4924C15.9148 10.0685 19.131 5.64451 23.1975 3.74054C25.8222 2.48988 26.4507 2.41522 33.7334 2.47122L40.2952 2.50855L41.7739 3.03121ZM59.3892 17.8337C60.184 18.1697 61.0158 18.9163 61.3855 19.6257C61.6073 20.0737 61.6073 20.3163 61.367 21.567C60.4428 26.0842 58.6314 29.3135 56.7275 29.8362C56.2839 29.9669 53.9364 30.0415 50.8126 30.0415H45.6186L44.8977 28.8095C42.9384 25.4309 39.5374 22.8549 35.6003 21.791C33.641 21.2683 30.1475 21.2683 28.1512 21.8096C24.3435 22.8176 21.0903 25.2816 19.0201 28.6975L18.2622 29.9482L13.0497 30.0042C9.98138 30.0229 7.54149 29.9669 7.13484 29.8549C5.58218 29.4442 3.91862 26.9616 2.95745 23.6203C1.94082 19.999 2.16263 18.9723 4.26981 17.9083C4.97221 17.5537 5.58218 17.5537 31.848 17.535C55.7109 17.535 58.7793 17.5724 59.3892 17.8337ZM70.5166 21.4176C70.5166 21.6043 70.7939 22.239 71.1451 22.8176L71.792 23.8816H67.818H63.8624V22.4816V21.0816H67.1895C70.2763 21.0816 70.5166 21.1003 70.5166 21.4176ZM74.768 22.1083C74.768 22.6683 74.694 23.1349 74.6016 23.1349C74.2689 23.1349 73.2338 22.2576 72.8826 21.679L72.5129 21.0816H73.6404H74.768V22.1083ZM35.4894 23.9003C40.1658 25.3376 43.6778 29.0709 44.7314 33.6815C45.138 35.4548 45.1011 38.1987 44.6574 39.9907C42.8275 47.1586 35.1751 51.5826 28.2621 49.4359C26.007 48.7453 24.5468 47.8306 22.7169 46.0013C21.2751 44.5827 20.9055 44.06 20.1661 42.548C18.7428 39.5987 18.4101 36.7054 19.131 33.6068C20.1291 29.4442 23.4932 25.5989 27.4488 24.1429C29.8887 23.2656 33.1049 23.1536 35.4894 23.9003ZM75.3964 26.9429C75.6737 27.5029 76.1912 28.2122 76.5424 28.5295L77.1894 29.1082H70.5166H63.8624V27.5216V25.9349H69.3891H74.9158L75.3964 26.9429ZM79.2041 26.8682C79.2041 27.7829 79.1856 27.8016 78.7975 27.5962C78.2614 27.3162 77.559 26.6816 77.3372 26.2522C77.1709 25.9722 77.2633 25.9349 78.1875 25.9349H79.2041V26.8682ZM3.84468 29.9482C4.23285 30.4149 4.99069 31.0495 5.50824 31.3482L6.46942 31.9082H11.9961H17.5044L17.3935 32.3188C16.6541 34.9135 16.5802 38.2174 17.2086 40.5881C18.4286 45.2173 21.9775 49.2493 26.3213 50.9292C28.4285 51.7506 29.7039 51.9559 32.1622 51.9372C33.9737 51.9186 34.6761 51.8252 36.0069 51.4332C42.7166 49.4173 47.0419 43.7053 47.0419 36.8548C47.0419 35.1935 46.7461 33.1588 46.3949 32.2255C46.2656 31.9268 46.5983 31.9082 51.7738 31.9082C56.9863 31.9082 57.319 31.8895 58.0769 31.5162C59.0565 31.0495 60.5537 29.3882 61.2931 27.9882L61.8291 26.9616V39.8414C61.8291 51.9746 61.7922 52.7586 61.4779 53.4679C61.0528 54.3825 60.2949 55.1292 59.3892 55.5025C58.7793 55.7639 55.7109 55.8012 31.848 55.8012H5.00918L4.21436 55.4092C3.27168 54.9425 2.43989 53.9905 2.14415 53.0199C1.99628 52.5159 1.94082 48.5959 1.94082 39.6361V26.9616L2.5508 28.0255C2.86503 28.6229 3.45652 29.4815 3.84468 29.9482ZM79.5738 32.2255C80.2392 33.8495 81.4777 34.9321 83.3261 35.5295C83.6218 35.6228 83.6403 36.0708 83.6403 41.2974V46.9533L82.7715 47.196C81.5701 47.5133 79.8696 49.2493 79.5368 50.4813L79.315 51.3212H71.5887C63.9548 51.3212 63.8624 51.3212 63.8624 50.9479C63.8624 50.7426 64.0102 50.5186 64.1951 50.4626C66.0805 49.8653 67.3374 48.7639 68.2801 46.8973C70.2394 42.9587 69.8142 37.2654 67.3374 34.1108C66.635 33.2148 65.3411 32.3375 64.4723 32.1695C63.9918 32.0762 63.8624 31.9642 63.8624 31.6095V31.1615H71.4963H79.1302L79.5738 32.2255ZM83.6403 32.2815C83.6403 32.8975 83.5848 33.4015 83.5109 33.4015C83.0488 33.4015 81.4222 31.7588 81.4222 31.2922C81.4222 31.2175 81.9213 31.1615 82.5312 31.1615H83.6403V32.2815ZM64.7311 34.5215C66.0065 35.2868 67.0231 37.3401 67.4113 39.8414C67.8919 42.996 66.635 46.804 64.7126 47.98C64.3984 48.1666 64.0842 48.3346 64.0102 48.3346C63.9178 48.3346 63.8624 45.1427 63.8624 41.2414C63.8624 37.3401 63.9178 34.1481 64.0102 34.1481C64.0842 34.1481 64.3984 34.3161 64.7311 34.5215ZM83.5848 51.2652C83.5294 51.3026 83.0303 51.3212 82.4388 51.2839L81.4037 51.2279L81.8289 50.5746C82.0692 50.2199 82.5497 49.7346 82.9009 49.4919L83.5479 49.0626L83.6033 50.1079C83.6403 50.7053 83.6218 51.2092 83.5848 51.2652Z" fill="#050443"/>
<path d="M39.1671 28.8096C38.8344 29.0709 38.816 29.3882 38.7605 34.3162L38.705 39.5614H37.1524H35.5812V36.3321C35.5812 33.4202 35.5443 33.0469 35.2485 32.7855C34.8234 32.3935 34.2134 32.3749 33.8437 32.7669C33.6034 33.0095 33.548 33.6069 33.548 36.3135V39.5614H31.8844H30.2209V35.1002C30.2209 30.2469 30.2024 30.1349 29.1673 30.2656C28.28 30.3589 28.1876 30.8442 28.1876 35.3988V39.5614H26.6165H25.0453V36.9855C25.0453 34.1668 24.9159 33.7189 24.0657 33.7189C23.086 33.7189 23.0121 33.9615 23.0121 36.8735V39.5614H21.94C21.1267 39.5614 20.7755 39.6548 20.5537 39.8974C20.1471 40.3454 20.1655 40.9241 20.5722 41.2974C20.8864 41.5774 21.94 41.6147 31.8659 41.6147C39.0562 41.6147 42.9379 41.5401 43.1782 41.4281C43.4185 41.2974 43.5294 41.0361 43.5294 40.5881C43.5294 39.7854 43.1597 39.5614 41.7919 39.5614H40.7568V34.2415C40.7568 29.1829 40.7383 28.9216 40.4056 28.7349C39.9065 28.4736 39.5923 28.4923 39.1671 28.8096Z" fill="#050443"/>
<path d="M3.82553 47.5321C3.4004 47.7001 3.27101 48.3908 3.43737 49.5294C3.65918 50.9294 4.28764 52.1427 5.30426 53.132C6.74601 54.5507 9.38923 55.428 10.3504 54.7933L10.8125 54.4947V51.2281C10.8125 47.1214 11.0898 47.4014 7.02327 47.4201C5.39668 47.4201 3.95492 47.4761 3.82553 47.5321ZM8.77926 51.1347C8.77926 52.0494 8.74229 52.8147 8.68684 52.8147C8.39109 52.8147 7.13418 52.0307 6.67208 51.5827C6.22846 51.1161 5.45213 49.8467 5.45213 49.5481C5.45213 49.4921 6.20998 49.4548 7.11569 49.4548H8.77926V51.1347Z" fill="#050443"/>
<path d="M53.4005 47.6626C53.0862 47.9052 53.0493 48.2226 52.9938 50.8919C52.9569 52.6279 53.0123 54.0465 53.1232 54.3452C53.382 55.0358 54.0289 55.1665 55.4892 54.7932C58.3172 54.1025 60.1656 51.9745 60.4614 49.1186C60.6462 47.4759 60.4799 47.4013 56.7461 47.4013C54.4726 47.4013 53.6777 47.4573 53.4005 47.6626ZM58.3172 49.6972C58.3172 49.8279 58.0769 50.3319 57.7812 50.8172C57.2452 51.6572 56.2285 52.4599 55.4152 52.7212C54.9901 52.8332 54.9901 52.8145 54.9901 51.1532V49.4546H56.6537C57.8921 49.4546 58.3172 49.5106 58.3172 49.6972Z" fill="#050443"/>
<path d="M74.3986 38.796C73.6963 39.1693 72.9199 40.4573 72.9199 41.2226C72.9199 41.484 73.0863 42.0626 73.2896 42.492C74.2138 44.5639 77.3006 44.6013 78.3173 42.548C79.5742 40.028 76.8755 37.452 74.3986 38.796ZM76.3949 40.7187C76.7276 41.0546 76.6537 41.5586 76.2101 41.876C75.5262 42.3613 74.7498 41.6146 75.138 40.8493C75.3598 40.4573 76.0622 40.3827 76.3949 40.7187Z" fill="#050443"/>
</svg>
