<svg width="66" height="79" viewBox="0 0 66 79" fill="none" xmlns="http://www.w3.org/2000/svg">
<path d="M40.3245 0.223236C38.1213 0.917252 36.2819 2.89724 35.9585 4.97928L35.817 5.75494H34.2404H32.6436V10.613V15.4916L30.9255 15.9202C28.8234 16.4305 26.6809 17.4511 25.0638 18.6963L23.8511 19.6148L21.284 19.6352H18.6968V18.3084C18.6968 17.2062 18.7574 16.9408 19.0606 16.8592C21.1426 16.206 22.8404 14.6751 23.4266 12.9604C23.6085 12.4297 23.75 11.3479 23.75 10.5518C23.75 9.32708 23.6489 8.87801 23.1436 7.83699C21.9915 5.53041 20.233 4.44856 17.5851 4.42815C16.2106 4.42815 15.7862 4.5098 14.816 4.99969C11.8447 6.46937 10.5106 10.1844 11.8245 13.2666C12.4106 14.6547 14.1287 16.2672 15.4223 16.6346L16.3723 16.9204L16.433 19.2882L16.4936 21.656L19.2021 21.7173L21.9106 21.7785L21.1426 23.0033C20.4149 24.1667 19.3032 26.6775 19.3032 27.1673C19.3032 27.3306 17.4436 27.3919 13.2394 27.3919H7.17553V26.8203C7.17553 26.3304 7.2766 26.2284 8.04468 26.0243C13.2394 24.6158 13.9872 17.0837 9.1766 14.4301C6.87234 13.185 3.71915 13.5932 1.85957 15.4099C0.485106 16.7775 0 17.9614 0 20.0435C0.0202128 21.5132 0.101064 21.9418 0.545745 22.7991C0.848936 23.3503 1.43511 24.1667 1.85957 24.575C2.62766 25.3302 4.14362 26.1467 4.81064 26.1671C5.11383 26.1671 5.15426 26.3917 5.15426 27.9022V29.6372H11.9255H18.6968V30.6578V31.6784H15.2606H11.8245V36.0466V40.3945L10.6521 40.8231C8.26702 41.7212 6.73085 43.987 6.71064 46.7018C6.71064 48.0286 6.79149 48.396 7.39787 49.5799C8.55 51.8865 10.5106 53.0296 13.1787 52.9888C14.6947 52.9684 16.7362 52.0498 17.6053 51.0088C19.283 49.0288 19.6266 46.0282 18.4745 43.7012C17.9489 42.6194 16.2309 41.1497 15.0585 40.7619L14.0479 40.4149V37.1693V33.9238H16.433H18.8181L19.0606 35.1281C19.566 37.5572 21.3851 41.1293 22.8202 42.4765L23.3457 42.9664V50.6006V58.2143H21.1426H18.9394L18.3128 57.112C17.2213 55.1525 15.2809 54.0502 12.916 54.0502C11.7032 54.0502 11.2787 54.1523 10.1468 54.7034C9.41915 55.0708 8.57021 55.6628 8.26702 56.0302C6.10426 58.6225 6.20532 62.5009 8.50957 64.8074C9.70213 66.0118 10.6723 66.4404 12.4511 66.5425C14.5128 66.665 15.8064 66.2363 17.1404 64.9707C18.3532 63.8277 18.8989 62.7866 19.0404 61.3578L19.1617 60.2555H22.3553H25.5691V52.6418V45.0076L27.1862 45.8445L28.8032 46.6814V61.2965V75.9117L29.2681 76.5853C30.0766 77.81 30.8447 78.0958 33.4117 78.1978C36.1202 78.2795 37.0904 77.9937 38.4649 76.7078C39.7383 75.5238 40.3649 74.1562 40.4862 72.3395L40.5872 70.8699H39.0308C37.1713 70.8699 36.3628 70.5229 35.9585 69.5227C35.5947 68.6245 35.7564 67.9509 36.5245 67.2977C37.05 66.8487 37.3128 66.7874 38.8287 66.7874H40.5266V63.8277V60.8679H39.8191C36.7468 60.8679 36.383 57.9081 39.4149 57.6428L40.5266 57.5611V52.1111L40.5468 46.6814L41.8202 46.0486L43.0936 45.4363L44.8521 48.9676L46.5904 52.4989H49.8245C52.5936 52.4989 53.0585 52.5397 53.0585 52.8051C53.0585 53.4583 54.0894 55.1321 54.9787 55.9281C56.1511 56.9692 57.384 57.3978 59.2234 57.3978C61.6894 57.3978 63.8117 56.0098 64.8628 53.744C65.5298 52.2744 65.4691 49.8861 64.7213 48.3756C63.6298 46.1303 61.5277 44.8647 58.9202 44.8851C56.1511 44.9055 53.6447 46.9264 52.9777 49.682L52.8564 50.2535H50.3702H47.884L46.3883 47.2121L44.8926 44.1503L46.2266 42.7419C46.9543 41.9662 47.7223 41.0272 47.9245 40.6802L48.2883 40.0474H54.2106H60.133V37.8021C60.133 36.1691 60.1936 35.5159 60.3957 35.4751C62.5383 34.8423 63.933 33.7401 64.7819 31.9846C65.2064 31.1273 65.2872 30.6782 65.2872 29.229C65.267 27.7593 65.1862 27.3306 64.7415 26.4733C64.1149 25.2486 62.983 24.1463 61.75 23.4931C60.4564 22.8195 57.8287 22.8195 56.4543 23.4931C52.5532 25.4119 51.6436 30.6782 54.6553 33.7197C55.484 34.5566 56.3936 35.0465 57.8691 35.4751C58.0308 35.5159 58.1117 35.9446 58.1117 36.6794V37.8021H53.867C51.5426 37.8021 49.6223 37.7409 49.6223 37.6388C49.6223 37.5572 49.8245 36.904 50.067 36.1691C50.4511 35.026 50.5117 34.3933 50.5117 31.5764C50.5319 28.5145 50.4915 28.2084 49.966 26.6775C49.2181 24.5546 48.2277 22.7583 46.8936 21.1662L45.8223 19.9006L47.0553 18.4513L48.3085 17.0021L50.5926 16.9817C52.25 16.9817 52.8968 17.0429 52.9372 17.2266C53.5638 19.4107 54.6553 20.8191 56.3936 21.6765C57.8085 22.3909 60.3957 22.4113 61.7904 21.7173C63.0032 21.1049 64.216 19.9006 64.8021 18.6555C65.4894 17.2878 65.4894 14.6343 64.8021 13.2666C64.216 12.0215 63.0032 10.8172 61.7904 10.2048C60.4766 9.55161 57.8287 9.5312 56.4543 10.1844C54.7766 10.9601 53.5638 12.5114 52.9372 14.6751C52.8968 14.8792 52.1287 14.9404 50.0468 14.9404H47.2372L45.7617 16.6142C44.9532 17.5532 44.2457 18.3289 44.1649 18.3697C44.084 18.3901 43.3968 18.0431 42.6287 17.594C40.8904 16.5734 38.4649 15.7773 36.484 15.5936L34.9681 15.4507L34.9074 11.6132L34.867 7.79617H35.4532C35.9181 7.79617 36.0596 7.89822 36.1404 8.36771C36.2011 8.67389 36.5649 9.38831 36.9287 9.93945C39.6574 14.0015 45.8426 13.3687 47.8638 8.83719C48.4702 7.48998 48.45 5.20381 47.8234 3.75455C47.1766 2.32569 45.4989 0.774368 44.1245 0.345711C43.033 0.0191193 41.1734 -0.0421219 40.3245 0.223236ZM43.033 2.30528C46.55 3.20342 47.2777 7.73492 44.2457 9.79656C43.316 10.4498 43.1543 10.4906 41.9213 10.4089C40.85 10.3477 40.4053 10.2252 39.7585 9.75574C38.8085 9.10255 37.8989 7.46957 37.8989 6.46937C37.8989 5.0201 38.8287 3.36671 39.9809 2.75435C41.2947 2.08075 41.8202 1.9991 43.033 2.30528ZM19.8691 7.22462C20.7787 7.83699 21.7287 9.5312 21.7287 10.5314C21.7287 12.4501 20.3745 14.2668 18.5957 14.7159C14.9574 15.6344 12.0266 11.4295 14.1691 8.36771C15.4426 6.53061 18.05 6.0203 19.8691 7.22462ZM60.0319 11.899C61.083 12.1644 62.3766 13.2258 62.8415 14.2056C63.0234 14.5934 63.1649 15.3691 63.1649 15.961C63.1649 16.553 63.0234 17.3287 62.8415 17.7165C62.3564 18.7167 61.0628 19.7781 59.9713 20.0435C57.95 20.513 55.767 19.1453 55.1606 17.0429C54.8777 16.0631 54.8777 15.859 55.1606 14.8792C55.5447 13.5728 56.6766 12.3685 57.9298 11.9807C59.0415 11.6337 58.9809 11.6337 60.0319 11.899ZM8.30745 16.4714C9.90425 17.4103 10.6521 19.3699 10.1064 21.1866C9.60106 22.9216 7.98404 24.1259 6.16489 24.1259C3.88085 24.1259 2.12234 22.3501 2.12234 20.0435C2.12234 18.7575 2.48617 17.8798 3.39574 17.0225C4.79043 15.6753 6.60957 15.4712 8.30745 16.4714ZM37.5957 17.9002C40.2436 18.4513 43.5787 20.4721 45.2362 22.5338C46.4085 23.983 47.3787 25.7589 47.9447 27.4939C48.6723 29.7801 48.7128 33.1073 48.0255 35.3526C46.6511 39.8637 43.6191 43.1093 39.2734 44.8035C37.6564 45.4159 37.4745 45.4567 34.6649 45.4363C31.8957 45.4363 31.6532 45.3954 30.0968 44.8035C27.2064 43.7012 25.0436 42.0274 23.3255 39.5576C17.9287 31.8213 21.6074 21.1049 30.6426 18.2268C31.35 18.0023 32.1585 17.7777 32.4415 17.7369C33.6138 17.5328 36.2819 17.6144 37.5957 17.9002ZM60.9011 25.5344C62.3362 26.2896 63.1649 27.6164 63.1649 29.2086C63.1649 30.5149 62.9426 31.0661 62.033 32.0867C60.2745 34.0463 57.2021 33.7809 55.7064 31.556C54.2915 29.4739 55.0596 26.6979 57.4043 25.4731C58.2532 25.0241 59.9713 25.0649 60.9011 25.5344ZM14.1085 42.7214C16.3319 43.3338 17.6457 46.0486 16.7564 48.1715C15.3617 51.5599 10.8947 51.7845 9.29787 48.5593C8.44894 46.8243 8.77234 44.9668 10.167 43.6604C11.2181 42.6398 12.6532 42.3132 14.1085 42.7214ZM60.9617 47.4571C61.5074 47.7428 62.1138 48.3144 62.5181 48.9472C63.1649 49.8657 63.2053 50.0494 63.1245 51.2946C63.0234 53.0908 62.3968 54.091 60.8404 54.8463C59.8904 55.3362 59.5468 55.3974 58.6574 55.2954C56.5957 55.03 54.9787 53.2337 54.9989 51.1721C55.0191 48.049 58.2532 46.0282 60.9617 47.4571ZM34.766 47.702C35.6553 47.702 36.8681 47.6204 37.4543 47.5387L38.5053 47.3754V51.417V55.4587L37.5957 55.8261C35.8372 56.5609 34.8266 58.398 35.2713 60.0514C35.5745 61.1537 36.5043 62.1947 37.5957 62.6233C38.4447 62.9499 38.5053 63.0112 38.5053 63.7256V64.4808L37.4947 64.6033C35.3521 64.8687 33.8564 66.3179 33.6947 68.2979C33.6543 68.9103 33.7149 69.7268 33.8564 70.135C34.3617 71.7068 35.9383 72.8907 37.5553 72.9111C37.9596 72.9111 38.3032 72.9519 38.3032 73.0131C38.3032 73.0744 38.1213 73.4622 37.9191 73.8909C37.434 74.8502 36.7872 75.4626 35.8372 75.8709C34.5032 76.422 31.6128 76.1566 31.0872 75.4422C30.8851 75.1564 30.8245 72.1354 30.8245 61.2353V47.3958L31.9968 47.5387C32.6234 47.6408 33.8766 47.702 34.766 47.702ZM14.6138 56.5609C17.4032 58.0102 17.8883 61.4394 15.6043 63.4602C13.9872 64.9095 11.7234 64.8483 10.1266 63.3582C7.98404 61.317 8.57021 57.9694 11.3191 56.5201C12.1681 56.071 13.7043 56.0914 14.6138 56.5609Z" fill="#050443"/>
<path d="M31.6737 20.4516C26.7216 21.758 23.3258 26.2282 23.2854 31.4742C23.2652 34.8626 24.4375 37.6795 26.8024 39.9452C29.1067 42.1293 31.5524 43.1091 34.7056 43.1091C38.728 43.1091 42.1843 41.1904 44.4078 37.6999C45.5801 35.8628 46.0854 34.0461 46.0652 31.5762C46.045 28.1878 45.1152 25.9016 42.7503 23.5134C41.012 21.7376 39.779 21.0231 37.5758 20.4516C35.6354 19.9413 33.5939 19.9413 31.6737 20.4516ZM37.3131 21.5947C42.3663 23.0848 45.5599 27.9429 44.8322 33.0051C44.1046 38.149 39.7992 41.9252 34.6652 41.9252C30.6833 41.9252 27.328 39.8024 25.4886 36.1282C22.1333 29.4125 27.1056 21.2885 34.5843 21.2681C35.4939 21.2681 36.6865 21.411 37.3131 21.5947Z" fill="#050443"/>
<path d="M34.2608 24.432V25.5547H33.1693C31.6736 25.5547 31.148 26.0446 29.9151 28.6166C28.6012 31.413 28.6012 31.9437 29.9151 34.7402C31.0874 37.2101 31.6129 37.7204 33.1491 37.9041L34.2608 38.047V38.9451V39.8433H35.1704H36.08V38.9451V38.047L37.1512 37.9041C37.7172 37.8225 38.3842 37.6387 38.6268 37.4959C38.9704 37.2713 40.5268 34.6381 40.5268 34.2503C40.5268 34.1891 40.0821 34.1278 39.5565 34.1278C38.6065 34.1278 38.5459 34.1483 38.2023 34.9647C38.0002 35.4138 37.6768 35.8629 37.4746 35.9854C37.0502 36.2099 33.048 36.2303 32.7246 36.0058C32.4012 35.8016 30.6225 32.1683 30.6225 31.7192C30.6225 31.2497 32.381 27.5551 32.7044 27.351C32.9874 27.1673 36.9289 27.1265 37.3938 27.3102C37.5757 27.3918 37.8991 27.8001 38.1214 28.2287C38.4853 28.984 38.5661 29.0248 39.4151 29.0248C39.9204 29.0248 40.3246 28.984 40.3246 28.9227C40.3246 28.5757 38.9906 26.2079 38.647 25.9221C38.3438 25.6772 37.8385 25.5547 37.1512 25.5547H36.08V24.432V23.3094H35.1704H34.2608V24.432Z" fill="#050443"/>
</svg>
