<svg width="61" height="63" viewBox="0 0 61 63" fill="none" xmlns="http://www.w3.org/2000/svg">
<path d="M26.1968 0.94339C25.9441 1.06425 25.5984 1.37312 25.4388 1.62827C25.1596 2.03115 25.133 2.24601 25.133 3.60235V5.13326L24.7739 5.21384C23.3511 5.53614 21.7287 6.01958 20.5053 6.4896C19.7207 6.78504 18.9894 7.06705 18.8697 7.10734C18.7234 7.14762 18.4043 6.8119 17.8457 6.03301C16.7952 4.56924 16.0239 4.19323 14.9601 4.5961C14.3351 4.83782 9.4016 8.54425 9.14894 8.96055C8.86968 9.41714 8.82979 10.5049 9.06915 10.9481C9.14894 11.1092 9.50798 11.6464 9.86702 12.1298C10.2128 12.6267 10.5053 13.0698 10.5053 13.1236C10.5053 13.1773 10.0665 13.7682 9.52128 14.453C8.71011 15.4602 7.64628 17.018 6.8484 18.3609C6.71543 18.5758 6.60904 18.5623 5.41223 18.1729C4.70745 17.9446 4.00266 17.7566 3.85638 17.7566C3.37766 17.7566 2.5266 18.1863 2.27394 18.5489C1.94149 19.0324 0 24.968 0 25.5186C0 26.0692 0.279255 26.7407 0.625 27.063C0.771277 27.1838 1.47606 27.4927 2.19415 27.7344L3.49734 28.1776L3.51064 31.414C3.52394 33.2 3.55053 34.6772 3.59043 34.7175C3.63032 34.7444 4.10904 34.7175 4.65426 34.6504L5.6516 34.5161L5.6383 31.0782C5.625 29.1713 5.6117 27.5195 5.5984 27.3987C5.55851 26.9018 4.80053 26.3781 3.49734 25.9349C2.77926 25.7066 2.18085 25.4917 2.15426 25.4783C2.12766 25.4515 2.5133 24.2026 2.99202 22.6851L3.88298 19.9455L5.22606 20.4156C7.42021 21.181 7.68617 21.0333 9.57447 18.0923C10.1463 17.206 11.0372 15.984 11.5559 15.3662C12.5931 14.1576 12.766 13.8353 12.766 13.0564C12.766 12.573 12.5 12.0895 11.2101 10.2632C11.0638 10.0483 11.3032 9.83344 13.2979 8.3831C14.5346 7.48335 15.5984 6.74475 15.6516 6.74475C15.7048 6.74475 16.1037 7.24163 16.5293 7.83251C17.6862 9.444 18.5505 9.73944 19.9468 9.0277C20.8378 8.57111 23.0053 7.81908 24.508 7.42964C26.9149 6.82533 27.1277 6.55675 27.1277 4.2738V2.85032H30.0399H32.9521L33.0053 4.51553C33.0452 6.08673 33.0718 6.20759 33.3777 6.54332C33.8431 7.05362 33.9761 7.10734 35.7846 7.56393C37.3271 7.95337 38.9894 8.54425 40.2926 9.14856C41.6489 9.77973 42.4734 9.45743 43.617 7.8728C44.1356 7.16105 44.4947 6.77161 44.5878 6.83876C44.9468 7.05362 48.617 9.75287 48.8298 9.9543C49.0293 10.1557 48.9894 10.2497 48.2447 11.2972C46.9947 13.0296 47.0213 13.795 48.391 15.2722C49.2021 16.1451 50.5319 17.9446 51.2234 19.1129C52.2606 20.8856 52.8059 21.087 54.7739 20.4558C55.492 20.2275 56.117 20.0395 56.1569 20.0395C56.2234 20.0395 57.9787 25.2635 57.9787 25.4515C57.9787 25.4917 57.4069 25.72 56.7287 25.9483C55.4255 26.3781 54.9069 26.7004 54.6277 27.1972C54.508 27.4121 54.4548 28.4864 54.4548 30.9977V34.5161L55.4787 34.637L56.4894 34.7578L56.5824 34.1401C56.6356 33.8043 56.6489 32.3271 56.6356 30.8634L56.5824 28.191L57.8989 27.7478C59.2686 27.2778 59.6144 27.063 59.9202 26.4586C60.2527 25.814 60.1197 25.1023 59.0957 21.9196C58.2447 19.2741 58.0186 18.7101 57.6596 18.3475C57.008 17.6895 56.3564 17.6492 54.7207 18.1595C53.9894 18.3878 53.3777 18.5221 53.3511 18.4415C53.2314 18.0789 51.117 15.0036 50.4122 14.171C49.9734 13.6339 49.6011 13.1504 49.6011 13.1101C49.6011 13.0564 49.8936 12.6267 50.2527 12.1298C50.5984 11.6464 50.9574 11.1092 51.0505 10.9481C51.2766 10.4915 51.2234 9.41714 50.9574 8.96055C50.7048 8.54425 45.7713 4.83782 45.1463 4.5961C44.0824 4.19323 43.2979 4.56924 42.2473 6.03301C41.8085 6.63732 41.383 7.14762 41.3298 7.14762C41.2633 7.14762 40.8378 6.98648 40.3856 6.79847C38.8697 6.15387 37.4069 5.68386 35.3457 5.21384L34.9734 5.13326V3.60235C34.9734 2.24601 34.9468 2.03115 34.6676 1.62827C34.0957 0.755383 33.8431 0.701668 30.0532 0.701668C27.0878 0.701668 26.609 0.728527 26.1968 0.94339Z" fill="#050443"/>
<path d="M27.6587 9.77977C27.4725 9.80663 26.7545 9.94092 26.063 10.0484C24.2545 10.3572 21.9007 11.1764 20.1055 12.1164C14.2146 15.2051 10.2252 20.5096 8.74914 27.2376C8.49648 28.379 8.45658 28.9968 8.45658 31.6155C8.44329 33.2807 8.46988 34.6907 8.50978 34.7176C8.54967 34.7579 9.02839 34.731 9.57361 34.6504L10.5709 34.5161V31.6692C10.5709 29.3997 10.6241 28.6073 10.8236 27.6942C12.1401 21.5705 15.93 16.6017 21.3821 13.8622C31.9672 8.5443 44.8795 13.9696 48.6428 25.3441C49.4007 27.6673 49.5337 28.5671 49.5337 31.6692V34.5161L50.5311 34.6504C51.0763 34.731 51.555 34.7579 51.5949 34.7176C51.6348 34.6907 51.6614 33.3747 51.6614 31.8169C51.6614 28.5402 51.4752 27.2644 50.6507 24.6995C48.2571 17.2866 41.9938 11.6867 34.3342 10.0886C33.3901 9.88721 32.3662 9.80663 30.5178 9.76634C29.1348 9.73948 27.8449 9.73948 27.6587 9.77977Z" fill="#050443"/>
<path d="M19.3358 18.8175C19.0166 18.9652 18.6709 19.2607 18.5113 19.5292C18.232 19.9858 18.2188 20.1336 18.2188 24.6189C18.2188 28.9967 18.232 29.2653 18.4847 29.6816C18.857 30.2859 19.4953 30.6485 20.2267 30.6485H20.8384L20.4528 32.0854C20.2533 32.8912 20.0805 33.6163 20.0805 33.7104C20.0805 33.8178 20.2666 34.0729 20.4794 34.3012C20.8118 34.637 20.9581 34.6907 21.3039 34.6235C21.5432 34.5698 22.6469 33.7775 24.123 32.5957L26.5299 30.6485H27.3012H28.0592V32.4212C28.0592 34.4221 28.1922 34.8384 29.0166 35.3487C29.4156 35.5904 29.6948 35.6173 32.0086 35.6173H34.5485L36.982 37.5645C38.3251 38.6388 39.5485 39.552 39.7081 39.5923C40.1336 39.6997 40.8118 39.2968 40.9182 38.8671C40.998 38.5448 40.8783 37.9405 40.3464 35.9127C40.2666 35.6441 40.3065 35.6173 40.8251 35.6173C41.623 35.6173 42.3544 35.1607 42.7001 34.4624C42.9528 33.9118 42.9661 33.6969 42.9262 29.3996C42.8863 25.0889 42.873 24.874 42.607 24.5249C41.9422 23.6251 41.8757 23.5983 38.8305 23.558L36.0645 23.5177L36.0113 21.7182C35.9714 19.771 35.8916 19.5292 35.0539 18.9115C34.6948 18.6295 34.5352 18.6295 27.2879 18.6026C20.2799 18.5624 19.8544 18.5758 19.3358 18.8175ZM33.9102 22.1211V23.5311H31.8225C29.4023 23.5311 28.8438 23.6923 28.3517 24.498C28.0858 24.9277 28.0592 25.1695 28.0592 26.7407V28.4999H26.9555C25.732 28.4999 25.7852 28.473 24.2693 29.7085C22.9794 30.756 23.0193 30.7425 23.1789 30.0442C23.4448 28.8759 22.9927 28.4999 21.3305 28.4999H20.3464V24.6054V20.711H27.1283H33.9102V22.1211ZM40.8251 29.5742V33.4686H39.7081C38.7773 33.4686 38.5379 33.5089 38.232 33.7641C37.8863 34.0326 37.873 34.0998 37.9395 34.8384C37.9927 35.4293 37.9661 35.6039 37.8597 35.5098C37.7666 35.4427 37.248 35.0264 36.7028 34.5832C36.1576 34.1401 35.5725 33.7104 35.4129 33.6298C35.2267 33.5223 34.256 33.4686 32.5938 33.4686H30.0539V29.5742V25.6798H35.4395H40.8251V29.5742Z" fill="#050443"/>
<path d="M8.70986 37.7255C7.10081 38.3164 6.10347 39.2027 5.39869 40.7068C5.01305 41.526 4.98645 41.7006 4.98645 43.0032C4.98645 44.3058 5.01305 44.4804 5.41198 45.313C5.63805 45.8099 6.07688 46.4813 6.36943 46.8036L6.91464 47.3945L5.98379 47.4616C4.20188 47.5959 2.68592 48.6837 1.87475 50.3892L1.52901 51.1278L1.48911 56.7948L1.44922 62.4753H2.52635H3.59018V57.1306C3.59018 51.2352 3.60347 51.1815 4.46784 50.3623C5.27901 49.5969 5.35879 49.5834 11.2365 49.5834C15.5317 49.5834 16.7152 49.6237 17.0742 49.7714C17.3136 49.8654 18.6833 50.7383 20.1061 51.7052L22.7125 53.4644L25.8242 53.9076L28.9226 54.3507L28.9625 54.8611L29.0024 55.3579H26.2099H23.404L20.4785 53.8807C18.8694 53.0616 17.4067 52.4035 17.2338 52.4035C17.0609 52.4035 16.7684 52.5244 16.5689 52.6855L16.2232 52.9541V57.7214V62.4753H17.287H18.3508V58.8495V55.2236L20.6248 56.3651L22.8987 57.5066H30.0529H37.2072L39.4811 56.3651L41.7551 55.2236V58.8495V62.4753H42.8189H43.8827V57.7752V53.0616L43.5503 52.7393C43.3774 52.5513 43.0716 52.4035 42.8854 52.4035C42.6992 52.4035 41.2365 53.0616 39.6274 53.8807L36.7019 55.3579H33.896H31.1035L31.1434 54.8611L31.1833 54.3642L34.2684 53.9344L37.3535 53.4913L39.9732 51.7186C41.4093 50.7518 42.7923 49.8654 43.0317 49.7714C43.67 49.5029 54.0556 49.5029 54.6939 49.758C55.3455 50.04 55.9971 50.6578 56.2631 51.2621C56.4891 51.7589 56.5157 52.2424 56.5157 57.1306V62.4753H57.5795H58.6567L58.6168 56.7948L58.5769 51.1278L58.2178 50.3623C57.4599 48.724 55.8375 47.5959 54.0955 47.4616L53.1912 47.3945L53.7365 46.8036C54.029 46.4813 54.4678 45.8099 54.6939 45.313C55.0928 44.4804 55.1194 44.3058 55.1194 43.0032C55.1194 41.7006 55.0928 41.526 54.6939 40.6934C54.1088 39.4445 53.3641 38.6656 52.154 38.0613C51.1833 37.5778 51.0902 37.5644 49.7338 37.5644C48.3774 37.5644 48.2843 37.5778 47.3136 38.0613C46.1035 38.6656 45.3588 39.4445 44.7737 40.6934C44.3748 41.526 44.3482 41.7006 44.3482 43.0032C44.3482 44.3058 44.3748 44.4804 44.7737 45.313C44.9998 45.8099 45.4386 46.4813 45.7444 46.8036L46.2896 47.4079L44.521 47.4616C42.3535 47.5153 42.4067 47.5019 39.029 49.7311L36.5157 51.3964L33.3109 51.8932L30.1194 52.3767L26.8615 51.8932L23.6035 51.4098L21.0104 49.664C17.912 47.5825 17.5263 47.4348 15.3322 47.4348H13.7896L14.3615 46.817C14.6673 46.4813 15.1061 45.8099 15.3322 45.313C15.7311 44.4804 15.7577 44.3058 15.7577 42.9897C15.7577 41.6334 15.7444 41.5394 15.2657 40.5591C14.6673 39.337 13.8827 38.5716 12.6593 37.9941C11.9013 37.645 11.5822 37.5644 10.5716 37.5375C9.6806 37.4973 9.20188 37.551 8.70986 37.7255ZM11.7019 39.9279C12.4998 40.2905 13.0051 40.7874 13.3774 41.5931C13.9492 42.8152 13.7498 44.2118 12.8721 45.219C11.4891 46.8036 9.25507 46.8036 7.87209 45.219C5.99709 43.0569 7.52635 39.6459 10.3721 39.6459C10.8242 39.6459 11.3295 39.7533 11.7019 39.9279ZM51.0636 39.9279C52.646 40.6531 53.4173 42.3854 52.8987 44.1044C52.6992 44.8027 51.8615 45.7293 51.1301 46.0919C50.412 46.441 49.2285 46.4813 48.5104 46.1859C47.8189 45.8904 47.0077 45.0981 46.6886 44.4132C46.1434 43.2449 46.4226 41.6334 47.3136 40.6665C48.2045 39.6996 49.8668 39.3773 51.0636 39.9279Z" fill="#050443"/>
<path d="M28.9902 45.4873V47.5688H30.0541H31.1179V45.4873V43.4058H30.0541H28.9902V45.4873Z" fill="#050443"/>
<path d="M24.0295 45.5011L23.2715 46.1188L23.6305 46.6157C23.8433 46.8977 24.3619 47.6094 24.8007 48.2138C25.2396 48.8181 25.6518 49.3015 25.7183 49.3149C25.8114 49.3149 26.7688 48.6569 27.3805 48.16C27.4603 48.0929 25.08 44.8968 24.9337 44.8833C24.8672 44.8833 24.455 45.1654 24.0295 45.5011Z" fill="#050443"/>
<path d="M33.9097 46.4812L32.7129 48.0927L33.4842 48.697C33.8964 49.0327 34.3086 49.3147 34.3751 49.3013C34.5081 49.3013 36.6624 46.4946 36.7687 46.1858C36.8219 46.0515 35.4124 44.8831 35.1863 44.8831C35.1464 44.8831 34.5746 45.6083 33.9097 46.4812Z" fill="#050443"/>
<path d="M5.45117 57.4394V62.4753H6.44851H7.44585V57.4394V52.4035H6.44851H5.45117V57.4394Z" fill="#050443"/>
<path d="M52.6602 57.4394V62.4753H53.6575H54.6548V57.4394V52.4035H53.6575H52.6602V57.4394Z" fill="#050443"/>
</svg>
