<svg width="71" height="66" viewBox="0 0 71 66" fill="none" xmlns="http://www.w3.org/2000/svg">
<path d="M2.38909 1.04235C1.99999 1.22095 1.43403 1.64961 1.11568 1.9711C-0.0869773 3.25707 0.0014535 1.25668 0.0014535 29.423C0.0014535 50.5879 0.0368258 54.9816 0.231374 55.1602C0.408235 55.3031 3.82167 55.3745 11.8866 55.3924L23.3118 55.446L21.7731 59.7325L20.2521 64.0191L17.7937 64.0727C16.3435 64.0905 15.2292 64.1977 15.0878 64.3227C14.8048 64.5549 14.7871 65.2158 15.0701 65.5015C15.3707 65.8052 55.3769 65.8052 55.6775 65.5015C55.9605 65.2158 55.9428 64.5549 55.6598 64.3227C55.5183 64.1977 54.4041 64.0905 52.9715 64.0727L50.5132 64.0191L48.9745 59.7325L47.4358 55.446L58.861 55.3924C66.9259 55.3745 70.3394 55.3031 70.5162 55.1602C70.7108 54.9816 70.7461 50.57 70.7461 29.3872C70.7461 4.86453 70.7285 3.79289 70.4101 3.11419C70.2332 2.72125 69.8088 2.14971 69.4904 1.82822C68.217 0.613693 70.9407 0.702995 35.3384 0.702995C4.29919 0.702995 3.06116 0.720856 2.38909 1.04235ZM67.8456 2.77483C68.1109 2.9713 68.5 3.36423 68.6945 3.63214C69.066 4.11438 69.066 4.18583 69.119 28.8514L69.1544 53.5706H35.3738H1.59321V29.2265C1.59321 13.9378 1.66395 4.66806 1.77007 4.29299C1.9823 3.5607 2.56595 2.882 3.2734 2.5605C3.71555 2.36404 9.37512 2.32832 35.586 2.36404L67.3681 2.39976L67.8456 2.77483ZM47.0467 59.5003C47.8602 61.7865 48.55 63.769 48.6031 63.8762C48.6561 64.0548 45.9324 64.1084 35.3738 64.1084C24.8152 64.1084 22.0915 64.0548 22.1445 63.8762C22.1976 63.769 22.905 61.7865 23.7186 59.5003L25.1866 55.3567H35.3738H45.561L47.0467 59.5003Z" fill="#050443"/>
<path d="M3.53819 4.79296C3.41439 5.02515 3.36133 12.098 3.36133 26.4044C3.36133 47.4443 3.36133 47.6764 3.71505 48.0337C4.06877 48.3909 4.2987 48.3909 35.3733 48.3909C66.4479 48.3909 66.6778 48.3909 67.0315 48.0337C67.3853 47.6764 67.3853 47.4443 67.3853 26.3508C67.3853 7.18629 67.3499 4.98943 67.1023 4.73938C66.8547 4.48933 63.7242 4.4536 35.2849 4.4536C4.26332 4.4536 3.73274 4.4536 3.53819 4.79296ZM65.6166 26.3329V46.6048H35.3733H5.12995V26.3329V6.06107H35.3733H65.6166V26.3329Z" fill="#050443"/>
<path d="M28.4754 9.4367C28.387 9.63317 28.2986 9.99039 28.2986 10.2404C28.2986 10.4905 28.2278 10.7048 28.1394 10.7048C27.7503 10.7048 26.8837 11.6693 26.6891 12.2766C26.5476 12.7767 26.5653 13.0981 26.7422 13.634C27.0605 14.5806 27.6972 15.0092 28.9353 15.1521C29.7665 15.2414 29.9964 15.3307 30.0318 15.5986C30.1379 16.0987 29.7665 16.2416 28.2455 16.2416C26.9721 16.2416 26.866 16.2773 26.6891 16.6703C26.3708 17.3668 26.7422 17.8491 27.5911 17.8491C28.2632 17.8491 28.2986 17.8848 28.2986 18.367C28.2986 18.9922 28.7054 19.4565 29.2536 19.4565C29.8019 19.4565 30.0672 19.1351 30.0672 18.4742C30.0672 18.0098 30.1733 17.8669 30.6508 17.6348C31.7297 17.1168 32.1365 15.5808 31.4821 14.5091C31.0399 13.7768 30.2794 13.3839 29.2713 13.3839C28.4047 13.3839 28.0863 13.0624 28.4754 12.5802C28.6346 12.3837 29.0591 12.3123 30.0495 12.3123C31.4821 12.3123 31.8358 12.1515 31.8358 11.5085C31.8358 10.9549 31.4998 10.7048 30.7393 10.7048C30.1026 10.7048 30.0672 10.687 30.0672 10.1154C30.0672 9.79392 29.9788 9.4367 29.855 9.31168C29.5189 8.97233 28.6877 9.04377 28.4754 9.4367Z" fill="#050443"/>
<path d="M9.23372 11.0979C9.10992 11.2229 9.02148 11.4729 9.02148 11.6873C9.02148 11.9016 9.10992 12.1516 9.23372 12.2767C9.53438 12.5803 22.8344 12.5803 23.135 12.2767C23.4003 12.0088 23.4003 11.3658 23.135 11.0979C22.8344 10.7942 9.53438 10.7942 9.23372 11.0979Z" fill="#050443"/>
<path d="M51.5912 13.5986C51.3082 13.8129 51.2905 14.9024 51.3259 29.1016L51.379 44.3725L51.8919 44.5511C52.3163 44.694 52.4401 44.6583 52.7231 44.3011C53.0415 43.9081 53.0591 43.3545 53.0591 29.0302C53.0591 15.8847 53.0238 14.1344 52.7762 13.7772C52.4755 13.3307 52.0334 13.2771 51.5912 13.5986Z" fill="#050443"/>
<path d="M9.23442 15.2058C8.89838 15.5452 8.96913 16.3847 9.35822 16.599C9.57046 16.7061 11.3921 16.7776 14.0627 16.7776C16.7334 16.7776 18.555 16.7061 18.7673 16.599C19.1564 16.3847 19.2271 15.5452 18.8911 15.2058C18.5904 14.9022 9.53509 14.9022 9.23442 15.2058Z" fill="#050443"/>
<path d="M55.8535 17.3311C55.5528 17.4919 55.5352 18.3313 55.5352 30.9053V44.2829L55.995 44.4972C56.3133 44.658 56.5256 44.658 56.7378 44.5151C57.0208 44.3543 57.0385 43.2291 57.0915 30.9767C57.1092 21.2605 57.0739 17.5455 56.9324 17.3847C56.7024 17.099 56.278 17.0811 55.8535 17.3311Z" fill="#050443"/>
<path d="M38.8396 20.4568C38.592 20.7069 38.5566 22.0286 38.5566 32.4056C38.5566 42.7827 38.592 44.1044 38.8396 44.3544C39.1933 44.7116 39.6886 44.7116 40.0423 44.3544C40.2899 44.1044 40.3253 42.7827 40.3253 32.4056C40.3253 22.0286 40.2899 20.7069 40.0423 20.4568C39.9008 20.2961 39.6178 20.171 39.4409 20.171C39.2641 20.171 38.9811 20.2961 38.8396 20.4568Z" fill="#050443"/>
<path d="M47.2591 22.35C47.0999 22.5108 47.0469 25.1899 47.0469 33.3165C47.0469 42.8541 47.0822 44.1043 47.3299 44.3544C47.7189 44.7473 48.2142 44.7116 48.5325 44.2472C48.7801 43.89 48.8155 42.5504 48.8155 33.2629C48.8155 23.9039 48.7801 22.6715 48.5325 22.4215C48.2142 22.0821 47.5598 22.0464 47.2591 22.35Z" fill="#050443"/>
<path d="M21.9505 25.7792C21.809 25.94 21.7736 28.5655 21.7913 35.174C21.8444 43.5149 21.8797 44.3543 22.145 44.5151C22.3573 44.658 22.5695 44.658 22.8879 44.4972L23.3477 44.2829V35.1204C23.3477 28.2262 23.2946 25.9043 23.1355 25.7435C22.8525 25.4577 22.1981 25.4756 21.9505 25.7792Z" fill="#050443"/>
<path d="M30.3513 25.815C30.1037 26.065 30.0684 27.1367 30.0684 34.9597C30.0684 42.7112 30.1037 43.89 30.3513 44.2472C30.6697 44.7116 31.1649 44.7473 31.554 44.3544C31.8016 44.1043 31.837 43.0148 31.837 35.0132C31.837 28.2083 31.7839 25.9043 31.6247 25.7435C31.3241 25.4399 30.6697 25.4756 30.3513 25.815Z" fill="#050443"/>
<path d="M59.9935 25.7435C59.8343 25.9043 59.7812 28.2262 59.7812 35.1204V44.2829L60.2411 44.4972C60.5594 44.658 60.7717 44.658 60.9839 44.5151C61.2492 44.3543 61.2846 43.5149 61.3376 35.174C61.3553 28.5655 61.3199 25.94 61.1785 25.7792C60.9309 25.4756 60.2765 25.4577 59.9935 25.7435Z" fill="#050443"/>
<path d="M17.7044 27.3867C17.5629 27.5474 17.5275 29.9586 17.5452 35.9777C17.5983 43.5685 17.6336 44.3543 17.8989 44.5151C18.1112 44.658 18.3234 44.658 18.6418 44.4972L19.1016 44.2829V35.9241C19.1016 29.655 19.0485 27.5117 18.8894 27.351C18.6064 27.0652 17.952 27.0831 17.7044 27.3867Z" fill="#050443"/>
<path d="M26.1779 29.4589C25.8419 29.7982 25.8242 30.0483 25.8242 36.8532C25.8242 43.4973 25.8419 43.9081 26.1603 44.3011C26.4432 44.6583 26.567 44.694 26.9915 44.5511L27.5044 44.3725L27.5575 37.0139C27.5928 30.5126 27.5575 29.6375 27.3099 29.3874C26.9384 29.0123 26.6024 29.0302 26.1779 29.4589Z" fill="#050443"/>
<path d="M34.7016 29.3872L34.3125 29.6551V36.8529C34.3125 43.6043 34.3302 44.0686 34.6309 44.3366C35.0376 44.7116 35.4444 44.7295 35.7981 44.3544C36.0457 44.1222 36.0811 43.1935 36.0811 36.8887C36.0811 30.1373 36.0634 29.6729 35.7628 29.405C35.356 29.03 35.1968 29.03 34.7016 29.3872Z" fill="#050443"/>
<path d="M43.015 33.4235C42.8558 33.5843 42.8027 35.031 42.8027 38.8532C42.8027 43.3719 42.8381 44.1221 43.0857 44.3543C43.4571 44.7293 43.917 44.7115 44.2707 44.3185C44.536 44.0328 44.5714 43.3898 44.5714 38.9425C44.5714 35.8169 44.5006 33.7629 44.3945 33.5486C44.1823 33.1556 43.351 33.0842 43.015 33.4235Z" fill="#050443"/>
<path d="M9.23372 34.6741C9.07454 34.8348 9.02148 36.1744 9.02148 39.5858V44.2831L9.48132 44.4975C9.79968 44.6582 10.0119 44.6582 10.2241 44.5153C10.4894 44.3546 10.5248 43.8009 10.5779 39.6394C10.6132 36.3351 10.5602 34.8706 10.4187 34.7098C10.1711 34.4062 9.5167 34.3883 9.23372 34.6741Z" fill="#050443"/>
<path d="M13.4779 34.6739C13.3187 34.8346 13.2656 36.1742 13.2656 39.5855V44.2829L13.7255 44.4972C14.0438 44.658 14.2561 44.658 14.4683 44.5151C14.7336 44.3543 14.7689 43.8007 14.822 39.6391C14.8574 36.3349 14.8043 34.8703 14.6628 34.7096C14.4152 34.4059 13.7608 34.3881 13.4779 34.6739Z" fill="#050443"/>
<path d="M25.5408 50.4449C25.2755 50.8557 25.2755 50.9271 25.5408 51.3379L25.8237 51.7844H35.3743H44.9248L45.2078 51.3379C45.4731 50.9271 45.4731 50.8557 45.2078 50.4449L44.9248 49.9984H35.3743H25.8237L25.5408 50.4449Z" fill="#050443"/>
</svg>
