<svg width="56" height="65" viewBox="0 0 56 65" fill="none" xmlns="http://www.w3.org/2000/svg">
<path d="M0.775534 38.0423L0.77552 38.0423C0.456446 37.6817 0.225957 37.141 0.118175 36.5754C0.0104181 36.0099 0.0267067 35.4269 0.193481 34.9825C0.203521 34.9574 0.232591 34.9038 0.281824 34.8216C0.330485 34.7403 0.3969 34.6342 0.479182 34.5061C0.643707 34.2501 0.871009 33.9072 1.14512 33.5018C1.69331 32.691 2.42822 31.6308 3.22151 30.5155C4.01517 29.3997 4.75443 28.3349 5.30506 27.5214C5.58036 27.1147 5.80865 26.7707 5.97306 26.5143C6.05524 26.3862 6.12165 26.2797 6.17006 26.1982C6.21729 26.1186 6.24998 26.0586 6.26173 26.0255M0.775534 38.0423L6.21467 26.0086M0.775534 38.0423C0.96359 38.255 1.26007 38.4557 1.66532 38.6428C2.07007 38.8297 2.58039 39.0016 3.19315 39.1583L3.19316 39.1583M0.775534 38.0423L3.19316 39.1583M6.26173 26.0255C6.26175 26.0255 6.26178 26.0254 6.26181 26.0253L6.21467 26.0086M6.26173 26.0255C6.2617 26.0256 6.26167 26.0257 6.26164 26.0258L6.21467 26.0086M6.26173 26.0255C6.31907 25.8682 6.34635 25.6533 6.34635 25.3723C6.34635 25.0905 6.31886 24.7386 6.26428 24.3055M6.21467 26.0086C6.32358 25.7101 6.32358 25.1759 6.21467 24.3117M6.26428 24.3055C6.26428 24.3055 6.26429 24.3056 6.2643 24.3056L6.21467 24.3117M6.26428 24.3055C6.06255 22.6598 6.06253 18.9876 6.2643 17.2945M6.26428 24.3055L6.21467 24.3117M6.21467 24.3117L6.2643 17.2945M6.2643 17.2945C6.2643 17.2946 6.26429 17.2946 6.26429 17.2946L6.21467 17.2885L6.26432 17.2944C6.26431 17.2944 6.26431 17.2945 6.2643 17.2945ZM6.2643 17.2945C6.79201 13.047 8.52981 9.45994 11.3991 6.71899M6.2643 17.2945L8.71959 16.3143C10.0265 9.69955 14.6474 5.4573 22.6289 3.57186M11.3991 6.71899C11.3991 6.71902 11.399 6.71904 11.399 6.71906L11.3645 6.68284L11.3991 6.71899ZM11.3991 6.71899C15.1527 3.14762 20.8032 1.06005 28.7792 0.306396C29.4993 0.243896 31.0403 0.255516 32.5747 0.314438C34.1096 0.373375 35.6307 0.47937 36.3113 0.604309C37.0719 0.745399 37.9963 0.965019 38.8159 1.19059C39.6368 1.4165 40.3483 1.64719 40.686 1.80994C41.1531 2.03819 41.4062 2.44715 41.436 2.84887C41.4656 3.24954 41.2737 3.64599 40.842 3.85665C40.7511 3.8987 40.6722 3.92712 40.5857 3.94107C40.499 3.95505 40.4022 3.95491 40.2754 3.93677C40.0199 3.90017 39.6508 3.79173 39.0117 3.5871C37.6648 3.15464 36.6891 2.89439 35.5783 2.74456C34.4681 2.59481 33.2244 2.55557 31.3415 2.56342M31.3415 2.56342L31.3417 2.61342M31.3415 2.56342C31.3415 2.56342 31.3416 2.56342 31.3417 2.56342V2.61342M31.3415 2.56342C27.6508 2.56343 25.7955 2.76804 22.6174 3.5232C22.6174 3.5232 22.6174 3.52321 22.6173 3.52321L22.6289 3.57186M31.3417 2.61342C35.1068 2.59771 36.3048 2.77054 38.9965 3.6347M31.3417 2.61342C27.6543 2.61342 25.8028 2.81768 22.6289 3.57186M22.6289 3.57186L38.9965 3.6347M38.9965 3.6347C40.2723 4.04322 40.4901 4.07464 40.8635 3.90181C41.7659 3.46187 41.6725 2.23634 40.7079 1.76497L38.9965 3.6347ZM3.19316 39.1583L4.29782 39.4411L4.33579 39.4508M3.19316 39.1583L4.33579 39.4508M4.33579 39.4508L4.33541 39.49M4.33579 39.4508L4.33541 39.49M4.33541 39.49L4.31986 41.1079C4.31986 41.108 4.31986 41.108 4.31986 41.1081C4.31986 41.7922 4.33163 42.2007 4.37372 42.4731C4.41521 42.7416 4.48547 42.8739 4.60288 43.0073C4.67605 43.089 4.73386 43.1543 4.77252 43.2108C4.81147 43.2677 4.83588 43.3224 4.83324 43.3824C4.83063 43.4417 4.80199 43.4964 4.75866 43.5543C4.71529 43.6123 4.6519 43.6802 4.57089 43.7659C4.21155 44.152 4.0111 44.5663 3.96566 45.027C3.92013 45.4887 4.02978 46.002 4.29969 46.5861L4.29977 46.5863M4.33541 39.49L4.29977 46.5863M4.29977 46.5863L4.67318 47.4033L4.68063 47.4196M4.29977 46.5863L4.68063 47.4196M4.68063 47.4196L4.67602 47.437M4.68063 47.4196L4.67602 47.437M4.67602 47.437L4.2871 48.898C3.8455 50.5802 3.89777 51.9892 4.4085 53.0809C4.91858 54.1711 5.8896 54.9525 7.30233 55.3736C8.0397 55.5908 8.66823 55.6073 11.6586 55.513L11.6587 55.513M4.67602 47.437L11.6587 55.513M11.6587 55.513C13.6026 55.458 14.7659 55.4538 15.5817 55.5625C16.4016 55.6717 16.872 55.8951 17.43 56.2919C18.4416 56.9944 18.9899 58.064 19.9072 61.0159L19.9073 61.016M11.6587 55.513L19.9073 61.016M19.9073 61.016C20.429 62.7145 20.6964 63.5794 20.8917 64.0478C20.9891 64.2818 21.0666 64.4117 21.1454 64.4965C21.2232 64.5803 21.3049 64.6231 21.4209 64.6777C21.692 64.8029 21.8674 64.8521 22.0291 64.8306C22.1912 64.809 22.3491 64.7152 22.5819 64.527L22.5825 64.5266M19.9073 61.016L22.5825 64.5266M22.5825 64.5266C22.8512 64.3155 22.9679 64.0783 22.9679 63.7646C22.9679 63.69 22.9462 63.5496 22.905 63.354C22.8641 63.16 22.805 62.9161 22.7322 62.6371C22.5866 62.0792 22.3865 61.3827 22.1688 60.6682C21.733 59.238 21.2283 57.741 20.95 57.1396M22.5825 64.5266L22.6133 64.5659C22.8934 64.346 23.0179 64.0946 23.0179 63.7646C23.0179 63.1204 21.5554 58.3283 20.9953 57.1184M20.9953 57.1184L20.95 57.1396C20.95 57.1396 20.95 57.1396 20.95 57.1396M20.9953 57.1184L20.9499 57.1394C20.9499 57.1395 20.9499 57.1396 20.95 57.1396M20.9953 57.1184C20.1707 55.3587 18.926 54.2117 17.0901 53.5518C16.1721 53.2218 15.8921 53.2061 13.4494 53.269L20.95 57.1396M20.95 57.1396C20.1309 55.3918 18.8964 54.2542 17.0732 53.5989C16.6165 53.4347 16.3217 53.3498 15.8377 53.3129C15.3507 53.2759 14.673 53.2875 13.4507 53.319L13.4506 53.319C11.1099 53.3739 9.8397 53.3976 9.05573 53.3621C8.26839 53.3265 7.96638 53.231 7.56318 53.0474C6.89306 52.7449 6.47542 52.3387 6.30092 51.7493C6.1276 51.1639 6.19696 50.4062 6.4777 49.406L6.47771 49.406C6.73398 48.4963 6.84486 47.851 6.80269 47.2548C6.76058 46.6594 6.56548 46.1085 6.20117 45.3884L6.20098 45.388C6.18809 45.362 6.18452 45.3326 6.19548 45.3042C6.2059 45.2771 6.22685 45.2577 6.24942 45.2443C6.2937 45.218 6.35868 45.2059 6.43249 45.2059C6.52891 45.2059 6.69915 45.167 6.91046 45.1004C7.11968 45.0344 7.36326 44.9432 7.60338 44.8425C7.84349 44.7418 8.07933 44.6319 8.27313 44.529C8.46885 44.425 8.61614 44.3308 8.68406 44.2622C8.86608 44.0784 8.95733 43.783 8.95354 43.4672C8.94976 43.1522 8.85127 42.8254 8.66448 42.584L8.66389 42.5832C8.57691 42.4661 8.42485 42.3486 8.21409 42.2383C8.00407 42.1284 7.73916 42.0274 7.43041 41.9417L7.42951 41.9414L6.48044 41.6586L6.43969 41.6464L6.44514 41.6043L6.53849 40.8815L6.5385 40.8814L6.55563 40.7509C6.70011 39.6499 6.77067 39.1122 6.75595 38.7887C6.74843 38.6236 6.71868 38.5185 6.66678 38.4241C6.61922 38.3376 6.55263 38.2586 6.46045 38.1493C6.44913 38.1359 6.43743 38.122 6.42532 38.1076C6.31697 37.9787 6.22616 37.8796 6.11876 37.7936C6.0117 37.7079 5.88649 37.634 5.70876 37.5577C5.35103 37.4043 4.78725 37.2442 3.74333 36.961C3.20792 36.82 2.87981 36.7206 2.67591 36.6176C2.57303 36.5657 2.49878 36.5114 2.44494 36.448C2.39071 36.3841 2.35969 36.3138 2.33889 36.234C2.3264 36.1861 2.32879 36.1297 2.34384 36.0636C2.35895 35.9974 2.38757 35.9181 2.43098 35.8227C2.51778 35.6319 2.66661 35.3703 2.8954 35.0085C3.35324 34.2844 4.13581 33.1521 5.39591 31.369L20.95 57.1396Z" fill="#050443" stroke="#050443" stroke-width="0.1"/>
<path d="M45.1659 8.14363L45.1665 8.14288L45.4627 7.75406H49.5609C51.5146 7.75406 52.543 7.75803 53.1203 7.79911C53.4091 7.81966 53.5805 7.84929 53.6969 7.89041C53.8104 7.9305 53.8733 7.98206 53.944 8.05349C54.0148 8.12494 54.0659 8.18852 54.1057 8.30217C54.1464 8.41863 54.1758 8.58943 54.1961 8.87619C54.2368 9.44939 54.2407 10.4683 54.2407 12.402C54.2407 14.2724 54.2329 15.2956 54.1922 15.8925C54.1719 16.191 54.1434 16.3797 54.1048 16.5132C54.0668 16.6447 54.0187 16.7233 53.9561 16.8014L45.1659 8.14363ZM45.1659 8.14363C44.9797 8.37876 44.8866 8.53835 44.8651 8.70047C44.8438 8.86208 44.8926 9.03541 45.0165 9.30128L45.0168 9.30205M45.1659 8.14363L45.0168 9.30205M45.0168 9.30205C45.0847 9.45443 45.1642 9.5717 45.2791 9.66393C45.3944 9.75644 45.5491 9.82665 45.7721 9.87862C46.2205 9.98312 46.9301 10.0109 48.114 10.0109H50.3233H50.4432M45.0168 9.30205L50.4432 10.0109M50.4432 10.0109L50.3588 10.096M50.4432 10.0109L50.3588 10.096M50.3588 10.096L45.7379 14.7625L45.7379 14.7626M50.3588 10.096L45.7379 14.7626M45.7379 14.7626L41.1014 19.4291L41.0661 19.4647M45.7379 14.7626L41.0661 19.4647M41.0661 19.4647L41.0306 19.4291M41.0661 19.4647L41.0306 19.4291M41.0306 19.4291L39.1171 17.5124C38.2134 16.6156 37.7262 16.1394 37.3931 15.8867C37.2274 15.7609 37.1027 15.6927 36.9863 15.6553C36.87 15.6179 36.7585 15.6101 36.6162 15.6101C36.5455 15.6101 36.484 15.6128 36.4177 15.6279C36.3516 15.6431 36.2784 15.6711 36.186 15.724C35.9997 15.8307 35.7398 16.0359 35.3081 16.4316C34.4457 17.2221 32.9104 18.7608 29.9304 21.7545M41.0306 19.4291L29.9304 21.7545M29.9304 21.7545C28.2502 23.4512 26.6946 25.0418 25.5435 26.2377C24.9679 26.8356 24.4936 27.3347 24.1555 27.699C23.9864 27.8811 23.8516 28.0293 23.7553 28.1392C23.7072 28.1941 23.6689 28.2392 23.6409 28.2739C23.612 28.3098 23.5966 28.3316 23.5914 28.3415C23.3555 28.7948 23.3526 29.2 23.5222 29.489C23.6915 29.7777 24.0415 29.9651 24.5428 29.9651C24.6758 29.9651 24.7873 29.9519 24.9668 29.8479C25.15 29.7416 25.4028 29.5412 25.814 29.1633C26.6355 28.4081 28.0774 26.9559 30.8396 24.1665L36.5807 18.3531L36.6159 18.3174L36.6515 18.3528L38.5496 20.2382L38.5499 20.2385C39.438 21.1354 39.9437 21.6222 40.3199 21.8761C40.5067 22.0022 40.6593 22.0691 40.8089 22.1006C40.9584 22.1321 41.1084 22.1289 41.2924 22.1096C41.2933 22.1093 41.2955 22.1084 41.2994 22.1065C41.3065 22.1029 41.3164 22.0972 41.3292 22.0888C41.3547 22.072 41.3888 22.0468 41.4316 22.0131C41.5168 21.9456 41.6334 21.8463 41.7784 21.7176C42.0682 21.4604 42.4699 21.0877 42.9588 20.6224C43.9366 19.6919 45.2626 18.3921 46.7405 16.9075C46.7405 16.9075 46.7405 16.9075 46.7405 16.9075M29.9304 21.7545L46.7405 16.9075M46.7405 16.9075L51.9059 11.7068L51.9891 11.623L51.9914 11.7411L52.038 14.1922L52.038 14.1923C52.0497 14.8876 52.0643 15.4215 52.0953 15.8315C52.1263 16.2424 52.1736 16.5244 52.2486 16.7185C52.3225 16.9097 52.422 17.0124 52.5589 17.0702C52.7002 17.1299 52.8862 17.1441 53.1394 17.1441C53.3373 17.1441 53.4935 17.1172 53.6235 17.0617C53.7529 17.0065 53.8593 16.9217 53.9561 16.8015L46.7405 16.9075Z" fill="#050443" stroke="#050443" stroke-width="0.1"/>
<path d="M49.1734 22.496L49.1724 22.4968L48.8177 22.7805L48.7711 30.7069L48.7245 38.6572L48.7242 38.7069H48.6745H44.3336H39.9773H39.9273V38.6569V33.3933C39.9273 30.8628 39.9233 29.5449 39.8826 28.822C39.8622 28.4601 39.8327 28.2516 39.7916 28.1161C39.7516 27.9844 39.7006 27.9215 39.6306 27.8508C39.1849 27.4007 38.3956 27.4461 38.0098 27.9404C37.9339 28.04 37.8786 28.1229 37.8358 28.2675C37.7923 28.4147 37.7614 28.6275 37.7401 28.9871C37.6974 29.706 37.6935 30.9964 37.6935 33.4876V38.6569V38.7069H37.6435H33.2871H28.9307H28.8807V38.6569V36.0958C28.8807 34.9162 28.8729 34.2714 28.8304 33.8819C28.8093 33.6877 28.7798 33.5604 28.74 33.4634C28.7007 33.3675 28.6503 33.2987 28.5825 33.2227C28.1674 32.774 27.3925 32.788 26.9759 33.2387L26.9756 33.2391C26.8952 33.3242 26.8373 33.3952 26.7932 33.4898C26.749 33.5849 26.7173 33.7072 26.6952 33.896C26.6509 34.2754 26.6469 34.9079 26.6469 36.0958V38.6254V38.6738L26.5986 38.6754L24.716 38.7383L24.7157 38.7383C23.8347 38.7619 23.3653 38.7816 23.0806 38.8375C22.9398 38.8652 22.8477 38.9012 22.7748 38.9489C22.7015 38.9968 22.6442 39.0585 22.575 39.144L22.575 39.144L22.5747 39.1443C22.3862 39.3728 22.2987 39.605 22.3041 39.84C22.3097 40.0757 22.4089 40.3209 22.6067 40.5744L22.6067 40.5744L22.6071 40.5749L22.9032 40.9637H38.8259C46.6911 40.9637 50.6734 40.9637 52.7284 40.9244C53.7567 40.9048 54.2997 40.8753 54.6046 40.8316C54.757 40.8098 54.8464 40.7849 54.9062 40.7577C54.9641 40.7313 54.9963 40.7018 55.0335 40.6643C55.4472 40.2465 55.4213 39.5399 54.9563 39.0854L54.9549 39.0841C54.8658 38.9901 54.7956 38.9225 54.7141 38.8716C54.6335 38.8213 54.5392 38.7858 54.4009 38.7611C54.1205 38.711 53.6711 38.7069 52.813 38.7069H51.0238H50.9738V38.6569V30.7223C50.9738 26.8565 50.9699 24.8703 50.9291 23.8129C50.9087 23.2835 50.8791 22.9908 50.8373 22.8126C50.8166 22.7243 50.7932 22.6659 50.7676 22.6216C50.742 22.5774 50.713 22.5449 50.6771 22.5087C50.3084 22.1364 49.6225 22.1181 49.1734 22.496Z" fill="#050443" stroke="#050443" stroke-width="0.1"/>
<path d="M49.251 55.6483L49.2523 55.6474L47.6005 47.9268L47.5512 47.9352C47.5512 47.9352 47.5512 47.9352 47.5512 47.9352C47.4109 47.1165 47.3375 46.6959 47.2665 46.4479C47.2313 46.3249 47.1975 46.2475 47.158 46.1863C47.1185 46.1249 47.0718 46.0773 47.0059 46.0147L47.0059 46.0148L47.0041 46.0129C46.8474 45.8474 46.5539 45.7695 46.2452 45.7829C45.9374 45.7964 45.6325 45.9001 45.4578 46.0765C45.2824 46.2537 45.188 46.4798 45.1747 46.866C45.1613 47.2547 45.2303 47.7997 45.378 48.6088C45.603 49.7605 46.0729 51.3723 46.5567 52.7674C46.7985 53.4648 47.0436 54.1072 47.2629 54.6102C47.3726 54.8617 47.4756 55.0777 47.5683 55.248C47.6616 55.4195 47.7424 55.5409 47.8071 55.6062C48.145 55.9474 48.8013 55.9814 49.251 55.6483Z" fill="#050443" stroke="#050443" stroke-width="0.1"/>
</svg>
