<svg width="58" height="59" viewBox="0 0 58 59" fill="none" xmlns="http://www.w3.org/2000/svg">
<path d="M0 8.39301V15.9039L3.925 15.9291L7.8625 15.967L7.4125 16.6613C6.6875 17.7974 5.55 20.2842 5.025 21.9C4.5875 23.2002 4.2125 24.8917 3.9375 26.6716C3.875 27.0629 3.775 27.1765 3.3875 27.3911C1.4 28.401 1.4 31.418 3.375 32.4405C3.7875 32.6551 3.8625 32.756 3.9375 33.2231C4.4875 36.8586 5.6875 40.33 7.35 43.0441L7.85 43.8646L3.925 43.9024L0 43.9277V51.4386V58.9495L7.475 58.9242L14.9375 58.8863L14.975 54.9984C14.9875 52.865 15.025 51.123 15.05 51.123C15.075 51.123 15.4875 51.3628 15.95 51.6532C18.6125 53.2816 21.675 54.3419 25.5375 54.9731C25.9125 55.0362 26.05 55.1372 26.25 55.5285C27.2625 57.5356 30.2375 57.5356 31.25 55.5285C31.45 55.1372 31.5875 55.0362 31.9625 54.9731C35.825 54.3419 38.8875 53.2816 41.55 51.6532C42.0125 51.3628 42.425 51.123 42.45 51.123C42.475 51.123 42.5125 52.865 42.525 54.9984L42.5625 58.8863L50.0375 58.9242L57.5 58.9495V51.4386V43.9277L53.575 43.9024L49.65 43.8646L50.15 43.0441C51.8375 40.2922 52.9375 37.1111 53.5625 33.16C53.625 32.7813 53.725 32.6424 54.1125 32.4405C56.1 31.418 56.1 28.4136 54.1125 27.3911C53.725 27.1765 53.625 27.0629 53.5625 26.6716C53.3 24.9296 52.9125 23.2128 52.5 21.9378C51.9875 20.3599 50.8125 17.81 50.0875 16.6613L49.6375 15.967L53.575 15.9291L57.5 15.9039V8.39301V0.882122L50.0375 0.907368L42.5625 0.945236L42.525 4.8206C42.5125 6.96657 42.475 8.70859 42.4375 8.70859C42.4 8.70859 42.05 8.49399 41.6625 8.24152C40.55 7.53462 38.35 6.51213 36.6875 5.9567C35.4 5.51488 34.0125 5.1993 31.9625 4.85847C31.5875 4.79535 31.45 4.69437 31.25 4.30304C30.2375 2.29593 27.2625 2.29593 26.25 4.30304C26.0375 4.69437 25.925 4.79535 25.5375 4.85847C21.7875 5.43914 18.2875 6.66361 15.8375 8.24152C15.45 8.49399 15.0875 8.70859 15.0625 8.70859C15.025 8.70859 15 6.94132 15 4.79535V0.882122H7.5H0V8.39301ZM13 8.45612V14.0104H7.5H2V8.45612V2.90186H7.5H13V8.45612ZM55.5 8.45612V14.0104H50H44.5V8.45612V2.90186H50H55.5V8.45612ZM29.4125 5.18668C30.0125 6.00719 28.825 6.91608 28.125 6.15868C27.8 5.80522 27.8125 5.55275 28.1375 5.12356C28.4875 4.68174 29.05 4.70699 29.4125 5.18668ZM26.55 7.39576C27.15 8.11529 27.8375 8.45612 28.75 8.45612C29.6625 8.45612 30.3375 8.12791 30.9625 7.38314L31.475 6.77722L32.9625 7.05493C35.8375 7.59774 38.9125 8.84745 41.35 10.4632L42.5 11.2333V13.5686V15.9039L44.8375 15.9291L47.1875 15.967L47.8375 16.9138C49.4125 19.186 50.85 22.7331 51.3875 25.6617L51.6625 27.1639L51.0625 27.6815C50.325 28.3126 50 28.9943 50 29.9158C50 30.8373 50.325 31.519 51.0625 32.1501L51.6625 32.6677L51.3875 34.1446C50.8375 37.1111 49.4125 40.633 47.8375 42.9178L47.1875 43.8646L44.8375 43.9024L42.5 43.9277V46.263V48.5983L41.35 49.3684C38.9125 50.9841 35.85 52.2212 32.9375 52.7767L31.475 53.0544L30.9625 52.4484C30.3375 51.7037 29.6625 51.3755 28.75 51.3755C27.8375 51.3755 27.1625 51.7037 26.5375 52.4484L26.025 53.0544L24.5375 52.7767C21.6875 52.2338 18.55 50.9715 16.1625 49.3684L15 48.5983V46.263V43.9277L12.6625 43.9024L10.3125 43.8646L9.6625 42.9178C8.1125 40.6709 6.65 37.0732 6.1125 34.1699L5.8375 32.6677L6.4375 32.1501C7.175 31.519 7.5 30.8373 7.5 29.9158C7.5 28.9943 7.175 28.3126 6.4375 27.6815L5.8375 27.1639L6.1125 25.6617C6.65 22.7331 8.0875 19.186 9.6625 16.9138L10.3125 15.967L12.6625 15.9291L15 15.9039V13.5686V11.2333L16.1625 10.4632C17.6125 9.49123 19.675 8.48137 21.375 7.88807C22.5625 7.4715 25.2 6.84034 25.8125 6.82771C25.975 6.81509 26.2625 7.04231 26.55 7.39576ZM5.225 29.2846C5.3875 29.4361 5.5 29.7012 5.5 29.9158C5.5 30.3197 5.0875 30.7994 4.7375 30.7994C4.3625 30.7994 3.875 30.3071 3.875 29.9158C3.875 29.6759 3.9875 29.4614 4.2 29.2972C4.625 28.969 4.875 28.969 5.225 29.2846ZM53.3 29.2972C53.5125 29.4614 53.625 29.6759 53.625 29.9158C53.625 30.3071 53.1375 30.7994 52.7625 30.7994C52.4125 30.7994 52 30.3197 52 29.9158C52 29.5118 52.4125 29.0322 52.7625 29.0322C52.875 29.0322 53.1125 29.1458 53.3 29.2972ZM13 51.3755V56.9297H7.5H2V51.3755V45.8212H7.5H13V51.3755ZM55.5 51.3755V56.9297H50H44.5V51.3755V45.8212H50H55.5V51.3755ZM29.375 53.6729C29.6875 54.0264 29.6875 54.2788 29.3625 54.708C29.2 54.9226 28.9875 55.0362 28.75 55.0362C28.3625 55.0362 27.875 54.5439 27.875 54.1652C27.875 53.8118 28.35 53.3952 28.75 53.3952C28.9625 53.3952 29.225 53.5088 29.375 53.6729Z" fill="#050443"/>
<path d="M8.0375 7.34539L5.625 9.78169L5.0875 9.23889C4.8 8.94855 4.5 8.70871 4.425 8.70871C4.2625 8.70871 3.125 9.88268 3.125 10.0468C3.125 10.1099 3.6875 10.7284 4.375 11.4227L5.625 12.6851L8.775 9.50398L11.9375 6.31027L11.25 5.61599C10.875 5.23729 10.5375 4.92171 10.5 4.92171C10.4625 4.92171 9.35 6.01994 8.0375 7.34539Z" fill="#050443"/>
<path d="M50.625 7.38326L48.1875 9.84481L47.625 9.27676C47.3125 8.96117 47 8.70871 46.925 8.70871C46.7625 8.70871 45.625 9.88268 45.625 10.0468C45.625 10.1099 46.1875 10.7284 46.875 11.4227L48.125 12.6851L51.25 9.52922C52.975 7.79983 54.375 6.31027 54.375 6.24716C54.375 6.12092 53.2375 4.92171 53.125 4.92171C53.0875 4.92171 51.9625 6.03256 50.625 7.38326Z" fill="#050443"/>
<path d="M19.6 17.8226C18.9875 17.9867 18.15 18.7315 17.8625 19.3627C17.6375 19.855 17.625 20.4357 17.625 29.9158C17.625 39.3959 17.6375 39.9766 17.8625 40.4689C18.1625 41.1379 19 41.8448 19.6875 42.0216C20.45 42.2109 37.05 42.2109 37.8125 42.0216C38.5 41.8448 39.3375 41.1379 39.6375 40.4689C39.8625 39.9766 39.875 39.3959 39.875 29.9158C39.875 20.4357 39.8625 19.855 39.6375 19.3627C39.3375 18.6936 38.5 17.9867 37.8125 17.81C37.1125 17.6333 20.275 17.6459 19.6 17.8226ZM37.6 19.9433C37.8625 20.1958 37.875 20.2968 37.875 22.7205V25.2451H28.75H19.625V22.7205C19.625 20.2968 19.6375 20.1958 19.9 19.9433C20.1625 19.6909 20.2875 19.6909 28.75 19.6909C37.2125 19.6909 37.3375 19.6909 37.6 19.9433ZM38 29.9158V32.6929H28.8125H19.625V29.9158V27.1386H28.8125H38V29.9158ZM37.875 37.1111C37.875 39.5348 37.8625 39.6358 37.6 39.8882C37.3375 40.1407 37.2125 40.1407 28.75 40.1407C20.2875 40.1407 20.1625 40.1407 19.9 39.8882C19.6375 39.6358 19.625 39.5348 19.625 37.1111V34.5864H28.75H37.875V37.1111Z" fill="#050443"/>
<path d="M21.25 22.4679V23.4778H22.25H23.25V22.4679V21.458H22.25H21.25V22.4679Z" fill="#050443"/>
<path d="M25 22.4679V23.4778H26H27V22.4679V21.458H26H25V22.4679Z" fill="#050443"/>
<path d="M28.75 22.4679V23.4778H29.6875H30.625V22.4679V21.458H29.6875H28.75V22.4679Z" fill="#050443"/>
<path d="M26.875 29.9157V30.9382L27.85 30.9004L28.8125 30.8625V29.9157V28.969L27.85 28.9311L26.875 28.8933V29.9157Z" fill="#050443"/>
<path d="M30.5 29.9159V30.9258H31.5H32.5V29.9159V28.906H31.5H30.5V29.9159Z" fill="#050443"/>
<path d="M34.25 29.9159V30.9258H35.25H36.25V29.9159V28.906H35.25H34.25V29.9159Z" fill="#050443"/>
<path d="M21.25 37.3637V38.3735H22.25H23.25V37.3637V36.3538H22.25H21.25V37.3637Z" fill="#050443"/>
<path d="M25 37.3637V38.3735H26H27V37.3637V36.3538H26H25V37.3637Z" fill="#050443"/>
<path d="M28.75 37.3637V38.3735H29.6875H30.625V37.3637V36.3538H29.6875H28.75V37.3637Z" fill="#050443"/>
<path d="M8.125 50.3024L5.6875 52.764L5.125 52.1959C4.8125 51.8804 4.5 51.6279 4.425 51.6279C4.2625 51.6279 3.125 52.8019 3.125 52.966C3.125 53.0291 3.6875 53.6476 4.375 54.3419L5.625 55.6042L8.7875 52.4105L11.9375 49.2295L11.25 48.5352L10.5625 47.8409L8.125 50.3024Z" fill="#050443"/>
<path d="M50.625 50.3026L48.1875 52.7641L47.6 52.1708L47 51.5649L46.2875 52.2971L45.5625 53.0166L46.8125 54.2789C47.5 54.9732 48.1125 55.5413 48.1875 55.5413C48.35 55.5413 54.375 49.4568 54.375 49.2927C54.375 49.217 54.075 48.8635 53.7125 48.4974L53.0625 47.841L50.625 50.3026Z" fill="#050443"/>
</svg>
