<svg width="78" height="80" viewBox="0 0 78 80" fill="none" xmlns="http://www.w3.org/2000/svg">
<path d="M53.5197 0.252449C44.7957 1.83224 38.1957 8.44979 36.5809 17.2615C36.3702 18.4024 36.3176 19.5434 36.3702 21.4216C36.4229 23.8615 36.4404 24.0195 36.8442 24.4407C37.4761 25.1078 38.2309 25.0551 39.1787 24.2477C40.4426 23.1945 41.3027 22.8785 43.0053 22.8785C44.6378 22.8785 45.4979 23.212 46.9372 24.353C47.3059 24.6514 47.7973 24.8971 48.0431 24.8971C48.2713 24.8971 48.991 24.6338 49.6404 24.3003C51.1324 23.5455 53.3442 22.8434 54.7309 22.6854L55.8191 22.5626V30.1455V37.711H54.608C52.8176 37.711 52.7824 37.7636 52.0277 41.204C51.6941 42.7838 51.3782 44.153 51.3255 44.2407C51.2729 44.311 50.1319 43.6264 48.7979 42.7136C45.6734 40.5721 45.5681 40.5546 43.8303 42.2572L42.6016 43.4509L40.741 41.8535C38.3186 39.7647 35.8963 37.8865 35.633 37.8865C35.5101 37.8865 35.4574 37.7636 35.5277 37.6232C35.5803 37.4828 37.2479 35.2711 39.2314 32.7259C41.2676 30.1104 42.8824 27.8812 42.9351 27.5828C43.0931 26.828 42.4612 26.1259 41.6362 26.1259C41.2851 26.1259 39.3016 26.5647 37.2654 27.0737C35.2117 27.6003 33.5266 27.9514 33.5266 27.8812C33.5266 27.811 33.8777 26.9157 34.3165 25.8801C34.7553 24.8269 35.1064 23.7386 35.1064 23.4227C35.1064 22.703 34.5798 22.1939 33.825 22.1939C33.509 22.1939 31.4202 23.0014 29.1032 23.9844C26.8213 24.9673 24.908 25.7748 24.8553 25.7748C24.8027 25.7748 23.1 24.6689 21.0638 23.3173C17.2372 20.7897 16.7984 20.579 16.0261 21.1232C15.3415 21.5971 15.3766 22.2115 16.2191 24.3881C16.6404 25.4764 16.9739 26.4067 16.9388 26.4418C16.9037 26.4769 15.4293 26.0907 13.6388 25.5817C10.725 24.7567 10.3388 24.6865 9.86489 24.8796C9.26809 25.1253 8.86436 25.9152 9.02234 26.4418C9.09255 26.6349 10.8479 29.2328 12.9191 32.1993C15.0606 35.2711 16.6229 37.6407 16.5 37.6758C16.2543 37.7636 13.3053 40.0455 11.8484 41.2743C6.74043 45.6274 3.5633 49.3312 1.65 53.2455C0.351064 55.8961 0 57.3881 0 60.179C0 70.9391 6.40691 76.6615 19.8702 77.9253C22.9069 78.2062 31.9293 78.0482 34.3165 77.662C37.7569 77.1179 39.6878 76.5913 42.2681 75.503L43.7074 74.8886L44.4096 75.5205C45.5505 76.5386 45.9191 76.4508 48.7979 74.4849C50.1319 73.5546 51.2729 72.87 51.3255 72.9578C51.3782 73.0455 51.6941 74.4147 52.0277 75.9945C52.5191 78.2413 52.7298 78.9434 53.0282 79.1891C53.3617 79.4524 53.8356 79.4875 57.1707 79.4875C60.8394 79.4875 60.9271 79.47 61.3133 79.0838C61.6293 78.7854 61.8399 78.0657 62.2963 75.8365C62.6298 74.2743 62.9457 72.9402 63.016 72.9051C63.0862 72.87 64.2096 73.5721 65.5261 74.4849C68.8787 76.8195 68.5101 76.8721 72.0032 73.379C75.0926 70.2897 75.1803 70.1317 74.3202 68.8503C74.0569 68.4817 73.3021 67.3583 72.6176 66.3578C71.7223 65.0588 71.4415 64.4971 71.5819 64.4094C71.7048 64.3391 73.0388 64.0232 74.566 63.7072C76.0755 63.3913 77.4622 63.0051 77.6378 62.8647C77.9011 62.6189 77.9362 62.1625 77.9362 58.5993C77.9362 55.036 77.9011 54.5796 77.6378 54.3338C77.4622 54.1934 76.0755 53.8072 74.566 53.4913C73.0388 53.1753 71.7048 52.8594 71.5819 52.7891C71.4239 52.6838 71.5995 52.2977 72.2489 51.3673C74.5484 48.0673 74.7766 47.6812 74.7766 47.137C74.7766 46.6631 74.408 46.2243 72.0032 43.8195C68.5101 40.3264 68.8787 40.379 65.5261 42.7136C64.192 43.6264 63.0686 44.311 62.9984 44.2407C62.9282 44.1705 62.6122 42.854 62.2963 41.3094C61.5766 37.8338 61.4888 37.711 59.6809 37.711H58.4521V30.1631V22.6152H58.891C60.2952 22.6152 63.7356 23.686 65.2101 24.5812C65.9649 25.0376 66.5617 24.9673 67.334 24.353C69.1245 22.9136 71.4064 22.4397 73.2495 23.1418C73.8112 23.3524 74.6186 23.8264 75.0574 24.2126C76.2686 25.2657 77.392 25.1078 77.7606 23.8264C78.0766 22.7205 77.9713 18.5253 77.5676 16.5945C75.8473 8.15138 69.1771 1.70937 60.6638 0.234894C58.7681 -0.0810623 55.3277 -0.0810623 53.5197 0.252449ZM58.5574 3.2365C59.3824 3.64021 60.6638 4.9567 61.4011 6.16788C63.3495 9.41521 64.5431 13.8737 64.7186 18.7009L64.8239 21.211L63.5426 20.7721C59.4878 19.3854 54.8011 19.3854 50.7638 20.7546L49.5 21.1934V19.6312C49.5 16.4892 50.3426 11.9429 51.4309 9.16947C52.6245 6.15032 54.2569 3.97372 55.9069 3.18383C56.8723 2.72745 57.5043 2.72745 58.5574 3.2365ZM50.1846 5.1849C48.3239 8.37958 47.0074 13.4876 46.7617 18.578L46.6388 20.7897L45.6559 20.4386C43.9707 19.8418 41.1447 19.9822 39.3191 20.7546C39.0734 20.8599 39.0559 20.6844 39.1787 19.3328C39.4245 16.3663 40.5303 13.2945 42.3207 10.6439C43.2862 9.22213 45.4101 7.08064 46.867 6.09766C47.9027 5.39554 50.4654 4.02638 50.7638 4.00883C50.834 4.00883 50.5707 4.53543 50.1846 5.1849ZM64.7011 4.53543C66.2984 5.25511 68.1415 6.51894 69.5457 7.83543C72.8106 10.9248 74.759 14.9796 75.1979 19.7014C75.3032 20.8072 75.2856 20.895 75.0048 20.7721C74.8293 20.6844 74.1447 20.4737 73.4601 20.2982C71.9856 19.8945 70.0548 19.9647 68.5628 20.4913L67.5798 20.8248V19.3854C67.5798 14.3477 65.7894 7.46681 63.683 4.48277C63.4899 4.21947 63.3846 4.00883 63.4548 4.00883C63.5074 4.00883 64.0692 4.23702 64.7011 4.53543ZM22.4681 27.653C23.5213 28.3551 24.3112 28.7588 24.6271 28.7588C24.908 28.7588 26.4351 28.1971 28.0324 27.5126C29.6298 26.828 30.9638 26.3014 30.9989 26.3365C31.034 26.3716 29.9984 28.9344 28.717 32.0062L26.3824 37.6232H25.3468H24.3112L22.433 32.7083C21.3798 30.0051 20.3793 27.3721 20.1686 26.8455L19.8176 25.8977L20.309 26.2136C20.5723 26.3891 21.5553 27.0386 22.4681 27.653ZM16.0612 29.1977C17.2021 29.5312 18.2027 29.8647 18.2729 29.9349C18.4133 30.0929 21.2394 37.3599 21.2394 37.5705C21.2394 37.6583 21.0112 37.711 20.7303 37.711C20.2564 37.711 20.0106 37.4126 17.7989 34.2354C16.4824 32.3397 15.0431 30.286 14.6218 29.6716C14.183 29.0748 13.867 28.5833 13.9197 28.5833C13.9548 28.5833 14.9202 28.8642 16.0612 29.1977ZM36.8793 31.1636C36.2824 31.9184 34.9133 33.6737 33.825 35.078L31.8415 37.6232L30.6654 37.6758C30.016 37.711 29.4894 37.6583 29.4894 37.5881C29.4894 37.3774 31.9644 31.4971 32.1223 31.3391C32.2452 31.1987 37.1952 29.8647 37.7043 29.8296C37.8271 29.812 37.4585 30.4264 36.8793 31.1636ZM20.116 40.8179C18.0271 47.5407 17.167 50.6828 17.2372 51.5253C17.4128 53.6317 19.6947 54.9657 21.7133 54.1232C22.3452 53.8599 25.6277 50.7881 25.6277 50.4546C25.6277 50.2264 24.0303 48.5939 23.8021 48.5939C23.6968 48.5939 22.9245 49.2785 22.0995 50.1035C21.0463 51.1567 20.4846 51.5955 20.2915 51.5253C20.1335 51.4551 20.0106 51.2796 20.0106 51.104C20.0106 50.9285 20.7128 48.4886 21.5553 45.6977L23.1 40.6072L24.6096 40.5546C25.9436 40.5195 26.1367 40.537 26.2245 40.8179C26.2596 40.9934 26.8037 43.3806 27.4005 46.1365C27.9973 48.8923 28.5064 51.1567 28.5064 51.1743C28.5415 51.2445 31.2447 50.6126 31.2447 50.5248C31.2447 50.4721 30.7356 48.2078 30.1213 45.4695L29.0154 40.5195H31.8239H34.6149L36.0543 41.6429C36.8266 42.2572 38.1782 43.3631 39.0207 44.1179L40.583 45.4695L40.2319 45.8556C39.7755 46.3471 39.4947 46.9088 39.4947 47.3126C39.4947 47.5056 40.2495 48.7344 41.1798 50.0684C42.0926 51.42 42.8122 52.5961 42.7771 52.7014C42.7245 52.8243 41.9697 53.0524 41.0745 53.2104C38.0553 53.7897 36.9846 54.0881 36.6686 54.404C36.3702 54.7024 36.3351 55.0711 36.3351 58.529C36.3351 60.6881 36.4053 62.4434 36.5106 62.6365C36.7213 63.0402 37.2303 63.1982 40.1968 63.795C41.4957 64.0583 42.6367 64.3391 42.7245 64.4269C42.8298 64.5147 42.2154 65.5854 41.1973 67.0599C40.267 68.4466 39.4947 69.7104 39.4947 69.886C39.4947 70.395 39.8282 70.904 40.7585 71.8695L41.6186 72.7647L40.7761 73.1157C36.5457 74.9062 29.384 75.7312 22.2223 75.2923C11.0585 74.5727 5.38883 71.4482 3.37021 64.8833C2.89628 63.3737 2.58032 60.3897 2.72074 59.0381C3.3 54.0003 7.47766 48.4184 15.5346 41.9413L17.2899 40.537L18.7468 40.5195C20.0633 40.5195 20.2037 40.5546 20.116 40.8179ZM59.7686 42.8365C60.0319 44.1179 60.3654 45.3817 60.4883 45.645C61.0149 46.6455 62.4543 47.3126 63.6654 47.0844C64.034 47.0141 65.175 46.3647 66.3335 45.5923L68.3697 44.2056L69.8968 45.7328C70.7569 46.5753 71.4415 47.3477 71.4415 47.4179C71.4415 47.5056 70.9324 48.2955 70.3181 49.1907C69.7037 50.0684 69.0718 51.0338 68.9138 51.3498C68.317 52.5258 68.7559 54.2987 69.8441 55.0886C70.1777 55.3168 71.2835 55.6503 72.7931 55.9663C74.1271 56.2647 75.233 56.4929 75.2505 56.4929C75.2856 56.4929 75.3032 57.4407 75.3032 58.5993C75.3032 59.7578 75.2856 60.7056 75.2505 60.7056C75.2154 60.7056 74.1096 60.9514 72.7755 61.2322C71.3186 61.5482 70.1426 61.9168 69.8441 62.1274C68.7559 62.8998 68.317 64.6727 68.9138 65.8487C69.0718 66.1647 69.7037 67.1301 70.3181 68.0078C70.9324 68.903 71.4415 69.6929 71.4415 69.7806C71.4415 69.8508 70.7569 70.6232 69.8968 71.4657L68.3697 72.9929L66.3335 71.6062C65.175 70.8338 64.034 70.1844 63.6654 70.1141C62.4543 69.886 61.0149 70.5354 60.4883 71.5535C60.3479 71.8168 60.0319 73.0806 59.7511 74.3445L59.2771 76.679H57.1356H55.0117L54.5904 74.52C54.3447 73.3439 53.9936 72.0625 53.8005 71.6764C53.1511 70.395 51.6239 69.7631 50.2723 70.237C49.9037 70.3599 48.7628 71.0445 47.7622 71.7466L45.9367 73.0104L44.3745 71.4657C43.5319 70.6232 42.8298 69.8684 42.8298 69.8157C42.8298 69.7455 43.4266 68.8152 44.1814 67.7269C45.2697 66.112 45.533 65.5854 45.6032 64.9184C45.7787 63.0929 44.8835 61.9695 42.8824 61.5306C42.233 61.3902 41.0745 61.1445 40.3372 60.9689L38.9681 60.6881V58.5993V56.528L40.1617 56.2647C40.8112 56.1243 41.9521 55.861 42.7069 55.703C44.8835 55.229 45.7787 54.1758 45.6032 52.2801C45.533 51.5955 45.2872 51.104 44.3043 49.6647C43.6372 48.6817 43.0229 47.7689 42.9176 47.6285C42.7771 47.4179 43.0931 47.0141 44.3394 45.7854L45.9191 44.1881L47.9027 45.5397C49.0085 46.2769 50.2021 46.9615 50.5883 47.0493C51.9574 47.3477 53.4319 46.5753 53.941 45.3115C54.0814 44.9429 54.3798 43.7141 54.608 42.5732L55.0293 40.5195H57.1532H59.2771L59.7686 42.8365Z" fill="white"/>
<path d="M24.5744 57.9674C24.5744 58.7046 24.5217 58.7748 23.8723 59.1435C22.1872 60.0913 21.5026 62.4786 22.4153 64.3041C23.0297 65.5153 24.1004 66.2349 25.6451 66.4631C26.7861 66.6211 27.3829 67.253 27.102 68.0254C26.8387 68.7802 26.2946 68.9557 24.0127 68.9557H21.9414V70.2722V71.5887H23.2579H24.5744V72.2908V72.9929H25.9786H27.3829V72.2206C27.3829 71.4833 27.4356 71.4131 28.085 71.0445C29.7701 70.0966 30.4547 67.7094 29.5419 65.8839C28.9276 64.6727 27.7515 63.9004 26.2595 63.7073C25.1712 63.5669 24.5744 62.9174 24.8552 62.1626C25.1185 61.4078 25.6627 61.2323 27.9622 61.2323H30.0159V59.9158V58.5993H28.6994H27.3829V57.8972V57.195H25.9786H24.5744V57.9674Z" fill="white"/>
<path d="M54.714 49.7172C53.222 50.1561 51.9055 50.9284 50.7119 52.1045C49.3779 53.421 48.588 54.8954 48.1842 56.7561C47.8683 58.3007 47.8683 58.8976 48.1842 60.4422C48.588 62.3029 49.3779 63.7773 50.7119 65.0938C52.555 66.9018 54.556 67.7268 57.1364 67.7268C59.6114 67.7268 61.6124 66.9545 63.3677 65.322C64.3156 64.4444 65.2635 63.2332 65.1055 63.0752C65.0704 63.0577 64.5438 62.7417 63.947 62.3906L62.8763 61.7587L61.6651 62.9523C60.1906 64.4444 59.0497 64.9358 57.1364 64.9358C54.6438 64.9358 52.5374 63.5843 51.3965 61.2672C50.8699 60.214 50.8172 59.9507 50.8172 58.5991C50.8172 57.3529 50.905 56.9316 51.2911 56.1066C52.8709 52.7188 56.6975 51.2795 59.9273 52.8768C60.4188 53.1226 60.8225 53.2981 60.8401 53.2805C60.8401 53.263 61.1911 52.7539 61.5949 52.1396C62.4725 50.8406 62.4725 50.8582 60.5592 50.0683C59.6114 49.6646 59.1023 49.5768 57.4874 49.5417C56.206 49.5066 55.2757 49.5593 54.714 49.7172Z" fill="white"/>
<path d="M63.7179 54.6675C63.1913 54.9834 62.7525 55.3169 62.77 55.3871C62.77 55.4749 62.8754 55.7557 62.9982 56.0542C63.1211 56.335 63.3142 57.0371 63.4195 57.5813L63.6301 58.5994H64.9817H66.3509V58.1079C66.3333 56.7738 65.3679 54.018 64.894 54.0531C64.7887 54.0531 64.2445 54.3339 63.7179 54.6675Z" fill="white"/>
</svg>
