<svg width="67" height="67" viewBox="0 0 67 67" fill="none" xmlns="http://www.w3.org/2000/svg">
<path d="M58.7762 0.0814047C58.6682 0.121922 58.1415 1.09433 57.6012 2.2288C57.0475 3.37678 56.5613 4.30867 56.4938 4.30867C56.4397 4.30867 55.4943 4.45723 54.3869 4.63281C52.0909 4.99746 51.8613 5.11901 51.8613 5.99688C51.8613 6.5371 51.9424 6.64515 53.401 8.17129L54.9406 9.79197L54.6165 11.7503C54.2113 14.2083 54.2113 14.4514 54.603 14.8161C55.1567 15.3293 55.6969 15.2212 57.5877 14.1678C58.5331 13.6411 59.3705 13.2224 59.438 13.2224C59.519 13.2224 60.3429 13.6411 61.2748 14.1678C63.1791 15.2347 63.7463 15.3563 64.2595 14.8026C64.6242 14.4109 64.6242 14.1678 64.2325 11.7503L63.9084 9.79197L65.448 8.18479C66.9201 6.64515 66.9877 6.55061 66.9877 5.99688C66.9877 5.11901 66.7446 4.98396 64.5161 4.63281C63.4627 4.45723 62.5173 4.32218 62.4227 4.32218C62.3282 4.30867 61.8285 3.4173 61.3018 2.30984C60.7886 1.21588 60.2618 0.243473 60.1403 0.148933C59.9107 -0.013134 59.1139 -0.0536518 58.7762 0.0814047ZM59.8837 4.79488C60.532 6.2805 60.694 6.40205 62.1796 6.60463L63.4627 6.78021L62.5173 7.79313C61.4774 8.9141 61.4503 9.03565 61.7205 10.7779C61.8015 11.2506 61.842 11.6693 61.8015 11.6963C61.761 11.7368 61.2883 11.5207 60.7345 11.2101C60.1808 10.8994 59.5866 10.6563 59.4245 10.6563C59.2624 10.6563 58.6682 10.8994 58.1144 11.2101C57.5607 11.5207 57.0745 11.7368 57.034 11.6963C56.9935 11.6557 57.034 11.2236 57.115 10.7509C57.4122 9.04916 57.3716 8.9141 56.3317 7.79313L55.3863 6.79371L56.5883 6.61814C57.3446 6.51009 57.9119 6.34803 58.1144 6.19946C58.29 6.06441 58.6412 5.49717 58.8978 4.92993C59.1544 4.3762 59.384 3.91701 59.4245 3.9035C59.465 3.9035 59.6811 4.30867 59.8837 4.79488Z" fill="#050443"/>
<path d="M33.8316 12.331C32.2245 12.7227 30.9684 13.7761 30.1986 15.3833C29.8205 16.1801 29.7799 16.3827 29.7799 17.6117C29.7799 18.8002 29.8205 19.0568 30.1446 19.7456C30.3472 20.1778 30.6443 20.691 30.7929 20.8801L31.0765 21.2447L30.4687 21.4608C29.1047 21.9875 28.821 22.3117 24.013 28.8754C21.4875 32.3059 19.3671 35.3041 19.2861 35.5337C19.097 36.0739 19.232 37.0869 19.5427 37.5055C20.1504 38.3159 20.4205 38.4104 22.1087 38.3834C23.9995 38.3564 24.9584 38.1673 25.3906 37.7621C25.5797 37.5866 26.8492 35.9794 28.2133 34.1832C29.5774 32.3869 30.7253 30.9283 30.7524 30.9688C30.7794 30.9958 30.8874 31.9142 30.9955 33.0217L31.171 35.034L29.9015 43.7992C29.1992 48.6207 28.6185 52.5914 28.5914 52.6049C28.5644 52.6319 27.9162 52.7669 27.1463 52.902C26.363 53.037 25.7418 53.1856 25.7418 53.2396C25.7553 53.2936 25.8093 53.7663 25.8633 54.2931C25.9308 54.9008 26.0254 55.2655 26.1469 55.3195C26.4035 55.414 28.8075 54.9954 30.9279 54.4821C40.8276 52.0511 49.7953 46.5273 56.5481 38.6805C58.6955 36.1955 59.4248 35.1421 59.4248 34.5343C59.4248 33.859 59.1007 33.5484 58.1418 33.3323C57.7231 33.2378 57.3585 33.1297 57.3315 33.0892C57.2504 32.9406 62.8148 29.9289 62.9228 30.0504C63.0173 30.1585 64.2869 35.6418 64.2869 35.9389C64.2869 35.9929 64.0303 35.9524 63.7331 35.8443C62.8823 35.5337 62.153 35.5877 61.8424 35.9389C61.7073 36.1145 60.924 37.2219 60.1001 38.3969C51.5511 50.7006 41.2192 58.6149 29.9825 61.4376C27.9567 61.9508 25.5662 62.3559 23.959 62.464C23.2567 62.518 22.649 62.6125 22.6084 62.6801C22.5679 62.7476 22.5814 63.2473 22.622 63.801L22.7165 64.814H23.3783C23.7294 64.814 24.7423 64.7194 25.6202 64.6114C34.1423 63.4904 41.908 59.9789 49.3901 53.8204C51.3079 52.2267 55.7648 47.7563 57.5341 45.6359C59.0467 43.8127 61.7343 40.2607 62.5852 38.9236L63.1254 38.1133L64.2734 38.4915C66.1777 39.1397 66.988 38.9506 66.988 37.8297C66.988 37.357 65.1242 28.6728 64.8136 27.7004C64.7326 27.4708 64.557 27.2007 64.4219 27.1332C63.7737 26.7821 63.355 26.9711 58.2363 29.7938C52.7666 32.8326 52.699 32.8866 52.9556 33.805C53.1177 34.3722 53.3068 34.4938 54.7384 34.8314C55.4272 35.007 56.0619 35.1826 56.1565 35.2231C56.2645 35.2906 55.9809 35.7363 55.2246 36.6412C54.0361 38.0863 50.9028 41.3141 50.7002 41.3141C50.6327 41.3141 50.187 39.9906 49.7143 38.3699C48.7554 35.1285 48.5123 34.4668 48.1341 34.1291C47.9991 34.0076 46.8511 33.3728 45.5816 32.7245C44.3255 32.0763 43.2721 31.536 43.2451 31.5225C43.1775 31.4685 42.5023 26.3094 42.5563 26.2688C42.5833 26.2418 44.8928 24.4861 47.6884 22.3657C53.2933 18.0979 53.2933 18.0979 53.1852 16.8149C53.1312 16.2206 52.9962 15.91 52.2533 14.8431C51.2944 13.4385 50.9433 13.1143 50.214 13.0063C49.1606 12.8307 48.9445 12.9658 44.6632 16.3152C42.4077 18.0844 40.5034 19.57 40.4224 19.6106C40.3414 19.6646 40.3684 19.3945 40.4764 18.9893C40.598 18.5436 40.652 17.9088 40.6115 17.2471C40.3954 13.8436 37.181 11.5072 33.8316 12.331ZM36.1141 14.6C37.2486 14.9376 38.356 16.4367 38.356 17.6387C38.356 18.6787 37.5457 19.9482 36.5463 20.4884C35.979 20.7991 34.3854 20.7855 33.8181 20.4884C31.8058 19.3945 31.4276 17.031 33.0078 15.4508C33.9667 14.5054 34.8986 14.2488 36.1141 14.6ZM50.349 16.1531L50.9163 16.977L45.6356 21.0016C42.3942 23.4732 40.3008 25.1479 40.2333 25.3505C40.0307 25.8637 40.9626 32.6165 41.2733 32.9676C41.4083 33.1027 42.6508 33.8185 44.0284 34.5343L46.5405 35.8308L47.5804 39.3423C48.1611 41.2871 48.6203 42.9348 48.6203 43.0158C48.6203 43.1644 47.3103 44.2314 46.9591 44.3664C46.8241 44.4069 46.4999 43.6506 45.7841 41.6248C44.339 37.492 44.7037 37.9242 41.1382 36.1685C39.477 35.3581 37.9779 34.6964 37.7753 34.6964C37.5862 34.6964 37.2621 34.8314 37.073 34.9935C36.7354 35.2906 36.6543 35.6553 35.3578 43.2049C34.6015 47.5537 33.9262 51.1462 33.8587 51.2003C33.6155 51.3488 31.198 52.0241 31.1305 51.9566C31.09 51.9161 31.6032 48.148 32.2785 43.5696L33.494 35.2501L33.1429 31.2254C32.8322 27.5384 32.7782 27.1737 32.5081 26.8901C32.2785 26.6335 32.1029 26.593 31.6032 26.62L30.9955 26.6605L27.457 31.32L23.905 35.9794L22.8651 36.0739C22.2843 36.128 21.7576 36.1685 21.7036 36.1415C21.5955 36.1145 29.7529 24.9048 30.3472 24.27C31.0225 23.5542 31.6707 23.4056 35.4523 23.095C37.3836 22.9329 39.2744 22.7709 39.6661 22.7304C40.3414 22.6493 40.5575 22.5008 45.0683 18.9623C47.6479 16.9364 49.7683 15.2887 49.7818 15.3023C49.7818 15.3023 50.0519 15.6939 50.349 16.1531ZM42.4618 39.4233C42.5293 39.4909 43.083 40.963 43.6908 42.6917C44.5551 45.0957 44.7847 45.879 44.6632 46.0006C43.9474 46.7029 36.7489 50.4304 36.5328 50.2009C36.5058 50.1738 36.9785 47.3241 37.5862 43.8667L38.6667 37.5731L40.5034 38.4374C41.5164 38.9101 42.3942 39.3558 42.4618 39.4233Z" fill="#050443"/>
<path d="M9.0083 43.367C8.68416 43.6236 8.50859 44.2043 8.50859 45.0822C8.50859 45.8385 8.49508 45.879 8.08991 46.0411C7.69825 46.2167 7.65773 46.2031 6.98245 45.5144C6.37469 44.9201 6.19912 44.8256 5.73993 44.8256C5.24022 44.8256 5.10516 44.9201 3.41696 46.6218C1.71525 48.31 1.62071 48.4451 1.62071 48.9448C1.62071 49.404 1.71525 49.5796 2.30949 50.1738L2.99828 50.8761L2.82271 51.3623L2.64714 51.8485H1.59369C-0.0269832 51.8485 2.81075e-05 51.781 2.81075e-05 55.0899C2.81075e-05 58.3988 -0.0269832 58.3312 1.59369 58.3312H2.64714L2.82271 58.8174L2.99828 59.3036L2.30949 60.0059C1.71525 60.6002 1.62071 60.7757 1.62071 61.2349C1.62071 61.7346 1.71525 61.8697 3.41696 63.5579C5.10516 65.2596 5.24022 65.3542 5.73993 65.3542C6.19912 65.3542 6.37469 65.2596 6.98245 64.6654C7.65773 63.9766 7.69825 63.9631 8.08991 64.1387C8.49508 64.3007 8.50859 64.3412 8.50859 65.084C8.50859 66.0024 8.71117 66.6642 9.04881 66.8398C9.19738 66.9208 10.4804 66.9748 11.939 66.9748C15.2344 66.9748 15.1939 67.0018 15.2884 64.895C15.3289 64.2872 15.3695 64.2197 15.7206 64.0981C16.0718 63.9766 16.1528 64.0306 16.8011 64.6654C17.3953 65.2596 17.5709 65.3542 18.0301 65.3542C18.5298 65.3542 18.6648 65.2596 20.353 63.5579C22.0548 61.8697 22.1493 61.7346 22.1493 61.2349C22.1493 60.7757 22.0548 60.6002 21.4605 60.0059C20.8257 59.3577 20.7717 59.2766 20.8933 58.9255C21.0148 58.5743 21.0823 58.5338 21.6901 58.4933C22.7706 58.4393 23.2297 58.3312 23.5134 58.0476C23.7565 57.8045 23.77 57.5884 23.77 55.0899C23.77 51.781 23.8105 51.8485 22.1628 51.8485H21.0959L20.9338 51.3623C20.7717 50.8761 20.7717 50.8626 21.4605 50.1738C22.0548 49.5796 22.1493 49.404 22.1493 48.9448C22.1493 48.4451 22.0548 48.31 20.353 46.6218C18.6648 44.9201 18.5298 44.8256 18.0301 44.8256C17.5709 44.8256 17.3953 44.9201 16.8011 45.5144C16.1528 46.1491 16.0718 46.2031 15.7206 46.0816C15.3695 45.96 15.3289 45.8925 15.2884 45.2848C15.2344 44.2043 15.1264 43.7451 14.8427 43.4615C14.5996 43.2184 14.3835 43.2049 11.912 43.2049C9.9807 43.2049 9.17036 43.2454 9.0083 43.367ZM12.9655 46.3112C12.9655 47.3646 13.168 47.7158 13.8703 47.8778C14.0864 47.9319 14.5996 48.148 15.0453 48.3505C16.1663 48.9043 16.612 48.8773 17.3683 48.175L17.976 47.6077L18.6783 48.31L19.3671 49.0123L18.7999 49.5931C18.3272 50.0793 18.2327 50.2548 18.2327 50.714C18.2327 51.0112 18.3137 51.3623 18.4217 51.5109C18.5163 51.6594 18.7459 52.1726 18.9079 52.6588C19.3266 53.8609 19.5292 54.0094 20.6772 54.0094H21.6091V55.0899V56.1703H20.7177C20.2315 56.1703 19.7183 56.2243 19.5832 56.3054C19.4482 56.3729 19.1645 56.8726 18.962 57.4128C18.7594 57.9531 18.5163 58.5203 18.4082 58.6689C18.3137 58.8174 18.2327 59.1686 18.2327 59.4657C18.2327 59.9249 18.3272 60.1005 18.7999 60.5867L19.3671 61.1674L18.6783 61.8697L17.976 62.572L17.3683 62.0048C16.612 61.3025 16.1663 61.2755 15.0453 61.8292C14.5996 62.0318 14.0864 62.2479 13.8703 62.3019C13.168 62.4639 12.9655 62.8151 12.9655 63.8685V64.8139H11.885H10.8045V63.8685C10.8045 62.7206 10.656 62.5315 9.42697 62.1263C8.94077 61.9642 8.42755 61.7482 8.2925 61.6401C8.15744 61.5321 7.80629 61.4375 7.52267 61.4375C7.11751 61.4375 6.90141 61.5456 6.40171 62.0048L5.79395 62.572L5.09166 61.8697L4.40287 61.1674L4.97011 60.5867C5.4293 60.114 5.53734 59.9114 5.53734 59.5062C5.53734 59.2226 5.4428 58.8579 5.33476 58.6959C5.22671 58.5203 4.98361 57.9666 4.79453 57.4534C4.60545 56.9266 4.34885 56.4269 4.2273 56.3324C4.09224 56.2378 3.60604 56.1703 3.07932 56.1703H2.16093V55.0899V54.0094H3.07932C3.60604 54.0094 4.09224 53.9419 4.2273 53.8338C4.34885 53.7528 4.60545 53.2531 4.79453 52.7264C4.98361 52.2132 5.22671 51.6594 5.33476 51.4839C5.71292 50.9166 5.59137 50.2819 4.97011 49.6066L4.40287 48.9988L5.10516 48.2965L5.80746 47.6077L6.3882 48.175C6.8744 48.6477 7.04998 48.7422 7.49566 48.7422C7.79279 48.7422 8.15744 48.6477 8.2925 48.5396C8.42755 48.4316 8.94077 48.2155 9.42697 48.0534C10.656 47.6483 10.8045 47.4592 10.8045 46.3112V45.3658H11.885H12.9655V46.3112Z" fill="#050443"/>
<path d="M10.0352 49.9442C8.61715 50.4709 7.60422 51.3893 6.91543 52.7939C6.57779 53.4692 6.55078 53.6717 6.55078 55.0898C6.55078 56.5349 6.57779 56.697 6.94245 57.4533C7.45566 58.4933 8.48209 59.5197 9.52202 60.0329C10.2783 60.3975 10.4404 60.4246 11.8855 60.4246C13.3306 60.4246 13.4927 60.3975 14.249 60.0329C15.2889 59.5197 16.3154 58.4933 16.8286 57.4533C17.1932 56.697 17.2202 56.5349 17.2202 55.0898C17.2202 53.6447 17.1932 53.4827 16.8286 52.7263C16.3154 51.6864 15.2889 50.66 14.249 50.1603C13.5467 49.8091 13.2631 49.7551 12.0881 49.7146C11.0212 49.6876 10.589 49.7416 10.0352 49.9442ZM13.074 52.1996C15.1404 53.0505 15.6536 55.8056 14.0329 57.3453C12.0476 59.2226 8.77921 57.8315 8.77921 55.0898C8.77921 53.8743 9.468 52.8074 10.6025 52.2131C11.1292 51.9295 12.4257 51.9295 13.074 52.1996Z" fill="#050443"/>
</svg>
