<svg width="58" height="58" viewBox="0 0 58 58" fill="none" xmlns="http://www.w3.org/2000/svg">
<path d="M0 7.4375V14.875L3.925 14.9L7.8625 14.9375L7.4125 15.625C6.6875 16.75 5.55 19.2125 5.025 20.8125C4.5875 22.1 4.2125 23.775 3.9375 25.5375C3.875 25.925 3.775 26.0375 3.3875 26.25C1.4 27.25 1.4 30.2375 3.375 31.25C3.7875 31.4625 3.8625 31.5625 3.9375 32.025C4.4875 35.625 5.6875 39.0625 7.35 41.75L7.85 42.5625L3.925 42.6L0 42.625V50.0625V57.5L7.475 57.475L14.9375 57.4375L14.975 53.5875C14.9875 51.475 15.025 49.75 15.05 49.75C15.075 49.75 15.4875 49.9875 15.95 50.275C18.6125 51.8875 21.675 52.9375 25.5375 53.5625C25.9125 53.625 26.05 53.725 26.25 54.1125C27.2625 56.1 30.2375 56.1 31.25 54.1125C31.45 53.725 31.5875 53.625 31.9625 53.5625C35.825 52.9375 38.8875 51.8875 41.55 50.275C42.0125 49.9875 42.425 49.75 42.45 49.75C42.475 49.75 42.5125 51.475 42.525 53.5875L42.5625 57.4375L50.0375 57.475L57.5 57.5V50.0625V42.625L53.575 42.6L49.65 42.5625L50.15 41.75C51.8375 39.025 52.9375 35.875 53.5625 31.9625C53.625 31.5875 53.725 31.45 54.1125 31.25C56.1 30.2375 56.1 27.2625 54.1125 26.25C53.725 26.0375 53.625 25.925 53.5625 25.5375C53.3 23.8125 52.9125 22.1125 52.5 20.85C51.9875 19.2875 50.8125 16.7625 50.0875 15.625L49.6375 14.9375L53.575 14.9L57.5 14.875V7.4375V0L50.0375 0.0249977L42.5625 0.0625L42.525 3.9C42.5125 6.025 42.475 7.75 42.4375 7.75C42.4 7.75 42.05 7.5375 41.6625 7.2875C40.55 6.5875 38.35 5.575 36.6875 5.025C35.4 4.5875 34.0125 4.275 31.9625 3.9375C31.5875 3.875 31.45 3.775 31.25 3.3875C30.2375 1.4 27.2625 1.4 26.25 3.3875C26.0375 3.775 25.925 3.875 25.5375 3.9375C21.7875 4.5125 18.2875 5.725 15.8375 7.2875C15.45 7.5375 15.0875 7.75 15.0625 7.75C15.025 7.75 15 6 15 3.875V0H7.5H0V7.4375ZM13 7.5V13H7.5H2V7.5V2H7.5H13V7.5ZM55.5 7.5V13H50H44.5V7.5V2H50H55.5V7.5ZM29.4125 4.2625C30.0125 5.075 28.825 5.975 28.125 5.225C27.8 4.875 27.8125 4.625 28.1375 4.2C28.4875 3.7625 29.05 3.7875 29.4125 4.2625ZM26.55 6.45C27.15 7.1625 27.8375 7.5 28.75 7.5C29.6625 7.5 30.3375 7.175 30.9625 6.4375L31.475 5.8375L32.9625 6.1125C35.8375 6.65 38.9125 7.8875 41.35 9.4875L42.5 10.25V12.5625V14.875L44.8375 14.9L47.1875 14.9375L47.8375 15.875C49.4125 18.125 50.85 21.6375 51.3875 24.5375L51.6625 26.025L51.0625 26.5375C50.325 27.1625 50 27.8375 50 28.75C50 29.6625 50.325 30.3375 51.0625 30.9625L51.6625 31.475L51.3875 32.9375C50.8375 35.875 49.4125 39.3625 47.8375 41.625L47.1875 42.5625L44.8375 42.6L42.5 42.625V44.9375V47.25L41.35 48.0125C38.9125 49.6125 35.85 50.8375 32.9375 51.3875L31.475 51.6625L30.9625 51.0625C30.3375 50.325 29.6625 50 28.75 50C27.8375 50 27.1625 50.325 26.5375 51.0625L26.025 51.6625L24.5375 51.3875C21.6875 50.85 18.55 49.6 16.1625 48.0125L15 47.25V44.9375V42.625L12.6625 42.6L10.3125 42.5625L9.6625 41.625C8.1125 39.4 6.65 35.8375 6.1125 32.9625L5.8375 31.475L6.4375 30.9625C7.175 30.3375 7.5 29.6625 7.5 28.75C7.5 27.8375 7.175 27.1625 6.4375 26.5375L5.8375 26.025L6.1125 24.5375C6.65 21.6375 8.0875 18.125 9.6625 15.875L10.3125 14.9375L12.6625 14.9L15 14.875V12.5625V10.25L16.1625 9.4875C17.6125 8.525 19.675 7.525 21.375 6.9375C22.5625 6.525 25.2 5.9 25.8125 5.8875C25.975 5.875 26.2625 6.1 26.55 6.45ZM5.225 28.125C5.3875 28.275 5.5 28.5375 5.5 28.75C5.5 29.15 5.0875 29.625 4.7375 29.625C4.3625 29.625 3.875 29.1375 3.875 28.75C3.875 28.5125 3.9875 28.3 4.2 28.1375C4.625 27.8125 4.875 27.8125 5.225 28.125ZM53.3 28.1375C53.5125 28.3 53.625 28.5125 53.625 28.75C53.625 29.1375 53.1375 29.625 52.7625 29.625C52.4125 29.625 52 29.15 52 28.75C52 28.35 52.4125 27.875 52.7625 27.875C52.875 27.875 53.1125 27.9875 53.3 28.1375ZM13 50V55.5H7.5H2V50V44.5H7.5H13V50ZM55.5 50V55.5H50H44.5V50V44.5H50H55.5V50ZM29.375 52.275C29.6875 52.625 29.6875 52.875 29.3625 53.3C29.2 53.5125 28.9875 53.625 28.75 53.625C28.3625 53.625 27.875 53.1375 27.875 52.7625C27.875 52.4125 28.35 52 28.75 52C28.9625 52 29.225 52.1125 29.375 52.275Z" fill="white"/>
<path d="M8.0375 6.4L5.625 8.8125L5.0875 8.275C4.8 7.9875 4.5 7.75 4.425 7.75C4.2625 7.75 3.125 8.9125 3.125 9.075C3.125 9.1375 3.6875 9.75 4.375 10.4375L5.625 11.6875L8.775 8.5375L11.9375 5.375L11.25 4.6875C10.875 4.3125 10.5375 4 10.5 4C10.4625 4 9.35 5.0875 8.0375 6.4Z" fill="white"/>
<path d="M50.625 6.4375L48.1875 8.875L47.625 8.3125C47.3125 8 47 7.75 46.925 7.75C46.7625 7.75 45.625 8.9125 45.625 9.075C45.625 9.1375 46.1875 9.75 46.875 10.4375L48.125 11.6875L51.25 8.5625C52.975 6.85 54.375 5.375 54.375 5.3125C54.375 5.1875 53.2375 4 53.125 4C53.0875 4 51.9625 5.1 50.625 6.4375Z" fill="white"/>
<path d="M19.6 16.775C18.9875 16.9375 18.15 17.675 17.8625 18.3C17.6375 18.7875 17.625 19.3625 17.625 28.75C17.625 38.1375 17.6375 38.7125 17.8625 39.2C18.1625 39.8625 19 40.5625 19.6875 40.7375C20.45 40.925 37.05 40.925 37.8125 40.7375C38.5 40.5625 39.3375 39.8625 39.6375 39.2C39.8625 38.7125 39.875 38.1375 39.875 28.75C39.875 19.3625 39.8625 18.7875 39.6375 18.3C39.3375 17.6375 38.5 16.9375 37.8125 16.7625C37.1125 16.5875 20.275 16.6 19.6 16.775ZM37.6 18.875C37.8625 19.125 37.875 19.225 37.875 21.625V24.125H28.75H19.625V21.625C19.625 19.225 19.6375 19.125 19.9 18.875C20.1625 18.625 20.2875 18.625 28.75 18.625C37.2125 18.625 37.3375 18.625 37.6 18.875ZM38 28.75V31.5H28.8125H19.625V28.75V26H28.8125H38V28.75ZM37.875 35.875C37.875 38.275 37.8625 38.375 37.6 38.625C37.3375 38.875 37.2125 38.875 28.75 38.875C20.2875 38.875 20.1625 38.875 19.9 38.625C19.6375 38.375 19.625 38.275 19.625 35.875V33.375H28.75H37.875V35.875Z" fill="white"/>
<path d="M21.25 21.375V22.375H22.25H23.25V21.375V20.375H22.25H21.25V21.375Z" fill="white"/>
<path d="M25 21.375V22.375H26H27V21.375V20.375H26H25V21.375Z" fill="white"/>
<path d="M28.75 21.375V22.375H29.6875H30.625V21.375V20.375H29.6875H28.75V21.375Z" fill="white"/>
<path d="M26.875 28.75V29.7625L27.85 29.725L28.8125 29.6875V28.75V27.8125L27.85 27.775L26.875 27.7375V28.75Z" fill="white"/>
<path d="M30.5 28.75V29.75H31.5H32.5V28.75V27.75H31.5H30.5V28.75Z" fill="white"/>
<path d="M34.25 28.75V29.75H35.25H36.25V28.75V27.75H35.25H34.25V28.75Z" fill="white"/>
<path d="M21.25 36.125V37.125H22.25H23.25V36.125V35.125H22.25H21.25V36.125Z" fill="white"/>
<path d="M25 36.125V37.125H26H27V36.125V35.125H26H25V36.125Z" fill="white"/>
<path d="M28.75 36.125V37.125H29.6875H30.625V36.125V35.125H29.6875H28.75V36.125Z" fill="white"/>
<path d="M8.125 48.9375L5.6875 51.375L5.125 50.8125C4.8125 50.5 4.5 50.25 4.425 50.25C4.2625 50.25 3.125 51.4125 3.125 51.575C3.125 51.6375 3.6875 52.25 4.375 52.9375L5.625 54.1875L8.7875 51.025L11.9375 47.875L11.25 47.1875L10.5625 46.5L8.125 48.9375Z" fill="white"/>
<path d="M50.625 48.9375L48.1875 51.375L47.6 50.7875L47 50.1875L46.2875 50.9125L45.5625 51.625L46.8125 52.875C47.5 53.5625 48.1125 54.125 48.1875 54.125C48.35 54.125 54.375 48.1 54.375 47.9375C54.375 47.8625 54.075 47.5125 53.7125 47.15L53.0625 46.5L50.625 48.9375Z" fill="white"/>
</svg>
