<svg width="56" height="65" viewBox="0 0 56 65" fill="none" xmlns="http://www.w3.org/2000/svg">
<path d="M28.7745 0.0416298C20.793 0.788441 15.1297 2.85772 11.3645 6.40506C8.48621 9.1278 6.74366 12.6907 6.21467 16.9071C6.01241 18.5874 6.01241 22.2281 6.21467 23.8617C6.32358 24.7174 6.32358 25.2464 6.21467 25.542C6.13688 25.7599 4.76773 27.7669 3.18076 29.9762C1.59379 32.1855 0.240203 34.177 0.146852 34.4104C-0.195436 35.3128 0.0846177 36.7597 0.738075 37.491C1.12704 37.9266 1.95164 38.3 3.18076 38.6112L4.28542 38.8912L4.26986 40.4938C4.26986 41.8473 4.31653 42.1274 4.56547 42.4075C4.86108 42.7342 4.86108 42.7497 4.53435 43.092C3.8031 43.87 3.70975 44.7723 4.2543 45.9392L4.6277 46.7483L4.23874 48.1952C3.3519 51.5403 4.441 53.8274 7.28821 54.6676C8.03502 54.8854 8.67292 54.9009 11.6601 54.8076C15.5498 54.6987 16.2966 54.792 17.4012 55.57C18.397 56.2545 18.9415 57.297 19.8595 60.222C20.9019 63.5826 20.933 63.6604 21.3998 63.8782C21.9443 64.1271 22.1466 64.096 22.6133 63.7226C22.8934 63.5048 23.0179 63.2559 23.0179 62.9291C23.0179 62.2912 21.5554 57.5459 20.9953 56.3479C20.1707 54.6053 18.926 53.4696 17.0901 52.8161C16.1721 52.4894 15.8921 52.4738 13.4494 52.536C8.76627 52.645 8.3773 52.6294 7.58382 52.2716C6.26135 51.6803 5.96573 50.7001 6.52584 48.7242C7.03927 46.9194 6.97704 46.1415 6.24579 44.7101C6.21467 44.6479 6.29246 44.6012 6.43249 44.6012C6.85257 44.6012 8.42398 43.9477 8.71959 43.6521C9.10855 43.2632 9.09299 42.423 8.70403 41.9251C8.51733 41.6762 8.06613 41.4428 7.44379 41.2717L6.49472 40.9916L6.58807 40.2759C6.89924 37.9266 6.89924 38.0044 6.46361 37.491C6.02797 36.9775 5.84127 36.8997 3.75643 36.3396C2.68289 36.0596 2.46507 35.9507 2.38728 35.6551C2.30948 35.3595 2.91627 34.4104 5.43674 30.8786L8.57956 26.4755L8.47065 24.2974C8.28395 20.7656 8.3773 17.6539 8.71959 15.9424C10.0265 9.3923 14.6474 5.1915 22.6289 3.32448C25.8028 2.57767 27.6543 2.37541 31.3417 2.37541C35.1068 2.35985 36.3048 2.53099 38.9965 3.38671C40.2723 3.79124 40.4901 3.82235 40.8635 3.65121C41.7659 3.21557 41.6725 2.00201 40.7079 1.53525C40.0233 1.20852 37.8451 0.617298 36.3204 0.337246C34.9512 0.0883102 30.2215 -0.08284 28.7745 0.0416298Z" fill="white"/>
<path d="M45.1267 7.82096C44.7533 8.28771 44.7222 8.48997 44.9712 9.01896C45.2512 9.6413 45.7491 9.75021 48.114 9.75021H50.3233L45.7024 14.3711L41.066 18.992L39.1523 17.0938C37.3475 15.3202 37.1919 15.1957 36.6162 15.1957C36.0406 15.1957 35.8539 15.3668 29.895 21.2946C26.5343 24.6553 23.6716 27.5958 23.5471 27.8292C23.0648 28.7472 23.516 29.5095 24.5428 29.5095C25.1029 29.5095 25.3519 29.2761 30.8751 23.7529L36.6162 17.9962L38.5144 19.8632C40.288 21.6369 40.5525 21.8081 41.2994 21.7303C41.4705 21.7147 43.8198 19.5054 46.7759 16.5648L51.9414 11.415L51.988 13.8421C52.0347 16.596 52.1281 16.8138 53.1394 16.8138C53.5439 16.8138 53.7928 16.7049 53.9951 16.4559C54.2596 16.1292 54.2907 15.7714 54.2907 12.0684C54.2907 8.24104 54.2752 8.02322 53.9795 7.72761C53.6839 7.432 53.4661 7.41644 49.5609 7.41644H45.4379L45.1267 7.82096Z" fill="white"/>
<path d="M49.1412 22.0258L48.7678 22.3214L48.7211 30.194L48.6745 38.0666H44.3336H39.9773V32.8545C39.9773 27.8447 39.9617 27.6269 39.6661 27.3312C39.1993 26.8645 38.3747 26.9112 37.9702 27.4246C37.659 27.8291 37.6435 28.0158 37.6435 32.9479V38.0666H33.2871H28.9307V35.5306C28.9307 33.1968 28.8996 32.9634 28.6195 32.6523C28.1839 32.1855 27.3749 32.2011 26.9392 32.6678C26.6125 33.0101 26.5969 33.1812 26.5969 35.5306V38.0355L24.7144 38.0977C22.9562 38.1444 22.8162 38.1755 22.5362 38.5178C22.1472 38.9846 22.1628 39.4824 22.5673 39.9959L22.8784 40.4004H38.8259C54.5556 40.4004 54.7578 40.4004 55.069 40.0892C55.5046 39.6536 55.4735 38.9223 54.9912 38.4556C54.6334 38.0822 54.5245 38.0666 52.813 38.0666H51.0238V30.2096C51.0238 22.5548 51.0082 22.337 50.7126 22.0413C50.3237 21.6524 49.608 21.6368 49.1412 22.0258Z" fill="white"/>
<path d="M45.4223 45.3792C45.0489 45.7526 45.0333 46.3282 45.3289 47.9308C45.7801 50.2179 47.2115 54.3253 47.7716 54.8854C48.1294 55.2433 48.814 55.2744 49.2808 54.9321C49.7787 54.5898 49.7164 53.9052 49.0785 52.2405C48.3784 50.389 47.8183 48.5064 47.6005 47.2462C47.3204 45.6281 47.3048 45.5659 47.0404 45.3169C46.6981 44.9591 45.7957 45.0058 45.4223 45.3792Z" fill="white"/>
</svg>
