<svg width="71" height="65" viewBox="0 0 71 65" fill="none" xmlns="http://www.w3.org/2000/svg">
<path d="M2.38909 0.337448C1.99999 0.514313 1.43403 0.938778 1.11568 1.25713C-0.0869773 2.53053 0.0014535 0.549683 0.0014535 28.4408C0.0014535 49.3989 0.0368258 53.7497 0.231374 53.9265C0.408235 54.068 3.82167 54.1388 11.8866 54.1565L23.3118 54.2095L21.7731 58.4542L20.2521 62.6989L17.7937 62.7519C16.3435 62.7696 15.2292 62.8757 15.0878 62.9995C14.8048 63.2295 14.7871 63.8839 15.0701 64.1668C15.3707 64.4675 55.3769 64.4675 55.6775 64.1668C55.9605 63.8839 55.9428 63.2295 55.6598 62.9995C55.5183 62.8757 54.4041 62.7696 52.9715 62.7519L50.5132 62.6989L48.9745 58.4542L47.4358 54.2095L58.861 54.1565C66.9259 54.1388 70.3394 54.068 70.5162 53.9265C70.7108 53.7497 70.7461 49.3812 70.7461 28.4054C70.7461 4.12229 70.7285 3.06112 70.4101 2.38905C70.2332 1.99995 69.8088 1.43399 69.4904 1.11564C68.217 -0.0870209 70.9407 0.00141144 35.3384 0.00141144C4.29919 0.00141144 3.06116 0.0190964 2.38909 0.337448ZM67.8456 2.05301C68.1109 2.24755 68.5 2.63665 68.6945 2.90194C69.066 3.37947 69.066 3.45021 69.119 27.8748L69.1544 52.3525H35.3738H1.59321V28.2462C1.59321 13.1069 1.66395 3.92774 1.77007 3.55633C1.9823 2.8312 2.56595 2.15913 3.2734 1.84077C3.71555 1.64622 9.37512 1.61086 35.586 1.64622L67.3681 1.6816L67.8456 2.05301ZM47.0467 58.2243C47.8602 60.4881 48.55 62.4513 48.6031 62.5574C48.6561 62.7343 45.9324 62.7873 35.3738 62.7873C24.8152 62.7873 22.0915 62.7343 22.1445 62.5574C22.1976 62.4513 22.905 60.4881 23.7186 58.2243L25.1866 54.1211H35.3738H45.561L47.0467 58.2243Z" fill="white"/>
<path d="M3.53819 4.05145C3.41439 4.28136 3.36133 11.2851 3.36133 25.4517C3.36133 46.286 3.36133 46.5159 3.71505 46.8697C4.06877 47.2234 4.2987 47.2234 35.3733 47.2234C66.4479 47.2234 66.6778 47.2234 67.0315 46.8697C67.3853 46.5159 67.3853 46.286 67.3853 25.3987C67.3853 6.42139 67.3499 4.24599 67.1023 3.99839C66.8547 3.75078 63.7242 3.71541 35.2849 3.71541C4.26332 3.71541 3.73274 3.71541 3.53819 4.05145ZM65.6166 25.381V45.4548H35.3733H5.12995V25.381V5.30716H35.3733H65.6166V25.381Z" fill="white"/>
<path d="M28.4754 8.64984C28.387 8.84438 28.2986 9.19811 28.2986 9.44571C28.2986 9.69332 28.2278 9.90555 28.1394 9.90555C27.7503 9.90555 26.8837 10.8606 26.6891 11.4619C26.5476 11.9571 26.5653 12.2755 26.7422 12.8061C27.0605 13.7435 27.6972 14.1679 28.9353 14.3094C29.7665 14.3978 29.9964 14.4863 30.0318 14.7516C30.1379 15.2468 29.7665 15.3883 28.2455 15.3883C26.9721 15.3883 26.866 15.4236 26.6891 15.8127C26.3708 16.5025 26.7422 16.98 27.5911 16.98C28.2632 16.98 28.2986 17.0154 28.2986 17.4929C28.2986 18.1119 28.7054 18.5718 29.2536 18.5718C29.8019 18.5718 30.0672 18.2534 30.0672 17.599C30.0672 17.1392 30.1733 16.9977 30.6508 16.7678C31.7297 16.2549 32.1365 14.7339 31.4821 13.6727C31.0399 12.9476 30.2794 12.5585 29.2713 12.5585C28.4047 12.5585 28.0863 12.2401 28.4754 11.7626C28.6346 11.5681 29.0591 11.4973 30.0495 11.4973C31.4821 11.4973 31.8358 11.3381 31.8358 10.7014C31.8358 10.1532 31.4998 9.90555 30.7393 9.90555C30.1026 9.90555 30.0672 9.88787 30.0672 9.32191C30.0672 9.00356 29.9788 8.64984 29.855 8.52603C29.5189 8.19 28.6877 8.26074 28.4754 8.64984Z" fill="white"/>
<path d="M9.23372 10.2947C9.10992 10.4185 9.02148 10.6661 9.02148 10.8784C9.02148 11.0906 9.10992 11.3382 9.23372 11.462C9.53438 11.7627 22.8344 11.7627 23.135 11.462C23.4003 11.1967 23.4003 10.56 23.135 10.2947C22.8344 9.99405 9.53438 9.99405 9.23372 10.2947Z" fill="white"/>
<path d="M51.5912 12.7709C51.3082 12.9831 51.2905 14.062 51.3259 28.1225L51.379 43.2442L51.8919 43.421C52.3163 43.5625 52.4401 43.5272 52.7231 43.1734C53.0415 42.7843 53.0591 42.2361 53.0591 28.0518C53.0591 15.0347 53.0238 13.3015 52.7762 12.9478C52.4755 12.5056 52.0334 12.4525 51.5912 12.7709Z" fill="white"/>
<path d="M9.23442 14.3626C8.89838 14.6986 8.96913 15.5298 9.35822 15.7421C9.57046 15.8482 11.3921 15.9189 14.0627 15.9189C16.7334 15.9189 18.555 15.8482 18.7673 15.7421C19.1564 15.5298 19.2271 14.6986 18.8911 14.3626C18.5904 14.0619 9.53509 14.0619 9.23442 14.3626Z" fill="white"/>
<path d="M55.8535 16.4671C55.5528 16.6263 55.5352 17.4576 55.5352 29.9086V43.1556L55.995 43.3678C56.3133 43.527 56.5256 43.527 56.7378 43.3855C57.0208 43.2263 57.0385 42.1121 57.0915 29.9794C57.1092 20.3581 57.0739 16.6794 56.9324 16.5202C56.7024 16.2372 56.278 16.2195 55.8535 16.4671Z" fill="white"/>
<path d="M38.8396 19.5623C38.592 19.8099 38.5566 21.1187 38.5566 31.3944C38.5566 41.67 38.592 42.9788 38.8396 43.2264C39.1933 43.5801 39.6886 43.5801 40.0423 43.2264C40.2899 42.9788 40.3253 41.67 40.3253 31.3944C40.3253 21.1187 40.2899 19.8099 40.0423 19.5623C39.9008 19.4031 39.6178 19.2793 39.4409 19.2793C39.2641 19.2793 38.9811 19.4031 38.8396 19.5623Z" fill="white"/>
<path d="M47.2591 21.437C47.0999 21.5962 47.0469 24.2491 47.0469 32.2963C47.0469 41.7408 47.0822 42.9788 47.3299 43.2264C47.7189 43.6155 48.2142 43.5801 48.5325 43.1203C48.7801 42.7666 48.8155 41.4401 48.8155 32.2433C48.8155 22.9757 48.7801 21.7554 48.5325 21.5078C48.2142 21.1717 47.5598 21.1364 47.2591 21.437Z" fill="white"/>
<path d="M21.9505 24.8327C21.809 24.9919 21.7736 27.5917 21.7913 34.1356C21.8444 42.3951 21.8797 43.2263 22.145 43.3855C22.3573 43.527 22.5695 43.527 22.8879 43.3678L23.3477 43.1556V34.0826C23.3477 27.2557 23.2946 24.9565 23.1355 24.7973C22.8525 24.5144 22.1981 24.532 21.9505 24.8327Z" fill="white"/>
<path d="M30.3513 24.8681C30.1037 25.1158 30.0684 26.1769 30.0684 33.9235C30.0684 41.5993 30.1037 42.7666 30.3513 43.1203C30.6697 43.5801 31.1649 43.6155 31.554 43.2264C31.8016 42.9788 31.837 41.8999 31.837 33.9765C31.837 27.2381 31.7839 24.9566 31.6247 24.7974C31.3241 24.4967 30.6697 24.5321 30.3513 24.8681Z" fill="white"/>
<path d="M59.9935 24.7973C59.8343 24.9565 59.7812 27.2557 59.7812 34.0826V43.1556L60.2411 43.3678C60.5594 43.527 60.7717 43.527 60.9839 43.3855C61.2492 43.2263 61.2846 42.3951 61.3376 34.1356C61.3553 27.5917 61.3199 24.9919 61.1785 24.8327C60.9309 24.532 60.2765 24.5144 59.9935 24.7973Z" fill="white"/>
<path d="M17.7044 26.4245C17.5629 26.5836 17.5275 28.9713 17.5452 34.9315C17.5983 42.4481 17.6336 43.2263 17.8989 43.3855C18.1112 43.527 18.3234 43.527 18.6418 43.3678L19.1016 43.1556V34.8784C19.1016 28.6706 19.0485 26.5483 18.8894 26.3891C18.6064 26.1061 17.952 26.1238 17.7044 26.4245Z" fill="white"/>
<path d="M26.1779 28.4762C25.8419 28.8123 25.8242 29.0599 25.8242 35.7983C25.8242 42.3775 25.8419 42.7843 26.1603 43.1734C26.4432 43.5272 26.567 43.5625 26.9915 43.421L27.5044 43.2442L27.5575 35.9575C27.5928 29.5197 27.5575 28.6531 27.3099 28.4055C26.9384 28.0341 26.6024 28.0518 26.1779 28.4762Z" fill="white"/>
<path d="M34.7016 28.4055L34.3125 28.6707V35.7983C34.3125 42.4836 34.3302 42.9435 34.6309 43.2088C35.0376 43.5802 35.4444 43.5979 35.7981 43.2265C36.0457 42.9965 36.0811 42.0769 36.0811 35.8336C36.0811 29.1483 36.0634 28.6884 35.7628 28.4231C35.356 28.0517 35.1968 28.0517 34.7016 28.4055Z" fill="white"/>
<path d="M43.015 32.4024C42.8558 32.5615 42.8027 33.9941 42.8027 37.7789C42.8027 42.2536 42.8381 42.9964 43.0857 43.2263C43.4571 43.5977 43.917 43.58 44.2707 43.1909C44.536 42.9079 44.5714 42.2712 44.5714 37.8674C44.5714 34.7723 44.5006 32.7384 44.3945 32.5262C44.1823 32.1371 43.351 32.0663 43.015 32.4024Z" fill="white"/>
<path d="M9.23372 33.6404C9.07454 33.7996 9.02148 35.1261 9.02148 38.5041V43.1556L9.48132 43.3678C9.79968 43.527 10.0119 43.527 10.2241 43.3855C10.4894 43.2263 10.5248 42.6781 10.5779 38.5572C10.6132 35.2852 10.5602 33.835 10.4187 33.6758C10.1711 33.3751 9.5167 33.3574 9.23372 33.6404Z" fill="white"/>
<path d="M13.4779 33.6404C13.3187 33.7996 13.2656 35.1261 13.2656 38.5041V43.1556L13.7255 43.3678C14.0438 43.527 14.2561 43.527 14.4683 43.3855C14.7336 43.2263 14.7689 42.6781 14.822 38.5572C14.8574 35.2852 14.8043 33.835 14.6628 33.6758C14.4152 33.3751 13.7608 33.3574 13.4779 33.6404Z" fill="white"/>
<path d="M25.5408 49.2573C25.2755 49.6641 25.2755 49.7348 25.5408 50.1416L25.8237 50.5837H35.3743H44.9248L45.2078 50.1416C45.4731 49.7348 45.4731 49.6641 45.2078 49.2573L44.9248 48.8151H35.3743H25.8237L25.5408 49.2573Z" fill="white"/>
</svg>
