<svg width="61" height="62" viewBox="0 0 61 62" fill="none" xmlns="http://www.w3.org/2000/svg">
<path d="M26.1968 0.239346C25.9441 0.359028 25.5984 0.664879 25.4388 0.917538C25.1596 1.31647 25.133 1.52924 25.133 2.87232V4.38828L24.7739 4.46807C23.3511 4.78722 21.7287 5.26594 20.5053 5.73137C19.7207 6.02392 18.9894 6.30317 18.8697 6.34307C18.7234 6.38296 18.4043 6.05052 17.8457 5.27924C16.7952 3.82977 16.0239 3.45743 14.9601 3.85637C14.3351 4.09573 9.4016 7.76594 9.14894 8.17817C8.86968 8.6303 8.82979 9.70743 9.06915 10.1463C9.14894 10.3058 9.50798 10.8377 9.86702 11.3165C10.2128 11.8085 10.5053 12.2473 10.5053 12.3005C10.5053 12.3537 10.0665 12.9388 9.52128 13.617C8.71011 14.6143 7.64628 16.1569 6.8484 17.4867C6.71543 17.6995 6.60904 17.6862 5.41223 17.3005C4.70745 17.0745 4.00266 16.8883 3.85638 16.8883C3.37766 16.8883 2.5266 17.3138 2.27394 17.6729C1.94149 18.1516 0 24.0292 0 24.5745C0 25.1197 0.279255 25.7846 0.625 26.1037C0.771277 26.2234 1.47606 26.5292 2.19415 26.7686L3.49734 27.2074L3.51064 30.4122C3.52394 32.1808 3.55053 33.6436 3.59043 33.6835C3.63032 33.7101 4.10904 33.6835 4.65426 33.617L5.6516 33.484L5.6383 30.0798C5.625 28.1915 5.6117 26.5558 5.5984 26.4362C5.55851 25.9441 4.80053 25.4255 3.49734 24.9867C2.77926 24.7606 2.18085 24.5479 2.15426 24.5346C2.12766 24.508 2.5133 23.2713 2.99202 21.7686L3.88298 19.0558L5.22606 19.5213C7.42021 20.2792 7.68617 20.133 9.57447 17.2207C10.1463 16.3431 11.0372 15.133 11.5559 14.5213C12.5931 13.3245 12.766 13.0053 12.766 12.234C12.766 11.7553 12.5 11.2766 11.2101 9.46807C11.0638 9.2553 11.3032 9.04254 13.2979 7.60637C14.5346 6.71541 15.5984 5.98403 15.6516 5.98403C15.7048 5.98403 16.1037 6.47605 16.5293 7.06115C17.6862 8.6569 18.5505 8.94945 19.9468 8.24467C20.8378 7.79254 23.0053 7.04786 24.508 6.66222C26.9149 6.06381 27.1277 5.79786 27.1277 3.53722V2.12764H30.0399H32.9521L33.0053 3.77658C33.0452 5.33243 33.0718 5.45211 33.3777 5.78456C33.8431 6.28988 33.9761 6.34307 35.7846 6.7952C37.3271 7.18084 38.9894 7.76594 40.2926 8.36435C41.6489 8.98935 42.4734 8.6702 43.617 7.10105C44.1356 6.39626 44.4947 6.01062 44.5878 6.07711C44.9468 6.28988 48.617 8.96275 48.8298 9.16222C49.0293 9.36169 48.9894 9.45477 48.2447 10.492C46.9947 12.2074 47.0213 12.9654 48.391 14.4282C49.2021 15.2925 50.5319 17.0745 51.2234 18.2314C52.2606 19.9867 52.8059 20.1862 54.7739 19.5612C55.492 19.3351 56.117 19.1489 56.1569 19.1489C56.2234 19.1489 57.9787 24.3218 57.9787 24.508C57.9787 24.5479 57.4069 24.7739 56.7287 25C55.4255 25.4255 54.9069 25.7447 54.6277 26.2367C54.508 26.4495 54.4548 27.5133 54.4548 30V33.484L55.4787 33.6037L56.4894 33.7234L56.5824 33.1117C56.6356 32.7792 56.6489 31.3165 56.6356 29.867L56.5824 27.2207L57.8989 26.7819C59.2686 26.3165 59.6144 26.1037 59.9202 25.5053C60.2527 24.867 60.1197 24.1622 59.0957 21.0106C58.2447 18.3909 58.0186 17.8324 57.6596 17.4734C57.008 16.8218 56.3564 16.7819 54.7207 17.2872C53.9894 17.5133 53.3777 17.6463 53.3511 17.5665C53.2314 17.2074 51.117 14.1622 50.4122 13.3377C49.9734 12.8058 49.6011 12.3271 49.6011 12.2872C49.6011 12.234 49.8936 11.8085 50.2527 11.3165C50.5984 10.8377 50.9574 10.3058 51.0505 10.1463C51.2766 9.69413 51.2234 8.6303 50.9574 8.17817C50.7048 7.76594 45.7713 4.09573 45.1463 3.85637C44.0824 3.45743 43.2979 3.82977 42.2473 5.27924C41.8085 5.87764 41.383 6.38296 41.3298 6.38296C41.2633 6.38296 40.8378 6.22339 40.3856 6.03722C38.8697 5.39892 37.4069 4.93349 35.3457 4.46807L34.9734 4.38828V2.87232C34.9734 1.52924 34.9468 1.31647 34.6676 0.917538C34.0957 0.0531769 33.8431 -1.52588e-05 30.0532 -1.52588e-05C27.0878 -1.52588e-05 26.609 0.0265808 26.1968 0.239346Z" fill="white"/>
<path d="M27.6587 8.98943C27.4725 9.01602 26.7545 9.149 26.063 9.25538C24.2545 9.56124 21.9007 10.3724 20.1055 11.3033C14.2146 14.3618 10.2252 19.6144 8.74914 26.2767C8.49648 27.407 8.45658 28.0187 8.45658 30.6118C8.44329 32.2607 8.46988 33.657 8.50978 33.6836C8.54967 33.7235 9.02839 33.6969 9.57361 33.6171L10.5709 33.4841V30.665C10.5709 28.4176 10.6241 27.633 10.8236 26.7288C12.1401 20.665 15.93 15.7447 21.3821 13.032C31.9672 7.76602 44.8795 13.1384 48.6428 24.4017C49.4007 26.7022 49.5337 27.5932 49.5337 30.665V33.4841L50.5311 33.6171C51.0763 33.6969 51.555 33.7235 51.5949 33.6836C51.6348 33.657 51.6614 32.3538 51.6614 30.8112C51.6614 27.5666 51.4752 26.3033 50.6507 23.7634C48.2571 16.4229 41.9938 10.8777 34.3342 9.29528C33.3901 9.09581 32.3662 9.01602 30.5178 8.97613C29.1348 8.94953 27.8449 8.94953 27.6587 8.98943Z" fill="white"/>
<path d="M19.3358 17.9389C19.0166 18.0851 18.6709 18.3777 18.5113 18.6437C18.232 19.0958 18.2188 19.2421 18.2188 23.6835C18.2188 28.0187 18.232 28.2846 18.4847 28.6968C18.857 29.2952 19.4953 29.6543 20.2267 29.6543H20.8384L20.4528 31.0772C20.2533 31.875 20.0805 32.5931 20.0805 32.6862C20.0805 32.7926 20.2666 33.0452 20.4794 33.2713C20.8118 33.6038 20.9581 33.657 21.3039 33.5905C21.5432 33.5373 22.6469 32.7527 24.123 31.5825L26.5299 29.6543H27.3012H28.0592V31.4096C28.0592 33.391 28.1922 33.8032 29.0166 34.3085C29.4156 34.5479 29.6948 34.5745 32.0086 34.5745H34.5485L36.982 36.5027C38.3251 37.5665 39.5485 38.4708 39.7081 38.5107C40.1336 38.6171 40.8118 38.2181 40.9182 37.7926C40.998 37.4734 40.8783 36.875 40.3464 34.8671C40.2666 34.6011 40.3065 34.5745 40.8251 34.5745C41.623 34.5745 42.3544 34.1224 42.7001 33.4309C42.9528 32.8857 42.9661 32.6729 42.9262 28.4176C42.8863 24.149 42.873 23.9362 42.607 23.5905C41.9422 22.6995 41.8757 22.6729 38.8305 22.633L36.0645 22.5931L36.0113 20.8112C35.9714 18.883 35.8916 18.6437 35.0539 18.0319C34.6948 17.7527 34.5352 17.7527 27.2879 17.7261C20.2799 17.6862 19.8544 17.6995 19.3358 17.9389ZM33.9102 21.2101V22.6064H31.8225C29.4023 22.6064 28.8438 22.766 28.3517 23.5639C28.0858 23.9894 28.0592 24.2288 28.0592 25.7846V27.5266H26.9555C25.732 27.5266 25.7852 27.5 24.2693 28.7234C22.9794 29.7607 23.0193 29.7474 23.1789 29.0559C23.4448 27.899 22.9927 27.5266 21.3305 27.5266H20.3464V23.6702V19.8139H27.1283H33.9102V21.2101ZM40.8251 28.5905V32.4468H39.7081C38.7773 32.4468 38.5379 32.4867 38.232 32.7394C37.8863 33.0054 37.873 33.0718 37.9395 33.8032C37.9927 34.3883 37.9661 34.5612 37.8597 34.4681C37.7666 34.4016 37.248 33.9894 36.7028 33.5506C36.1576 33.1117 35.5725 32.6862 35.4129 32.6064C35.2267 32.5 34.256 32.4468 32.5938 32.4468H30.0539V28.5905V24.7341H35.4395H40.8251V28.5905Z" fill="white"/>
<path d="M8.70986 36.6622C7.10081 37.2473 6.10347 38.125 5.39869 39.6143C5.01305 40.4255 4.98645 40.5984 4.98645 41.8883C4.98645 43.1781 5.01305 43.351 5.41198 44.1755C5.63805 44.6675 6.07688 45.3324 6.36943 45.6515L6.91464 46.2367L5.98379 46.3031C4.20188 46.4361 2.68592 47.5133 1.87475 49.2021L1.52901 49.9335L1.48911 55.5452L1.44922 61.1702H2.52635H3.59018V55.8776C3.59018 50.0398 3.60347 49.9867 4.46784 49.1755C5.27901 48.4175 5.35879 48.4042 11.2365 48.4042C15.5317 48.4042 16.7152 48.4441 17.0742 48.5904C17.3136 48.6835 18.6833 49.5478 20.1061 50.5053L22.7125 52.2473L25.8242 52.6861L28.9226 53.125L28.9625 53.6303L29.0024 54.1223H26.2099H23.404L20.4785 52.6595C18.8694 51.8484 17.4067 51.1968 17.2338 51.1968C17.0609 51.1968 16.7684 51.3164 16.5689 51.476L16.2232 51.742V56.4627V61.1702H17.287H18.3508V57.5797V53.9893L20.6248 55.1196L22.8987 56.25H30.0529H37.2072L39.4811 55.1196L41.7551 53.9893V57.5797V61.1702H42.8189H43.8827V56.5159V51.8484L43.5503 51.5292C43.3774 51.343 43.0716 51.1968 42.8854 51.1968C42.6992 51.1968 41.2365 51.8484 39.6274 52.6595L36.7019 54.1223H33.896H31.1035L31.1434 53.6303L31.1833 53.1383L34.2684 52.7127L37.3535 52.2739L39.9732 50.5186C41.4093 49.5611 42.7923 48.6835 43.0317 48.5904C43.67 48.3244 54.0556 48.3244 54.6939 48.5771C55.3455 48.8563 55.9971 49.468 56.2631 50.0664C56.4891 50.5585 56.5157 51.0372 56.5157 55.8776V61.1702H57.5795H58.6567L58.6168 55.5452L58.5769 49.9335L58.2178 49.1755C57.4599 47.5531 55.8375 46.4361 54.0955 46.3031L53.1912 46.2367L53.7365 45.6515C54.029 45.3324 54.4678 44.6675 54.6939 44.1755C55.0928 43.351 55.1194 43.1781 55.1194 41.8883C55.1194 40.5984 55.0928 40.4255 54.6939 39.601C54.1088 38.3643 53.3641 37.593 52.154 36.9946C51.1833 36.5159 51.0902 36.5026 49.7338 36.5026C48.3774 36.5026 48.2843 36.5159 47.3136 36.9946C46.1035 37.593 45.3588 38.3643 44.7737 39.601C44.3748 40.4255 44.3482 40.5984 44.3482 41.8883C44.3482 43.1781 44.3748 43.351 44.7737 44.1755C44.9998 44.6675 45.4386 45.3324 45.7444 45.6515L46.2896 46.25L44.521 46.3031C42.3535 46.3563 42.4067 46.343 39.029 48.5505L36.5157 50.1994L33.3109 50.6914L30.1194 51.1702L26.8615 50.6914L23.6035 50.2127L21.0104 48.484C17.912 46.4228 17.5263 46.2765 15.3322 46.2765H13.7896L14.3615 45.6648C14.6673 45.3324 15.1061 44.6675 15.3322 44.1755C15.7311 43.351 15.7577 43.1781 15.7577 41.875C15.7577 40.5319 15.7444 40.4388 15.2657 39.468C14.6673 38.2579 13.8827 37.5 12.6593 36.9281C11.9013 36.5824 11.5822 36.5026 10.5716 36.476C9.6806 36.4361 9.20188 36.4893 8.70986 36.6622ZM11.7019 38.843C12.4998 39.2021 13.0051 39.6941 13.3774 40.492C13.9492 41.7021 13.7498 43.0851 12.8721 44.0824C11.4891 45.6515 9.25507 45.6515 7.87209 44.0824C5.99709 41.9414 7.52635 38.5638 10.3721 38.5638C10.8242 38.5638 11.3295 38.6702 11.7019 38.843ZM51.0636 38.843C52.646 39.5611 53.4173 41.2766 52.8987 42.9787C52.6992 43.6702 51.8615 44.5877 51.1301 44.9468C50.412 45.2925 49.2285 45.3324 48.5104 45.0398C47.8189 44.7473 47.0077 43.9627 46.6886 43.2845C46.1434 42.1276 46.4226 40.5319 47.3136 39.5744C48.2045 38.617 49.8668 38.2978 51.0636 38.843Z" fill="white"/>
<path d="M28.9902 44.3483V46.4094H30.0541H31.1179V44.3483V42.2871H30.0541H28.9902V44.3483Z" fill="white"/>
<path d="M24.0295 44.3616L23.2715 44.9733L23.6305 45.4653C23.8433 45.7446 24.3619 46.4494 24.8007 47.0478C25.2396 47.6462 25.6518 48.1249 25.7183 48.1382C25.8114 48.1382 26.7688 47.4866 27.3805 46.9946C27.4603 46.9281 25.08 43.7632 24.9337 43.7499C24.8672 43.7499 24.455 44.0291 24.0295 44.3616Z" fill="white"/>
<path d="M33.9097 45.3325L32.7129 46.9282L33.4842 47.5266C33.8964 47.8591 34.3086 48.1383 34.3751 48.125C34.5081 48.125 36.6624 45.3458 36.7687 45.0399C36.8219 44.9069 35.4124 43.75 35.1863 43.75C35.1464 43.75 34.5746 44.4681 33.9097 45.3325Z" fill="white"/>
<path d="M5.45117 56.1835V61.1702H6.44851H7.44585V56.1835V51.1968H6.44851H5.45117V56.1835Z" fill="white"/>
<path d="M52.6602 56.1835V61.1702H53.6575H54.6548V56.1835V51.1968H53.6575H52.6602V56.1835Z" fill="white"/>
</svg>
