<svg width="66" height="78" viewBox="0 0 66 78" fill="none" xmlns="http://www.w3.org/2000/svg">
<path d="M40.3245 0.164406C38.1213 0.851639 36.2819 2.81228 35.9585 4.87398L35.817 5.64207H34.2404H32.6436V10.4527V15.2836L30.9255 15.708C28.8234 16.2133 26.6809 17.224 25.0638 18.457L23.8511 19.3665L21.284 19.3867H18.6968V18.0729C18.6968 16.9814 18.7574 16.7187 19.0606 16.6378C21.1426 15.991 22.8404 14.475 23.4266 12.7772C23.6085 12.2516 23.75 11.1804 23.75 10.3921C23.75 9.1793 23.6489 8.73462 23.1436 7.70377C21.9915 5.41972 20.233 4.34845 17.5851 4.32823C16.2106 4.32823 15.7862 4.40909 14.816 4.8942C11.8447 6.34951 10.5106 10.0282 11.8245 13.0804C12.4106 14.4548 14.1287 16.0516 15.4223 16.4155L16.3723 16.6984L16.433 19.0431L16.4936 21.3878L19.2021 21.4484L21.9106 21.5091L21.1426 22.7219C20.4149 23.874 19.3032 26.3601 19.3032 26.8453C19.3032 27.007 17.4436 27.0676 13.2394 27.0676H7.17553V26.5016C7.17553 26.0165 7.2766 25.9155 8.04468 25.7133C13.2394 24.3187 13.9872 16.8601 9.1766 14.2325C6.87234 12.9995 3.71915 13.4038 1.85957 15.2027C0.485106 16.557 0 17.7293 0 19.791C0.0202128 21.2463 0.101064 21.6708 0.545745 22.5197C0.848936 23.0655 1.43511 23.874 1.85957 24.2782C2.62766 25.0261 4.14362 25.8346 4.81064 25.8548C5.11383 25.8548 5.15426 26.0772 5.15426 27.5729V29.291H11.9255H18.6968V30.3016V31.3123H15.2606H11.8245V35.6378V39.9431L10.6521 40.3676C8.26702 41.257 6.73085 43.5006 6.71064 46.1889C6.71064 47.5027 6.79149 47.8665 7.39787 49.0389C8.55 51.3229 10.5106 52.4548 13.1787 52.4144C14.6947 52.3942 16.7362 51.4846 17.6053 50.4538C19.283 48.4931 19.6266 45.5219 18.4745 43.2176C17.9489 42.1463 16.2309 40.691 15.0585 40.307L14.0479 39.9633V36.7495V33.5357H16.433H18.8181L19.0606 34.7282C19.566 37.1336 21.3851 40.6708 22.8202 42.0048L23.3457 42.4899V50.0495V57.5889H21.1426H18.9394L18.3128 56.4974C17.2213 54.557 15.2809 53.4655 12.916 53.4655C11.7032 53.4655 11.2787 53.5665 10.1468 54.1123C9.41915 54.4761 8.57021 55.0623 8.26702 55.4261C6.10426 57.9931 6.20532 61.8336 8.50957 64.1176C9.70213 65.3102 10.6723 65.7346 12.4511 65.8357C14.5128 65.957 15.8064 65.5325 17.1404 64.2793C18.3532 63.1474 18.8989 62.1165 19.0404 60.7016L19.1617 59.6102H22.3553H25.5691V52.0708V44.5112L27.1862 45.3399L28.8032 46.1687V60.641V75.1133L29.2681 75.7804C30.0766 76.9931 30.8447 77.2761 33.4117 77.3772C36.1202 77.458 37.0904 77.175 38.4649 75.9016C39.7383 74.7293 40.3649 73.375 40.4862 71.5761L40.5872 70.1208H39.0308C37.1713 70.1208 36.3628 69.7772 35.9585 68.7867C35.5947 67.8974 35.7564 67.2304 36.5245 66.5836C37.05 66.1389 37.3128 66.0782 38.8287 66.0782H40.5266V63.1474V60.2165H39.8191C36.7468 60.2165 36.383 57.2857 39.4149 57.0229L40.5266 56.9421V51.5453L40.5468 46.1687L41.8202 45.5421L43.0936 44.9357L44.8521 48.4325L46.5904 51.9293H49.8245C52.5936 51.9293 53.0585 51.9697 53.0585 52.2325C53.0585 52.8793 54.0894 54.5367 54.9787 55.325C56.1511 56.3559 57.384 56.7804 59.2234 56.7804C61.6894 56.7804 63.8117 55.4059 64.8628 53.1623C65.5298 51.707 65.4691 49.3421 64.7213 47.8463C63.6298 45.6229 61.5277 44.3697 58.9202 44.3899C56.1511 44.4102 53.6447 46.4112 52.9777 49.1399L52.8564 49.7059H50.3702H47.884L46.3883 46.6942L44.8926 43.6623L46.2266 42.2676C46.9543 41.4995 47.7223 40.5697 47.9245 40.2261L48.2883 39.5995H54.2106H60.133V37.3761C60.133 35.7591 60.1936 35.1123 60.3957 35.0719C62.5383 34.4453 63.933 33.3538 64.7819 31.6155C65.2064 30.7665 65.2872 30.3219 65.2872 28.8867C65.267 27.4314 65.1862 27.007 64.7415 26.158C64.1149 24.9453 62.983 23.8538 61.75 23.207C60.4564 22.5399 57.8287 22.5399 56.4543 23.207C52.5532 25.107 51.6436 30.3219 54.6553 33.3336C55.484 34.1623 56.3936 34.6474 57.8691 35.0719C58.0308 35.1123 58.1117 35.5367 58.1117 36.2644V37.3761H53.867C51.5426 37.3761 49.6223 37.3155 49.6223 37.2144C49.6223 37.1336 49.8245 36.4867 50.067 35.7591C50.4511 34.6272 50.5117 34.0006 50.5117 31.2112C50.5319 28.1793 50.4915 27.8761 49.966 26.3601C49.2181 24.258 48.2277 22.4793 46.8936 20.9027L45.8223 19.6495L47.0553 18.2144L48.3085 16.7793L50.5926 16.7591C52.25 16.7591 52.8968 16.8197 52.9372 17.0016C53.5638 19.1644 54.6553 20.5591 56.3936 21.408C57.8085 22.1155 60.3957 22.1357 61.7904 21.4484C63.0032 20.8421 64.216 19.6495 64.8021 18.4165C65.4894 17.0623 65.4894 14.4346 64.8021 13.0804C64.216 11.8474 63.0032 10.6548 61.7904 10.0484C60.4766 9.40164 57.8287 9.38142 56.4543 10.0282C54.7766 10.7963 53.5638 12.3325 52.9372 14.475C52.8968 14.6772 52.1287 14.7378 50.0468 14.7378H47.2372L45.7617 16.3953C44.9532 17.325 44.2457 18.0931 44.1649 18.1336C44.084 18.1538 43.3968 17.8102 42.6287 17.3655C40.8904 16.3548 38.4649 15.5665 36.484 15.3846L34.9681 15.2431L34.9074 11.4431L34.867 7.66335H35.4532C35.9181 7.66335 36.0596 7.7644 36.1404 8.2293C36.2011 8.53249 36.5649 9.23994 36.9287 9.78568C39.6574 13.808 45.8426 13.1814 47.8638 8.69419C48.4702 7.36015 48.45 5.09632 47.8234 3.66122C47.1766 2.24632 45.4989 0.710152 44.1245 0.285683C43.033 -0.0377197 41.1734 -0.0983582 40.3245 0.164406ZM43.033 2.2261C46.55 3.11547 47.2777 7.60271 44.2457 9.6442C43.316 10.291 43.1543 10.3314 41.9213 10.2506C40.85 10.1899 40.4053 10.0687 39.7585 9.60377C38.8085 8.95695 37.8989 7.33994 37.8989 6.34951C37.8989 4.91441 38.8287 3.27717 39.9809 2.67079C41.2947 2.00377 41.8202 1.92291 43.033 2.2261ZM19.8691 7.09738C20.7787 7.70377 21.7287 9.38142 21.7287 10.3718C21.7287 12.2719 20.3745 14.0708 18.5957 14.5155C14.9574 15.425 12.0266 11.2612 14.1691 8.2293C15.4426 6.41015 18.05 5.90483 19.8691 7.09738ZM60.0319 11.7261C61.083 11.9889 62.3766 13.0399 62.8415 14.0102C63.0234 14.3942 63.1649 15.1623 63.1649 15.7484C63.1649 16.3346 63.0234 17.1027 62.8415 17.4867C62.3564 18.4772 61.0628 19.5282 59.9713 19.791C57.95 20.2559 55.767 18.9016 55.1606 16.8197C54.8777 15.8495 54.8777 15.6474 55.1606 14.6772C55.5447 13.3836 56.6766 12.191 57.9298 11.807C59.0415 11.4633 58.9809 11.4633 60.0319 11.7261ZM8.30745 16.2538C9.90425 17.1836 10.6521 19.124 10.1064 20.9229C9.60106 22.641 7.98404 23.8336 6.16489 23.8336C3.88085 23.8336 2.12234 22.075 2.12234 19.791C2.12234 18.5176 2.48617 17.6484 3.39574 16.7995C4.79043 15.4655 6.60957 15.2633 8.30745 16.2538ZM37.5957 17.6687C40.2436 18.2144 43.5787 20.2155 45.2362 22.257C46.4085 23.6921 47.3787 25.4506 47.9447 27.1687C48.6723 29.4325 48.7128 32.7272 48.0255 34.9506C46.6511 39.4176 43.6191 42.6314 39.2734 44.3091C37.6564 44.9155 37.4745 44.9559 34.6649 44.9357C31.8957 44.9357 31.6532 44.8953 30.0968 44.3091C27.2064 43.2176 25.0436 41.5602 23.3255 39.1144C17.9287 31.4538 21.6074 20.8421 30.6426 17.9921C31.35 17.7697 32.1585 17.5474 32.4415 17.507C33.6138 17.3048 36.2819 17.3857 37.5957 17.6687ZM60.9011 25.2282C62.3362 25.9761 63.1649 27.2899 63.1649 28.8665C63.1649 30.1601 62.9426 30.7059 62.033 31.7165C60.2745 33.657 57.2021 33.3942 55.7064 31.191C54.2915 29.1293 55.0596 26.3804 57.4043 25.1676C58.2532 24.7229 59.9713 24.7633 60.9011 25.2282ZM14.1085 42.2474C16.3319 42.8538 17.6457 45.5421 16.7564 47.6442C15.3617 50.9995 10.8947 51.2219 9.29787 48.0282C8.44894 46.3102 8.77234 44.4708 10.167 43.1772C11.2181 42.1665 12.6532 41.8431 14.1085 42.2474ZM60.9617 46.9367C61.5074 47.2197 62.1138 47.7857 62.5181 48.4123C63.1649 49.3219 63.2053 49.5038 63.1245 50.7367C63.0234 52.5155 62.3968 53.5059 60.8404 54.2538C59.8904 54.7389 59.5468 54.7995 58.6574 54.6985C56.5957 54.4357 54.9787 52.657 54.9989 50.6155C55.0191 47.5229 58.2532 45.5219 60.9617 46.9367ZM34.766 47.1793C35.6553 47.1793 36.8681 47.0984 37.4543 47.0176L38.5053 46.8559V50.858V54.8602L37.5957 55.224C35.8372 55.9516 34.8266 57.7708 35.2713 59.408C35.5745 60.4995 36.5043 61.5304 37.5957 61.9548C38.4447 62.2782 38.5053 62.3389 38.5053 63.0463V63.7942L37.4947 63.9155C35.3521 64.1782 33.8564 65.6133 33.6947 67.574C33.6543 68.1804 33.7149 68.9889 33.8564 69.3931C34.3617 70.9495 35.9383 72.1219 37.5553 72.1421C37.9596 72.1421 38.3032 72.1825 38.3032 72.2431C38.3032 72.3038 38.1213 72.6878 37.9191 73.1123C37.434 74.0623 36.7872 74.6687 35.8372 75.0729C34.5032 75.6187 31.6128 75.3559 31.0872 74.6484C30.8851 74.3655 30.8245 71.374 30.8245 60.5804V46.8761L31.9968 47.0176C32.6234 47.1187 33.8766 47.1793 34.766 47.1793ZM14.6138 55.9516C17.4032 57.3867 17.8883 60.7825 15.6043 62.7836C13.9872 64.2187 11.7234 64.158 10.1266 62.6825C7.98404 60.6612 8.57021 57.3463 11.3191 55.9112C12.1681 55.4665 13.7043 55.4867 14.6138 55.9516Z" fill="white"/>
<path d="M31.6737 20.1952C26.7216 21.4888 23.3258 25.9154 23.2854 31.1101C23.2652 34.4654 24.4375 37.2548 26.8024 39.4984C29.1067 41.6611 31.5524 42.6313 34.7056 42.6313C38.728 42.6313 42.1843 40.7313 44.4078 37.275C45.5801 35.4558 46.0854 33.6569 46.0652 31.2111C46.045 27.8558 45.1152 25.592 42.7503 23.2271C41.012 21.4686 39.779 20.7611 37.5758 20.1952C35.6354 19.6899 33.5939 19.6899 31.6737 20.1952ZM37.3131 21.3271C42.3663 22.8026 45.5599 27.6133 44.8322 32.626C44.1046 37.7196 39.7992 41.459 34.6652 41.459C30.6833 41.459 27.328 39.3569 25.4886 35.7186C22.1333 29.0686 27.1056 21.0239 34.5843 21.0037C35.4939 21.0037 36.6865 21.1452 37.3131 21.3271Z" fill="white"/>
<path d="M34.2608 24.1368V25.2485H33.1693C31.6736 25.2485 31.148 25.7336 29.9151 28.2804C28.6012 31.0496 28.6012 31.5751 29.9151 34.3443C31.0874 36.79 31.6129 37.2953 33.1491 37.4772L34.2608 37.6187V38.5081V39.3975H35.1704H36.08V38.5081V37.6187L37.1512 37.4772C37.7172 37.3964 38.3842 37.2145 38.6268 37.073C38.9704 36.8507 40.5268 34.2432 40.5268 33.8592C40.5268 33.7985 40.0821 33.7379 39.5565 33.7379C38.6065 33.7379 38.5459 33.7581 38.2023 34.5666C38.0002 35.0113 37.6768 35.456 37.4746 35.5772C37.0502 35.7996 33.048 35.8198 32.7246 35.5975C32.4012 35.3953 30.6225 31.7975 30.6225 31.3528C30.6225 30.8879 32.381 27.2294 32.7044 27.0272C32.9874 26.8453 36.9289 26.8049 37.3938 26.9868C37.5757 27.0677 37.8991 27.4719 38.1214 27.8964C38.4853 28.6443 38.5661 28.6847 39.4151 28.6847C39.9204 28.6847 40.3246 28.6443 40.3246 28.5836C40.3246 28.24 38.9906 25.8953 38.647 25.6124C38.3438 25.3698 37.8385 25.2485 37.1512 25.2485H36.08V24.1368V23.0251H35.1704H34.2608V24.1368Z" fill="white"/>
</svg>
