<svg width="86" height="57" viewBox="0 0 86 57" fill="none" xmlns="http://www.w3.org/2000/svg">
<path d="M25.9701 0.214085C19.2973 1.56342 14.1957 7.10863 13.3085 13.9292L13.1791 14.8904L8.72447 14.9459C4.25133 15.0013 4.25133 15.0013 3.29016 15.5004C1.99628 16.1843 1.07207 17.1455 0.480585 18.4024L0 19.4375V35.9807V52.5239L0.665426 53.7254C1.44176 55.1302 2.68019 56.1838 4.04801 56.5904C4.84282 56.8307 8.63205 56.8677 31.9959 56.8677H59.038L60.1101 56.461C61.441 55.962 62.9197 54.5572 63.4003 53.3003L63.733 52.4315H74.3983C84.4906 52.4315 85.082 52.413 85.3593 52.0988C85.6366 51.7846 85.6735 50.7125 85.6735 40.3799C85.6735 29.6037 85.6551 28.9937 85.3408 28.7165C85.0636 28.4577 84.6015 28.4023 83.0303 28.4023H81.0525V26.1287C81.0525 24.613 80.9786 23.7812 80.8307 23.6334C80.6828 23.4855 79.9435 23.4116 78.7051 23.4116H76.8012V21.2304C76.8012 19.7887 76.7273 18.9754 76.5794 18.8275C76.413 18.6612 74.6755 18.6057 69.8697 18.6057H63.4003L62.9566 17.7739C62.4206 16.7573 61.4964 15.907 60.3689 15.3895C59.648 15.0753 59.038 15.0013 56.4688 14.9089L53.4189 14.8165L53.2895 13.7629C52.6241 8.45797 49.3709 3.92938 44.4541 1.50797C41.663 0.121662 41.2379 0.0662117 33.8258 0.0107613C28.8536 -0.026207 26.8758 0.0292435 25.9701 0.214085ZM41.7739 2.58004C46.894 4.37299 50.443 8.60584 51.2563 13.8368L51.4226 14.9089H33.3267H15.2124L15.3418 13.9292C15.9148 9.54853 19.131 5.16781 23.1975 3.28244C25.8222 2.044 26.4507 1.97007 33.7334 2.02552L40.2952 2.06249L41.7739 2.58004ZM59.3892 17.2379C60.184 17.5706 61.0158 18.31 61.3855 19.0124C61.6073 19.456 61.6073 19.6963 61.367 20.9347C60.4428 25.4078 58.6314 28.6056 56.7275 29.1231C56.2839 29.2525 53.9364 29.3265 50.8126 29.3265H45.6186L44.8977 28.1065C42.9384 24.7609 39.5374 22.2101 35.6003 21.1565C33.641 20.639 30.1475 20.639 28.1512 21.175C24.3435 22.1731 21.0903 24.613 19.0201 27.9956L18.2622 29.234L13.0497 29.2895C9.98138 29.308 7.54149 29.2525 7.13484 29.1416C5.58218 28.735 3.91862 26.2766 2.95745 22.9679C1.94082 19.382 2.16263 18.3654 4.26981 17.3118C4.97221 16.9606 5.58218 16.9606 31.848 16.9421C55.7109 16.9421 58.7793 16.9791 59.3892 17.2379ZM70.5166 20.7868C70.5166 20.9717 70.7939 21.6001 71.1451 22.1731L71.792 23.2267H67.818H63.8624V21.8404V20.4541H67.1895C70.2763 20.4541 70.5166 20.4726 70.5166 20.7868ZM74.768 21.4707C74.768 22.0253 74.694 22.4874 74.6016 22.4874C74.2689 22.4874 73.2338 21.6186 72.8826 21.0456L72.5129 20.4541H73.6404H74.768V21.4707ZM35.4894 23.2452C40.1658 24.6685 43.6778 28.3653 44.7314 32.9308C45.138 34.6868 45.1011 37.404 44.6574 39.1784C42.8275 46.2763 35.1751 50.657 28.2621 48.5314C26.007 47.8475 24.5468 46.9417 22.7169 45.1303C21.2751 43.7255 20.9055 43.208 20.1661 41.7108C18.7428 38.7903 18.4101 35.9253 19.131 32.8569C20.1291 28.735 23.4932 24.9272 27.4488 23.4855C29.8887 22.6167 33.1049 22.5058 35.4894 23.2452ZM75.3964 26.2581C75.6737 26.8126 76.1912 27.515 76.5424 27.8292L77.1894 28.4023H70.5166H63.8624V26.8311V25.26H69.3891H74.9158L75.3964 26.2581ZM79.2041 26.1842C79.2041 27.0899 79.1856 27.1084 78.7975 26.905C78.2614 26.6278 77.559 25.9993 77.3372 25.5742C77.1709 25.2969 77.2633 25.26 78.1875 25.26H79.2041V26.1842ZM3.84468 29.234C4.23285 29.6961 4.99069 30.3246 5.50824 30.6203L6.46942 31.1749H11.9961H17.5044L17.3935 31.5815C16.6541 34.1508 16.5802 37.4225 17.2086 39.7699C18.4286 44.354 21.9775 48.3465 26.3213 50.0101C28.4285 50.8234 29.7039 51.0267 32.1622 51.0082C33.9737 50.9897 34.6761 50.8973 36.0069 50.5092C42.7166 48.5129 47.0419 42.8568 47.0419 36.0731C47.0419 34.428 46.7461 32.4133 46.3949 31.4891C46.2656 31.1933 46.5983 31.1749 51.7738 31.1749C56.9863 31.1749 57.319 31.1564 58.0769 30.7867C59.0565 30.3246 60.5537 28.6795 61.2931 27.2932L61.8291 26.2766V39.0306C61.8291 51.0452 61.7922 51.8215 61.4779 52.5239C61.0528 53.4296 60.2949 54.169 59.3892 54.5387C58.7793 54.7975 55.7109 54.8344 31.848 54.8344H5.00918L4.21436 54.4463C3.27168 53.9842 2.43989 53.0415 2.14415 52.0803C1.99628 51.5812 1.94082 47.6996 1.94082 38.8272V26.2766L2.5508 27.3302C2.86503 27.9217 3.45652 28.7719 3.84468 29.234ZM79.5738 31.4891C80.2392 33.0972 81.4777 34.1693 83.3261 34.7608C83.6218 34.8532 83.6403 35.2968 83.6403 40.4723V46.073L82.7715 46.3133C81.5701 46.6275 79.8696 48.3465 79.5368 49.5665L79.315 50.3983H71.5887C63.9548 50.3983 63.8624 50.3983 63.8624 50.0286C63.8624 49.8253 64.0102 49.6034 64.1951 49.548C66.0805 48.9565 67.3374 47.8659 68.2801 46.0175C70.2394 42.1174 69.8142 36.4798 67.3374 33.356C66.635 32.4687 65.3411 31.6 64.4723 31.4336C63.9918 31.3412 63.8624 31.2303 63.8624 30.8791V30.4355H71.4963H79.1302L79.5738 31.4891ZM83.6403 31.5445C83.6403 32.1545 83.5848 32.6536 83.5109 32.6536C83.0488 32.6536 81.4222 31.027 81.4222 30.5649C81.4222 30.4909 81.9213 30.4355 82.5312 30.4355H83.6403V31.5445ZM64.7311 33.7626C66.0065 34.5205 67.0231 36.5537 67.4113 39.0306C67.8919 42.1544 66.635 45.9251 64.7126 47.0896C64.3984 47.2745 64.0842 47.4408 64.0102 47.4408C63.9178 47.4408 63.8624 44.28 63.8624 40.4169C63.8624 36.5537 63.9178 33.3929 64.0102 33.3929C64.0842 33.3929 64.3984 33.5593 64.7311 33.7626ZM83.5848 50.3428C83.5294 50.3798 83.0303 50.3983 82.4388 50.3613L81.4037 50.3058L81.8289 49.6589C82.0692 49.3077 82.5497 48.8271 82.9009 48.5868L83.5479 48.1617L83.6033 49.1968C83.6403 49.7883 83.6218 50.2874 83.5848 50.3428Z" fill="white"/>
<path d="M39.1671 28.1066C38.8344 28.3653 38.816 28.6796 38.7605 33.5594L38.705 38.7534H37.1524H35.5812V35.5556C35.5812 32.6721 35.5443 32.3024 35.2485 32.0437C34.8234 31.6555 34.2134 31.637 33.8437 32.0252C33.6034 32.2655 33.548 32.857 33.548 35.5372V38.7534H31.8844H30.2209V34.3357C30.2209 29.5298 30.2024 29.4189 29.1673 29.5483C28.28 29.6407 28.1876 30.1213 28.1876 34.6314V38.7534H26.6165H25.0453V36.2026C25.0453 33.4115 24.9159 32.9679 24.0657 32.9679C23.086 32.9679 23.0121 33.2082 23.0121 36.0917V38.7534H21.94C21.1267 38.7534 20.7755 38.8458 20.5537 39.0861C20.1471 39.5297 20.1655 40.1027 20.5722 40.4724C20.8864 40.7497 21.94 40.7866 31.8659 40.7866C39.0562 40.7866 42.9379 40.7127 43.1782 40.6018C43.4185 40.4724 43.5294 40.2136 43.5294 39.77C43.5294 38.9752 43.1597 38.7534 41.7919 38.7534H40.7568V33.4854C40.7568 28.4762 40.7383 28.2175 40.4056 28.0326C39.9065 27.7739 39.5923 27.7923 39.1671 28.1066Z" fill="white"/>
<path d="M3.82553 46.6461C3.4004 46.8125 3.27101 47.4964 3.43737 48.6239C3.65918 50.0102 4.28764 51.2117 5.30426 52.1913C6.74601 53.5961 9.38923 54.4649 10.3504 53.8364L10.8125 53.5407V50.306C10.8125 46.2395 11.0898 46.5167 7.02327 46.5352C5.39668 46.5352 3.95492 46.5907 3.82553 46.6461ZM8.77926 50.2135C8.77926 51.1193 8.74229 51.8771 8.68684 51.8771C8.39109 51.8771 7.13418 51.1008 6.67208 50.6572C6.22846 50.1951 5.45213 48.9381 5.45213 48.6424C5.45213 48.5869 6.20998 48.55 7.11569 48.55H8.77926V50.2135Z" fill="white"/>
<path d="M53.4005 46.7753C53.0862 47.0156 53.0493 47.3298 52.9938 49.973C52.9569 51.692 53.0123 53.0968 53.1232 53.3926C53.382 54.0765 54.0289 54.2059 55.4892 53.8362C58.3172 53.1523 60.1656 51.0451 60.4614 48.217C60.6462 46.5904 60.4799 46.5165 56.7461 46.5165C54.4726 46.5165 53.6777 46.5719 53.4005 46.7753ZM58.3172 48.79C58.3172 48.9194 58.0769 49.4185 57.7812 49.8991C57.2452 50.7309 56.2285 51.5257 55.4152 51.7844C54.9901 51.8953 54.9901 51.8769 54.9901 50.2318V48.5497H56.6537C57.8921 48.5497 58.3172 48.6052 58.3172 48.79Z" fill="white"/>
<path d="M74.3986 37.9955C73.6963 38.3651 72.9199 39.6405 72.9199 40.3984C72.9199 40.6572 73.0863 41.2302 73.2896 41.6553C74.2138 43.707 77.3006 43.744 78.3173 41.7108C79.5742 39.2154 76.8755 36.6646 74.3986 37.9955ZM76.3949 39.8993C76.7276 40.232 76.6537 40.7311 76.2101 41.0453C75.5262 41.5259 74.7498 40.7866 75.138 40.0287C75.3598 39.6405 76.0622 39.5666 76.3949 39.8993Z" fill="white"/>
</svg>
