<svg width="72" height="73" viewBox="0 0 72 73" fill="none" xmlns="http://www.w3.org/2000/svg">
<path d="M24.4216 0.0683975C22.8091 0.308556 21.5397 1.21773 20.7506 2.64153C20.356 3.36201 20.2359 3.84233 20.1845 4.9059L20.0987 6.26109L16.8565 9.04007C14.6265 10.927 13.4772 11.7848 13.2198 11.7676C13.0311 11.7504 12.3964 11.6818 11.8132 11.6304C8.82836 11.2701 6.22091 13.5688 6.20375 16.5536C6.20375 17.154 6.28953 17.9431 6.42676 18.3205C6.70123 19.1782 7.52463 20.379 8.03926 20.7221L8.43381 20.9794L7.02716 25.3023L5.63766 29.608L4.69418 29.6766C3.47623 29.7796 2.39551 30.277 1.50349 31.1348C-0.469251 33.056 -0.503559 36.3668 1.41772 38.3738C2.06958 39.06 3.51054 39.8491 4.11094 39.8491C4.41971 39.8491 4.67703 40.5524 6.20375 45.5958L7.95349 51.3596L7.3874 52.1144C6.63261 53.1094 6.35814 53.9156 6.35814 55.3051C6.35814 58.2556 8.77689 60.5371 11.7789 60.4171C12.6881 60.3828 12.7052 60.3999 16.6164 62.9387L20.5276 65.5119L20.5619 67.1415C20.5962 68.857 20.8363 69.5603 21.7627 70.6753C22.8948 72.0305 25.4508 72.6481 27.3206 72.0305C28.4528 71.6531 29.7394 70.4866 30.254 69.3887L30.6486 68.5482L32.9129 68.1879C34.9543 67.862 35.1773 67.8449 35.3317 68.085C36.4124 69.8004 37.8362 70.6925 40.0663 71.0699C41.8331 71.3786 46.2075 71.1899 48.1459 70.7439C53.2407 69.5603 56.9804 66.7127 58.833 62.5957C59.4677 61.189 59.502 61.1547 60.1882 61.0518C61.7835 60.7945 63.3446 59.7652 64.2023 58.41C64.8027 57.4837 65.2659 56.0256 65.2659 55.0992C65.2659 54.5332 65.4202 54.3102 66.6039 53.1094C68.1649 51.4969 69.2285 49.7471 70.0004 47.4141C70.8067 44.9611 71.0125 43.5544 71.0125 40.278C70.9954 36.4697 70.4636 33.9309 69.1084 31.2205L68.6967 30.4143L69.0741 29.162C69.3829 28.2014 69.4687 27.5152 69.4687 26.0399C69.4687 24.3417 69.4172 24.05 69.0055 23.158C68.4909 22.0773 67.1185 20.5163 66.2608 20.0531L65.6947 19.7443L65.6776 17.926C65.6604 15.6273 65.283 14.5294 64.0479 13.1914C63.2245 12.2994 61.7492 11.3731 61.1317 11.3731C60.943 11.3731 60.5999 10.9442 60.2054 10.2066C57.495 5.28329 51.5939 1.44073 45.041 0.325706C43.0511 -0.0173721 40.4436 -0.0173721 39.2257 0.291397C37.5274 0.754562 36.035 1.92106 35.4689 3.27625C35.2802 3.7394 35.1601 3.84233 34.8514 3.77371C34.6455 3.72225 33.4962 3.55071 32.2954 3.37917L30.1168 3.07039L29.5679 2.22984C28.5214 0.600174 26.4629 -0.257538 24.4216 0.0683975ZM27.1834 2.34991C27.698 2.69299 28.0068 3.08755 28.3156 3.75656C28.7788 4.80297 28.8131 5.23183 28.5386 6.07239C27.6294 8.7656 24.1986 9.3317 22.5518 7.06733C21.351 5.38622 21.9171 3.07039 23.7869 2.12691C24.8161 1.59512 26.1885 1.69805 27.1834 2.34991ZM44.5264 2.04114C47.6313 2.55576 50.7877 3.82518 53.4294 5.59206C54.939 6.60416 57.0661 8.67983 57.941 10.0007C58.6615 11.0643 58.6958 10.9957 57.1347 11.3559C56.6887 11.4588 55.9683 11.7848 55.5394 12.0764C53.7382 13.3115 52.4345 16.3306 53.4466 16.8624C54.1156 17.2398 54.5616 16.9482 54.939 15.8675C55.7452 13.6889 57.0661 12.814 59.382 12.9512C61.3375 13.0713 62.6584 13.8947 63.4647 15.4558C63.8249 16.1934 64.1165 17.9603 63.9793 18.6121L63.8592 19.0925H62.3668C60.5827 19.0925 59.2619 19.4012 57.6151 20.2075C55.4365 21.2711 53.7725 23.5354 53.7725 25.4224V26.0742L52.0228 26.0056C50.719 25.9542 49.9986 26.0056 49.3124 26.2115C47.597 26.709 47.597 26.709 47.597 26.3316C47.597 25.6969 46.9108 24.0844 46.2933 23.2781C45.7272 22.5405 45.71 22.5062 45.9845 22.0945C46.3447 21.5455 47.597 20.7221 48.6091 20.379C49.0379 20.2246 49.5183 20.0359 49.6555 19.9673C49.9986 19.7958 50.0843 18.9724 49.8099 18.6293C49.2438 17.9603 46.5334 18.9895 45.0753 20.4648L44.2176 21.3225L43.0339 20.7907C41.6616 20.156 39.1914 19.6071 37.7504 19.6071H36.7383L36.8413 18.0117C37.0471 14.4608 38.4709 12.8655 40.9583 13.4144C41.3871 13.5173 42.3135 13.8261 42.9996 14.0834C44.9895 14.8725 45.8644 15.0612 47.4426 15.0612C48.7806 15.0612 48.9865 15.0098 49.7413 14.5466C50.7019 13.9462 51.2165 13.0885 51.3366 11.8877C51.4395 10.8584 51.0107 9.41747 50.3588 8.50829C49.4496 7.25603 47.2196 6.22678 44.6121 5.86653C42.8109 5.60922 42.2792 5.76361 42.2792 6.5527C42.2792 6.82717 42.3821 7.1188 42.5022 7.20457C42.6051 7.27319 43.4456 7.46188 44.3377 7.61627C47.5455 8.16521 49.0722 9.10869 49.4668 10.807C49.7756 12.0592 49.4496 12.7797 48.3689 13.1742C47.6656 13.4487 47.4426 13.4659 46.4476 13.2772C45.8129 13.1571 44.6293 12.814 43.8059 12.4881C40.7181 11.2701 39.0027 11.2358 37.4073 12.3165L36.7898 12.7282V8.74845C36.7898 5.23183 36.8413 4.68289 37.1157 4.06534C38.0249 2.07545 40.5809 1.37212 44.5264 2.04114ZM33.0673 5.28329L35.0744 5.59206V13.3801V21.1681L32.7414 21.1167L30.3913 21.0652L30.1683 20.3276C29.7394 18.818 28.3671 17.48 26.8403 17.0168L26.2056 16.8281L26.2742 15.593C26.3085 14.924 26.3943 13.4144 26.4629 12.2308L26.583 10.1036L27.1148 9.94925C28.693 9.50323 30.2369 7.51334 30.4084 5.71214C30.477 5.02598 30.5456 4.85443 30.7687 4.92305C30.923 4.95736 31.9523 5.1289 33.0673 5.28329ZM22.9292 9.72624C23.4266 9.9664 24.0442 10.1723 24.3186 10.1723H24.8161L24.7132 12.1793C24.6617 13.2943 24.5588 14.7867 24.5073 15.4901L24.4044 16.7938L23.581 17.0854C22.3802 17.5143 21.3853 18.3548 20.7677 19.4356C20.2874 20.2933 20.2359 20.5163 20.2359 21.9229C20.2359 23.3124 20.2874 23.5526 20.7334 24.376C21.2137 25.2337 21.7627 25.8341 22.6718 26.4688L23.0321 26.7261L22.2944 29.4365C21.8999 30.9117 21.5397 32.164 21.5054 32.1983C21.471 32.2326 21.0593 32.3012 20.579 32.3527L19.7213 32.4385L17.4226 27.6181C16.1532 24.9592 14.9181 22.3861 14.678 21.8886L14.2663 21.0137L14.798 20.5506C16.1532 19.4012 16.7708 17.3256 16.3076 15.5072C16.1532 14.924 15.8101 14.1177 15.5357 13.706L15.0382 12.9855L17.9716 10.4639L20.905 7.95935L21.471 8.62837C21.7798 8.98861 22.4317 9.48608 22.9292 9.72624ZM12.7224 13.6889C15.1411 14.8039 15.3641 17.9603 13.1512 19.5213C12.4994 19.9673 12.2421 20.0359 11.3157 20.0359C10.3894 20.0359 10.1321 19.9673 9.49737 19.5213C8.45096 18.7837 7.91918 17.7201 8.00495 16.485C8.10788 15.1641 8.72543 14.2207 9.90907 13.6717C11.0241 13.1571 11.6073 13.1571 12.7224 13.6889ZM26.806 18.9381C27.6466 19.3498 28.47 20.4648 28.6587 21.4598C28.7959 22.1802 28.4871 23.2953 27.921 24.0329C26.6345 25.7483 23.8555 25.6797 22.5518 23.8785C20.5104 21.0652 23.6496 17.4113 26.806 18.9381ZM64.7169 21.3054C67.7532 22.8664 68.5423 25.9199 66.9127 29.7967L66.6382 30.4657L67.4788 32.1983C70.2921 37.8935 69.8289 45.7502 66.398 50.5362C65.9863 51.1195 65.4889 51.737 65.3002 51.9086C64.9742 52.2173 64.9399 52.2002 64.0308 51.2738C62.95 50.2103 61.9208 49.7986 60.2911 49.7986C59.2619 49.7986 58.9188 49.9873 58.9188 50.5877C58.9188 51.1538 59.382 51.514 60.0853 51.514C62.1095 51.514 63.5504 52.7491 63.5504 54.4817C63.5504 57.0891 61.8693 59.0276 59.279 59.3707C58.6958 59.4564 58.1468 59.5937 58.0782 59.6794C57.9925 59.7652 57.7523 60.3656 57.5464 61.0003C56.7917 63.3333 54.7331 65.7692 52.3659 67.1758C49.9128 68.634 47.3225 69.3201 43.823 69.4745C39.2257 69.6461 36.7898 68.5139 36.7898 66.1637C36.7898 65.5977 36.8241 65.5462 37.1843 65.6491C40.3922 66.5926 40.7867 66.6612 43.7373 66.6784C46.2933 66.6955 46.825 66.6441 47.9915 66.301C51.0107 65.4261 53.2922 63.7621 54.3214 61.6865C54.7846 60.7602 54.8532 60.3999 54.8532 59.3535C54.8361 56.7632 53.5323 55.1507 50.496 53.9499C50.153 53.8127 50.0157 53.6068 49.9471 53.1094C49.6383 51.1709 47.7857 48.958 45.933 48.2547C44.1318 47.5857 40.7696 47.4828 40.375 48.1003C40.1692 48.4434 40.1863 48.8208 40.4436 49.1467C40.598 49.3697 41.0612 49.4383 42.5365 49.4898C44.8694 49.5756 45.8815 49.953 46.9966 51.2052C47.7514 52.0458 48.4547 53.6583 48.1802 53.8985C48.0944 53.9671 47.6656 54.1558 47.2367 54.3273C45.5728 54.9277 44.2691 56.626 44.0632 58.4786C43.9431 59.4564 44.1833 59.8167 44.9552 59.7137C45.4698 59.6623 45.6242 59.4564 45.8815 58.4443C46.156 57.3465 46.7393 56.626 47.7514 56.0942C49.2095 55.3566 50.5475 55.5453 51.7483 56.626C54.7331 59.3192 52.4173 63.3504 47.1681 64.6713C46.3276 64.8772 45.2983 64.9629 43.7373 64.9629C41.4729 64.9458 40.4093 64.7742 37.9563 64.0023L36.7898 63.6421V42.4909V21.3225H37.5274C38.7625 21.3225 41.3014 21.9401 42.3992 22.5062C45.7615 24.1873 46.6878 26.8633 45.5042 31.3749C45.0753 33.0046 45.1782 33.3305 46.1389 33.3305C46.6535 33.3305 46.7393 33.2619 46.9966 32.5929C47.1338 32.1983 47.4083 31.1691 47.5627 30.3285L47.8543 28.7846L48.8835 28.27C49.7927 27.8068 50.0843 27.7554 51.4567 27.7554C53.3608 27.7554 54.0813 27.9955 54.7331 28.8532C56.0026 30.5515 58.9531 31.5979 59.3648 30.5C59.6221 29.8482 59.279 29.4193 58.3184 29.1277C56.7573 28.6817 55.5051 27.2407 55.4879 25.8856C55.4708 23.827 57.4435 21.8543 60.2911 21.0652C61.6463 20.705 63.7563 20.8079 64.7169 21.3054ZM15.347 27.4637L18.0917 33.1761L17.4741 33.7079C17.1482 33.9995 16.685 34.6171 16.4448 35.0802C16.0503 35.8693 15.9817 35.9036 15.4671 35.8179C15.1583 35.7664 13.9232 35.5434 12.6881 35.3375L10.458 34.943L10.3036 34.2568C9.92623 32.4728 9.01705 31.0147 7.90203 30.4314C7.66187 30.2942 7.45602 30.1055 7.45602 30.0026C7.45602 29.8996 8.03926 27.9955 8.75974 25.7826L10.0635 21.7514H11.3329H12.6023L15.347 27.4637ZM35.0744 29.2992V35.7321L34.697 35.8007C34.474 35.8522 32.6899 36.0066 30.7 36.1609C28.7273 36.2982 26.8746 36.4526 26.6173 36.504C26.2742 36.5555 26.1198 36.504 26.0512 36.281C25.6738 34.9945 24.799 33.7937 23.6325 32.9874L23.2551 32.7301L23.9927 30.0026L24.7132 27.2579L25.914 27.052C27.2863 26.829 27.6637 26.6575 28.6758 25.8512C29.2934 25.3366 29.9796 24.2387 30.3398 23.158C30.4256 22.9007 30.7 22.8664 32.7585 22.8664H35.0744V29.2992ZM7.06147 32.0611C8.12503 32.9188 8.50243 33.7422 8.45096 34.9773C8.3995 35.8007 8.27942 36.1609 7.91918 36.6413C6.9757 37.8764 5.79205 38.3395 4.28248 38.0651C3.54485 37.9278 2.34405 36.8986 2.01812 36.1266C1.52064 34.9087 1.82942 33.3133 2.75575 32.4385C3.63062 31.6322 4.17955 31.4264 5.34604 31.4778C6.23806 31.5293 6.52969 31.6322 7.06147 32.0611ZM21.8313 34.2225C22.8605 34.4798 23.9927 35.5949 24.2672 36.607C24.8676 38.8027 22.9978 41.0328 20.7506 40.8441C19.5155 40.7411 18.5891 40.0893 18.0059 38.9399C17.7657 38.4596 17.577 37.8764 17.577 37.6362C17.577 35.8522 19.0523 34.274 20.8878 34.0338C20.9736 34.0167 21.3853 34.1024 21.8313 34.2225ZM13.237 37.2245C15.7244 37.6534 15.8616 37.7048 15.8616 38.0651C15.8616 38.8199 16.5649 40.3466 17.2168 41.0156L17.8686 41.6846L15.4499 45.956L13.0311 50.2274L11.7446 50.176C11.0413 50.1417 10.2522 50.1931 10.012 50.2789L9.56599 50.4504L7.95349 45.2012L6.32383 39.9349L7.28447 39.4889C8.24511 39.0429 9.54884 37.7906 9.77184 37.1216C9.90907 36.6584 10.0463 36.6584 13.237 37.2245ZM35.0744 44.5665V51.514H33.8907H32.7071L32.6042 50.9479C32.5527 50.622 32.2782 50.0216 31.9866 49.5756C30.9745 47.9802 29.0704 47.0882 27.0976 47.2941L26.0512 47.397L24.919 44.7038L23.7869 41.9934L24.5417 41.2386C25.2964 40.4838 25.9826 39.3002 25.9826 38.7684C25.9826 38.5969 26.0855 38.4253 26.2228 38.3738C26.4972 38.2709 33.0159 37.6705 34.2681 37.6362L35.0744 37.6191V44.5665ZM21.0593 42.5938H22.1229L23.2894 45.4242L24.473 48.2547L23.7697 49.0438C22.8434 50.1074 22.4831 51.2224 22.5861 52.7834C22.7405 55.0649 24.0613 56.6946 26.3429 57.3979C26.583 57.4837 26.583 57.7067 26.1885 59.7137L25.7425 61.9438L24.9019 62.0467C23.8898 62.184 22.6375 62.8015 22.0543 63.4191C21.8141 63.6592 21.5568 63.8651 21.471 63.8651C21.3338 63.8651 15.1926 59.9196 14.7809 59.5765C14.7123 59.5079 14.8838 59.1991 15.1926 58.8732C17.0109 56.9519 17.0624 53.7612 15.3298 51.7885L14.6608 51.0165L17.0967 46.7108C18.7778 43.7431 19.6184 42.4394 19.7728 42.508C19.8929 42.5595 20.4761 42.5938 21.0593 42.5938ZM28.5214 49.1467C29.585 49.404 30.6657 50.4848 30.923 51.5483C31.2661 52.8692 30.9059 54.0014 29.8595 54.8934C27.252 57.1921 23.2722 54.4988 24.5073 51.2738C24.8504 50.399 25.914 49.3354 26.6173 49.181C26.8918 49.1296 27.1834 49.061 27.2692 49.0266C27.578 48.9237 27.698 48.9409 28.5214 49.1467ZM13.3399 52.4746C15.3984 53.9328 15.3298 56.7975 13.2198 58.1184C10.9898 59.4907 8.14219 57.8782 8.14219 55.2536C8.14219 52.5433 11.1442 50.9479 13.3399 52.4746ZM35.0744 59.6451V66.0437L33.2389 66.3353C32.2096 66.5068 31.2661 66.6612 31.1117 66.7127C30.9059 66.7641 30.7687 66.5411 30.5628 65.7863C30.2197 64.5169 29.4306 63.4534 28.3671 62.8015C27.9039 62.5099 27.5265 62.2183 27.5265 62.1668C27.5265 62.1153 27.7323 61.0518 27.9725 59.8167L28.4185 57.5695L29.3277 57.2778C29.8423 57.1234 30.5628 56.6946 31.026 56.3C31.8494 55.5796 32.6728 54.2072 32.6728 53.5725C32.6728 53.2637 32.7757 53.2294 33.8736 53.2294H35.0744V59.6451ZM27.0976 64.1567C28.2984 64.7742 28.9675 65.8721 28.9503 67.2102C28.9503 68.2394 28.6072 68.9427 27.801 69.6461C25.1935 71.9619 21.2137 69.2515 22.4488 66.0265C22.7919 65.1516 23.8555 64.0881 24.5588 63.9337C24.8333 63.8822 25.1249 63.8136 25.2107 63.7793C25.5023 63.6592 26.5487 63.8822 27.0976 64.1567Z" fill="white"/>
<path d="M40.803 33.2447C40.5457 33.6393 40.5457 33.8451 40.7172 34.9258C41.2147 38.0822 43.256 40.175 46.7727 41.1528C48.2308 41.5645 51.9018 41.6503 53.3256 41.3244C54.9038 40.947 56.3447 40.1579 57.3054 39.1286L58.0945 38.2881L58.6949 38.7512C60.0329 39.7633 60.7534 41.3072 60.5818 42.7996C60.3931 44.3778 59.4668 45.6129 57.9058 46.3334C56.6364 46.9166 54.6636 46.8309 53.2227 46.1104C52.3821 45.6815 52.1763 45.6472 51.816 45.8188C51.2842 46.0589 51.1985 46.848 51.6788 47.2769C52.6566 48.1689 55.3498 48.7522 57.0481 48.4434C60.1187 47.9116 62.1257 45.7673 62.3144 42.7996C62.383 41.7532 62.486 41.3587 62.8977 40.724C63.9955 38.9914 64.4759 35.8007 63.9269 33.8966C63.6868 33.1075 63.155 32.7987 62.5717 33.1246C62.2973 33.279 62.263 33.5535 62.263 35.5948C62.263 37.4475 62.1943 38.0136 61.937 38.614L61.6111 39.3516L61.3538 38.9571C60.9249 38.3052 59.8957 37.276 59.3124 36.9157C58.8149 36.6069 58.7806 36.5383 58.935 36.0923C59.038 35.8178 59.0894 35.2174 59.0551 34.7714C59.0036 34.0338 58.9522 33.9137 58.5405 33.7765C57.9401 33.5706 57.374 34.0338 57.374 34.72C57.374 35.6978 56.6707 37.1559 55.7615 38.0651C54.4235 39.3859 53.377 39.7462 50.6838 39.7462C48.4195 39.7633 47.3044 39.5746 45.7777 38.9056C43.8736 38.0651 42.4498 36.0752 42.4498 34.2397C42.4498 33.2447 42.1582 32.8159 41.5063 32.8159C41.249 32.8159 40.9745 32.9874 40.803 33.2447Z" fill="white"/>
</svg>
