<svg width="73" height="64" viewBox="0 0 73 64" fill="none" xmlns="http://www.w3.org/2000/svg">
<path d="M51.7961 0.310835C51.6074 0.499533 51.453 0.876926 51.453 1.16855C51.453 1.9748 51.9334 2.31788 53.2885 2.45512C53.9232 2.50658 54.8667 2.6095 55.3814 2.67812L56.3077 2.7982L50.2865 7.94448C46.9586 10.7749 44.1796 13.1079 44.0767 13.1422C43.9738 13.1765 40.663 11.7699 36.7004 10.0201C32.7377 8.27041 29.3069 6.82945 29.0667 6.82945C28.7751 6.82945 27.6944 7.6357 25.43 9.52267C11.9639 20.8273 12.856 20.0211 12.856 20.6558C12.856 21.016 12.9932 21.3763 13.199 21.5821C13.971 22.3541 14.0568 22.3026 21.8791 15.7497C25.9275 12.3531 29.324 9.57413 29.427 9.57413C29.5299 9.57413 32.8407 10.9979 36.7861 12.7477C40.7145 14.4974 44.1282 15.9212 44.3512 15.9212C44.7629 15.9212 45.6034 15.235 53.6316 8.33903C55.9131 6.38344 57.8173 4.77094 57.8516 4.77094C57.8687 4.77094 57.8516 5.33703 57.783 6.00605C57.5428 8.27041 57.5943 9.0252 57.9717 9.40259C58.452 9.88291 59.2411 9.8486 59.6528 9.33397C59.9787 8.90512 60.236 6.94953 60.4933 2.88397C60.6306 0.602457 60.785 0.705383 56.3935 0.29368C52.0534 -0.100866 52.2078 -0.100866 51.7961 0.310835Z" fill="white"/>
<path d="M52.8591 12.2502L52.4817 12.5076V31.8919V51.259H51.0236H49.5655L49.5312 38.3762C49.4797 25.8536 49.4626 25.4933 49.1538 25.2532C48.8793 25.0645 47.8329 25.013 43.5787 25.013C40.6968 25.013 38.2437 25.0816 38.1408 25.1502C37.5747 25.5276 37.5575 25.9736 37.5575 38.6335V51.259H36.1852H34.8128V35.3056C34.8128 23.4863 34.7614 19.2492 34.607 18.9232C34.5041 18.6831 34.2468 18.4429 34.0581 18.3915C33.8522 18.3572 31.3477 18.34 28.4658 18.3572L23.2509 18.4086L23.0279 18.8375C22.8563 19.1806 22.8049 22.7143 22.8049 35.2541V51.259H21.3468H19.8886V41.4125C19.8886 32.681 19.8543 31.5316 19.6142 31.2915C19.3912 31.0513 18.6364 31.017 13.9704 31.017C8.60114 31.017 8.58399 31.017 8.32667 31.3944C8.08652 31.7375 8.05221 32.9726 8.05221 41.4983V51.2247L6.13093 51.2933C4.31258 51.3448 4.12388 51.3963 3.11178 51.9452C1.91098 52.5799 1.05327 53.5062 0.470025 54.7928C0.109786 55.5647 0.0754774 55.925 0.0240147 58.9613C-0.0274481 62.2034 -0.0274481 62.2892 0.349946 62.6838L0.727339 63.0955H36.1852H71.643L72.0204 62.6838C72.3978 62.2892 72.3978 62.2034 72.3464 58.9613C72.2949 55.7706 72.2777 55.599 71.8317 54.6556C71.2828 53.4548 70.1849 52.3397 69.0356 51.7737C68.3323 51.4306 67.8519 51.3448 66.2566 51.2933L64.3182 51.2247V32.0119V12.8163L63.8893 12.4046L63.4776 11.9758H58.3656C54.0085 11.9758 53.1851 12.0101 52.8591 12.2502ZM61.9166 32.8182V51.259H58.3999H54.8833V32.8182V14.3774H58.3999H61.9166V32.8182ZM32.2397 35.9917V51.259H28.7231H25.2065V35.9917V20.7244H28.7231H32.2397V35.9917ZM47.1639 39.3368V51.259H43.6473H40.1307V39.3368V27.4146H43.6473H47.1639V39.3368ZM17.487 42.3388V51.259H13.9704H10.4538V42.3388V33.4186H13.9704H17.487V42.3388ZM67.8348 53.9865C68.7097 54.3811 69.5674 55.3417 69.7904 56.1823C69.8933 56.5425 69.9791 57.709 69.9791 58.7554V60.6939H36.1852H2.3913V58.7554C2.3913 57.709 2.47707 56.5425 2.58 56.1823C2.803 55.3417 3.66072 54.3811 4.53558 53.9865C5.18745 53.6778 6.59409 53.6606 36.1852 53.6606C65.7763 53.6606 67.1829 53.6778 67.8348 53.9865Z" fill="white"/>
</svg>
