<svg width="21" height="12" viewBox="0 0 21 12" fill="none" xmlns="http://www.w3.org/2000/svg">
<path d="M1.20554 11.2793C1.48683 11.5605 1.86829 11.7185 2.26604 11.7185C2.66378 11.7185 3.04525 11.5605 3.32654 11.2793L10.7515 3.85433L18.1765 11.2793C18.4594 11.5526 18.8383 11.7038 19.2316 11.7003C19.6249 11.6969 20.0012 11.5392 20.2793 11.2611C20.5574 10.9829 20.7151 10.6067 20.7185 10.2134C20.722 9.82013 20.5708 9.44123 20.2975 9.15833L11.812 0.672827C11.5307 0.39162 11.1493 0.233646 10.7515 0.233646C10.3538 0.233646 9.97233 0.39162 9.69104 0.672827L1.20554 9.15833C0.924331 9.43962 0.766357 9.82108 0.766357 10.2188C0.766357 10.6166 0.924331 10.998 1.20554 11.2793Z" fill="white"/>
</svg>
