<svg width="24" height="24" viewBox="0 0 24 24" fill="none" xmlns="http://www.w3.org/2000/svg">
<path d="M22 5C22 4.44772 21.5523 4 21 4H3C2.44772 4 2 4.44772 2 5V19C2 19.5523 2.44772 20 3 20H21C21.5523 20 22 19.5523 22 19V5ZM20 7.53C20 7.82238 19.8494 8.09414 19.6014 8.2491L12.53 12.6688C12.2057 12.8714 11.7943 12.8714 11.47 12.6688L4.39856 8.2491C4.15062 8.09414 4 7.82238 4 7.53C4 6.86395 4.73263 6.45789 5.29744 6.8109L11.47 10.6688C11.7943 10.8714 12.2057 10.8714 12.53 10.6688L18.7026 6.8109C19.2674 6.45789 20 6.86395 20 7.53Z" fill="white"/>
</svg>
