<svg width="30" height="39" viewBox="0 0 30 39" fill="none" xmlns="http://www.w3.org/2000/svg">
<path fill-rule="evenodd" clip-rule="evenodd" d="M13.8213 0.103581C13.0987 0.27978 12.6945 0.568848 11.4863 1.77298C10.1965 3.0585 9.92719 3.47096 9.76677 4.40621C9.44379 6.28976 10.8801 8.1298 12.7859 8.27391L13.364 8.31766V16.3894C13.364 22.8275 13.3447 24.4494 13.2687 24.4025C13.2164 24.3701 12.9707 24.2089 12.7228 24.0443C12.1021 23.632 11.1371 23.1876 9.48372 22.5525C8.71178 22.2559 7.93824 21.93 7.76456 21.8283C7.33572 21.577 6.84188 21.0257 6.72603 20.6688C6.66636 20.4851 6.61942 19.7589 6.60074 18.7305L6.57087 17.0859L7.09048 16.8315C7.44463 16.6582 7.78064 16.4053 8.14584 16.0374C9.01731 15.1593 9.40103 14.2329 9.40103 13.0067C9.40103 11.7922 9.01602 10.8659 8.15201 10.0019C7.27369 9.12366 6.37768 8.7529 5.13323 8.7529C3.88528 8.7529 2.98751 9.12511 2.12062 10.0019C1.24876 10.8838 0.864586 11.8117 0.866339 13.0317C0.867406 13.7753 0.993764 14.3075 1.3329 14.9963C1.66213 15.6651 2.49161 16.4932 3.16371 16.8241L3.66625 17.0715L3.70512 18.8376C3.74924 20.8431 3.85617 21.4281 4.33927 22.3071C5.08362 23.6613 6.08388 24.3616 8.60082 25.2909C10.6826 26.0595 11.6585 26.6432 12.3598 27.5389C12.8708 28.1915 13.364 29.3547 13.364 29.9073C13.364 30.1403 13.3291 30.1721 12.7734 30.4459C11.9573 30.848 11.129 31.6682 10.7451 32.4545C9.96385 34.0544 10.1184 35.8054 11.1642 37.2018C12.6916 39.2413 15.648 39.6041 17.5937 37.9909C18.7156 37.0607 19.2649 35.8995 19.2575 34.474C19.2482 32.7092 18.3236 31.221 16.7857 30.4948L16.1743 30.2062L16.2161 28.9107C16.3042 26.1782 16.8653 24.074 17.8613 22.7407C18.5489 21.8202 19.1076 21.4857 20.5616 21.124C22.8411 20.5569 24.159 19.8855 25.1278 18.7978C26.1471 17.6536 26.6222 16.1073 26.6241 13.9282L26.6247 13.1973L26.9486 13.1024C27.7092 12.8796 28.4564 12.2149 28.8211 11.4369C29.0236 11.0047 29.0253 10.9871 29.0253 9.28477V7.56843L28.7783 7.06666C28.3418 6.17987 27.4954 5.5605 26.4967 5.39695C25.9252 5.30337 24.3519 5.30337 23.7804 5.39695C22.5871 5.59236 21.6579 6.39897 21.3216 7.53131C21.2268 7.85071 21.2077 8.24289 21.2273 9.46646C21.2509 10.9462 21.2591 11.0167 21.4561 11.4369C21.68 11.9146 22.2304 12.549 22.6411 12.8029C22.7854 12.8921 23.0977 13.0257 23.3351 13.0999L23.7668 13.2346L23.7439 14.1593C23.6784 16.8038 22.9445 17.5841 19.7954 18.357C19.2551 18.4895 18.577 18.6983 18.2884 18.8207C17.684 19.0771 16.8567 19.6088 16.5315 19.9498C16.4085 20.0789 16.2798 20.1845 16.2458 20.1845C16.2117 20.1845 16.1838 17.5095 16.1838 14.2401V8.29563H16.4438C16.7888 8.29563 17.5468 8.05511 17.954 7.81642C18.1343 7.71079 18.4632 7.43255 18.6849 7.19812C19.6576 6.1695 19.8625 4.73331 19.2234 3.42165C19.0273 3.01918 18.7581 2.70016 17.8297 1.77016C16.6177 0.555968 16.28 0.319791 15.4451 0.102362C14.9196 -0.0345131 14.3858 -0.034132 13.8213 0.103581ZM15.8183 3.78365C16.573 4.53836 16.7173 4.7199 16.7173 4.915C16.7173 5.05446 16.6531 5.20544 16.5568 5.29255C16.409 5.42637 16.2606 5.43773 14.6596 5.43773C13.0585 5.43773 12.9102 5.42637 12.7623 5.29255C12.6661 5.20544 12.6019 5.05446 12.6019 4.915C12.6019 4.7199 12.7462 4.53836 13.5009 3.78365C14.297 2.98747 14.4296 2.88467 14.6596 2.88467C14.8896 2.88467 15.0222 2.98747 15.8183 3.78365ZM26.2055 9.28637V10.3152H25.1386H24.0716L24.0501 9.36678C24.0382 8.84519 24.0462 8.37268 24.0676 8.31674C24.0981 8.23741 24.3365 8.21973 25.156 8.23634L26.2055 8.25753V9.28637ZM5.70794 11.716C6.78274 12.2042 6.84073 13.7189 5.80488 14.2474C4.71087 14.8055 3.44356 13.8201 3.75724 12.6553C3.98671 11.8032 4.91542 11.356 5.70794 11.716ZM15.6138 33.0991C16.2267 33.4584 16.5588 34.3333 16.337 35.0052C15.9694 36.1191 14.4537 36.4888 13.6231 35.6672C13.151 35.2003 13.0042 34.3891 13.2814 33.7788C13.4372 33.4357 13.8307 33.0812 14.2205 32.9327C14.5889 32.7924 15.2187 32.8676 15.6138 33.0991Z" fill="url(#paint0_linear_92_86)"/>
<defs>
<linearGradient id="paint0_linear_92_86" x1="14.9458" y1="0" x2="14.9458" y2="39" gradientUnits="userSpaceOnUse">
<stop stop-color="#04F8E2"/>
<stop offset="1" stop-color="#02ABB7"/>
</linearGradient>
</defs>
</svg>
