<svg width="37" height="39" viewBox="0 0 37 39" fill="none" xmlns="http://www.w3.org/2000/svg">
<path fill-rule="evenodd" clip-rule="evenodd" d="M29.2607 0.0533832C29.2607 0.0827023 29.6341 0.494415 30.0904 0.968085C30.5468 1.44176 30.9202 1.86923 30.9202 1.91791C30.9202 1.9666 27.8398 5.08632 24.0749 8.85065L17.2297 15.6949L14.7734 13.2415L12.3171 10.7881L6.47511 16.6313L0.632996 22.4746V26V29.5254L6.50692 23.6527L12.381 17.7799L14.794 20.2649L17.2072 22.75L25.8961 14.1014L34.5851 5.45267L35.2766 6.17514C35.6569 6.57261 36.0147 6.90148 36.0718 6.90632C36.1289 6.91102 36.1755 5.35904 36.1755 3.45745V0H32.7181C30.8165 0 29.2607 0.024064 29.2607 0.0533832ZM30.3314 11.3068L26.9096 14.7308V26.8653V39H30.367H33.8245V23.4415C33.8245 14.8843 33.8084 7.88298 33.7888 7.88298C33.7693 7.88298 32.2135 9.42376 30.3314 11.3068ZM21.6186 20.0196L18.1968 23.4436V31.2217V39H21.6543H25.1117V27.7979C25.1117 21.6367 25.0957 16.5957 25.076 16.5957C25.0565 16.5957 23.5007 18.1365 21.6186 20.0196ZM10.8301 20.9889L9.34576 22.478V30.7389V39H12.8724H16.399L16.3976 31.2899L16.396 23.5798L14.3723 21.5399C13.2593 20.4179 12.341 19.5 12.3316 19.5C12.3222 19.5 11.6465 20.1701 10.8301 20.9889ZM4.05476 27.7643L0.632996 31.1882V35.0941V39H4.09044H7.54789V31.6702C7.54789 27.6388 7.53185 24.3404 7.51221 24.3404C7.49271 24.3404 5.93686 25.8812 4.05476 27.7643Z" fill="url(#paint0_linear_92_93)"/>
<defs>
<linearGradient id="paint0_linear_92_93" x1="18.4043" y1="0" x2="18.4043" y2="39" gradientUnits="userSpaceOnUse">
<stop stop-color="#04F8E2"/>
<stop offset="1" stop-color="#02ABB7"/>
</linearGradient>
</defs>
</svg>
