<svg width="38" height="39" viewBox="0 0 38 39" fill="none" xmlns="http://www.w3.org/2000/svg">
<path fill-rule="evenodd" clip-rule="evenodd" d="M33.6708 37.6001C33.6708 38.1524 33.223 38.6001 32.6708 38.6001H26.472C25.9197 38.6001 25.472 38.1524 25.472 37.6001V14.4503C25.472 13.898 25.0243 13.4503 24.472 13.4503H23.0015C22.2317 13.4503 21.7506 12.617 22.1355 11.9503L28.7463 0.499939C29.1312 -0.166729 30.0935 -0.166729 30.4784 0.499939L37.0892 11.9503C37.4741 12.617 36.993 13.4503 36.2232 13.4503H34.6708C34.1185 13.4503 33.6708 13.898 33.6708 14.4503V37.6001Z" fill="url(#paint0_linear_202_5)"/>
<path fill-rule="evenodd" clip-rule="evenodd" d="M11.8869 1.03271C11.8869 0.48043 11.4392 0.0327148 10.8869 0.0327148L4.64071 0.0327148C4.08842 0.0327148 3.64071 0.480432 3.64071 1.03272L3.64071 24.1825C3.64071 24.7347 3.19299 25.1825 2.64071 25.1825H1.15091C0.380003 25.1825 -0.100983 26.018 0.286141 26.6846L6.94023 38.1436C7.32568 38.8074 8.28432 38.8074 8.66977 38.1436L15.3239 26.6846C15.711 26.018 15.23 25.1825 14.4591 25.1825H12.8869C12.3346 25.1825 11.8869 24.7347 11.8869 24.1825V1.03271Z" fill="url(#paint1_linear_202_5)"/>
<defs>
<linearGradient id="paint0_linear_202_5" x1="29.6124" y1="38.6001" x2="29.6124" y2="-5.64337e-05" gradientUnits="userSpaceOnUse">
<stop stop-color="#04F8E2"/>
<stop offset="1" stop-color="#02ABB7"/>
</linearGradient>
<linearGradient id="paint1_linear_202_5" x1="7.805" y1="0.0327148" x2="7.805" y2="38.6414" gradientUnits="userSpaceOnUse">
<stop stop-color="#04F8E2"/>
<stop offset="1" stop-color="#02ABB7"/>
</linearGradient>
</defs>
</svg>
