<svg width="36" height="37" viewBox="0 0 36 37" fill="none" xmlns="http://www.w3.org/2000/svg">
<path d="M34.9608 33.5851L32.474 36.1656C32.1459 36.5041 31.702 36.6941 31.2394 36.6941C30.7767 36.6941 30.3328 36.5041 30.0047 36.1656L9.19937 14.6127C8.62987 14.7839 8.04092 14.8756 7.44808 14.8853C6.33304 14.8845 5.23429 14.6074 4.2432 14.0773C3.2521 13.5471 2.39729 12.779 1.74984 11.837C1.10238 10.895 0.680986 9.80622 0.520685 8.66119C0.360385 7.51615 0.465812 6.34795 0.828201 5.2537L5.27648 9.86959L6.20466 8.90643L8.69149 6.3259L9.61968 5.36274L5.1714 0.746847C6.22591 0.370804 7.3517 0.261404 8.45515 0.427745C9.55861 0.594085 10.6079 1.03136 11.5157 1.70321C12.4235 2.37507 13.1636 3.26209 13.6746 4.29052C14.1855 5.31896 14.4524 6.45911 14.4532 7.61616C14.4439 8.23134 14.3555 8.84249 14.1905 9.43344L34.9608 31.0227C35.287 31.3632 35.4701 31.8238 35.4701 32.3039C35.4701 32.784 35.287 33.2446 34.9608 33.5851ZM0.950791 31.0227C0.624611 31.3632 0.441528 31.8238 0.441528 32.3039C0.441528 32.784 0.624611 33.2446 0.950791 33.5851L3.43762 36.1656C3.76575 36.5041 4.20962 36.6941 4.67228 36.6941C5.13495 36.6941 5.57882 36.5041 5.90694 36.1656L15.4865 26.2433L10.5303 21.1004L0.950791 31.0227ZM31.9661 0.347046L24.961 3.98161V7.61616L21.1607 11.5597L24.6633 15.1942L28.4636 11.2507H31.9661L35.4687 3.98161L31.9661 0.347046Z" fill="url(#paint0_linear_88_194)"/>
<defs>
<linearGradient id="paint0_linear_88_194" x1="17.9558" y1="0.347046" x2="17.9558" y2="36.6941" gradientUnits="userSpaceOnUse">
<stop stop-color="#04F8E2"/>
<stop offset="1" stop-color="#02ABB7"/>
</linearGradient>
</defs>
</svg>
