<svg width="47" height="46" viewBox="0 0 47 46" fill="none" xmlns="http://www.w3.org/2000/svg">
<path fill-rule="evenodd" clip-rule="evenodd" d="M2.68616 5.71912C2.68616 4.7997 3.0514 3.91794 3.70152 3.26781C4.35165 2.61768 5.23341 2.25245 6.15283 2.25245H40.7102C41.1658 2.2517 41.6171 2.34083 42.0382 2.51474C42.4594 2.68865 42.8421 2.94391 43.1645 3.26592C43.4868 3.58793 43.7425 3.97036 43.9169 4.39131C44.0912 4.81227 44.1808 5.26348 44.1806 5.71912V40.2764C44.1811 40.7322 44.0917 41.1835 43.9176 41.6047C43.7435 42.0258 43.4881 42.4085 43.1659 42.7309C42.8437 43.0532 42.4612 43.3088 42.0401 43.4832C41.6191 43.6575 41.1678 43.7471 40.712 43.7469H6.15283C5.69742 43.7469 5.24647 43.6572 4.82576 43.4828C4.40504 43.3085 4.02279 43.053 3.70086 42.7309C3.37892 42.4087 3.12361 42.0264 2.9495 41.6055C2.7754 41.1847 2.68591 40.7337 2.68616 40.2783V5.71912ZM19.1104 18.0731H24.7291V20.8948C25.5402 19.2727 27.6149 17.8129 30.7326 17.8129C36.7097 17.8129 38.1262 21.0438 38.1262 26.9718V37.9528H32.0774V28.3223C32.0774 24.9461 31.2664 23.0412 29.2068 23.0412C26.3493 23.0412 25.1611 25.0951 25.1611 28.3223V37.9528H19.1104V18.0731ZM8.7368 37.6944H14.7874V17.8129H8.7368V37.6925V37.6944ZM15.6532 11.3284C15.6646 11.8465 15.5724 12.3616 15.382 12.8436C15.1917 13.3255 14.9069 13.7646 14.5446 14.135C14.1822 14.5054 13.7495 14.7997 13.2719 15.0007C12.7942 15.2016 12.2813 15.3051 11.7631 15.3051C11.2449 15.3051 10.7319 15.2016 10.2543 15.0007C9.77662 14.7997 9.34392 14.5054 8.98156 14.135C8.6192 13.7646 8.33448 13.3255 8.14411 12.8436C7.95374 12.3616 7.86156 11.8465 7.87296 11.3284C7.89536 10.3115 8.31504 9.34383 9.04214 8.63257C9.76923 7.92131 10.7459 7.52303 11.7631 7.52303C12.7802 7.52303 13.7569 7.92131 14.484 8.63257C15.2111 9.34383 15.6308 10.3115 15.6532 11.3284Z" fill="#F8F8F8"/>
</svg>
