<svg width="16" height="16" viewBox="0 0 16 16" fill="none" xmlns="http://www.w3.org/2000/svg">
<path fill-rule="evenodd" clip-rule="evenodd" d="M3.8568 0.913751C3.71171 0.964449 3.58697 1.0748 3.52123 1.21058C3.46933 1.31783 3.45934 1.39309 3.45934 1.67781V2.01721L2.99526 2.03547C2.35038 2.06087 2.01717 2.13824 1.56524 2.36753C0.82356 2.74382 0.292734 3.41821 0.0639464 4.2748L0 4.51422V8.9893V13.4644L0.0670082 13.7276C0.139522 14.0124 0.334658 14.4518 0.486722 14.6729C0.619856 14.8663 0.939529 15.1994 1.14079 15.3542C1.51687 15.6436 2.04184 15.8597 2.5212 15.9224C2.69337 15.9449 4.24678 15.952 7.68416 15.9459L12.6008 15.9372L12.8288 15.8723C13.3531 15.7232 13.7472 15.5106 14.0905 15.1917C14.6031 14.7155 14.8999 14.179 15.0145 13.5214C15.0819 13.1349 15.0817 4.84217 15.0142 4.45557C14.9097 3.85591 14.6402 3.34578 14.1903 2.89553C13.5721 2.27691 12.91 2.03014 11.8604 2.02719L11.591 2.02643L11.5807 1.64619C11.5708 1.27874 11.5674 1.26172 11.4821 1.14095C11.2248 0.776819 10.6938 0.807909 10.4894 1.1991C10.4138 1.34395 10.4075 1.38172 10.4075 1.69121V2.02643H7.52223H4.63699V1.69121C4.63699 1.38172 4.63069 1.34395 4.55503 1.1991C4.42175 0.943987 4.12139 0.821246 3.8568 0.913751ZM3.45934 3.83801C3.45934 4.51469 3.47539 4.60958 3.61532 4.75958C3.9158 5.0817 4.49064 4.95166 4.60626 4.53539C4.62298 4.47518 4.63673 4.15097 4.63682 3.81499L4.63699 3.20408H7.52223H10.4075L10.4077 3.81499C10.4077 4.15097 10.4215 4.47518 10.4382 4.53539C10.5538 4.95166 11.1287 5.0817 11.4291 4.75958C11.5692 4.6094 11.5851 4.51501 11.5851 3.83368V3.19542L12.0047 3.21262C12.2397 3.22222 12.5008 3.25042 12.5985 3.27674C13.0663 3.40281 13.4876 3.75366 13.704 4.19761C13.833 4.46199 13.8804 4.71474 13.881 5.13985L13.8815 5.5005H7.52223H1.16293L1.16343 5.13985C1.16405 4.71474 1.21151 4.46199 1.34043 4.19761C1.59719 3.67096 2.0832 3.32067 2.67847 3.23317C2.75979 3.22121 2.96879 3.20976 3.14285 3.20776L3.45934 3.20408V3.83801ZM13.8815 9.95615C13.8815 13.1401 13.8799 13.2408 13.8225 13.4649C13.6765 14.0359 13.2373 14.5032 12.673 14.688L12.4536 14.7598H7.52223H2.59083L2.37149 14.688C2.11073 14.6026 1.77263 14.3844 1.60366 14.1924C1.42831 13.9932 1.28923 13.7279 1.22172 13.4641C1.1647 13.241 1.16293 13.1362 1.16293 9.95615V6.67816H7.52223H13.8815V9.95615ZM3.23827 8.4701C3.03878 8.56075 2.87084 8.80473 2.87084 9.00402C2.87084 9.20331 3.03878 9.44729 3.23827 9.53794C3.34146 9.58481 3.44247 9.59164 4.04175 9.5922C4.79945 9.59291 4.86402 9.58101 5.04302 9.40778C5.10331 9.3494 5.15687 9.25554 5.18492 9.15903C5.22538 9.01986 5.22538 8.98818 5.18492 8.84901C5.15687 8.7525 5.10331 8.65865 5.04302 8.60026C4.86402 8.42703 4.79945 8.41513 4.04175 8.41584C3.44247 8.4164 3.34146 8.42323 3.23827 8.4701ZM6.6738 8.49165C6.3341 8.66091 6.24961 9.0917 6.50015 9.37704C6.67618 9.57754 6.74292 9.59155 7.52223 9.59155C8.28897 9.59155 8.36043 9.57748 8.53445 9.39217C8.79516 9.1146 8.69008 8.63686 8.33187 8.47101C8.22791 8.42288 8.13273 8.4164 7.52064 8.41584C6.83249 8.41519 6.82604 8.41578 6.6738 8.49165ZM10.2014 8.46212C9.71151 8.67434 9.71546 9.34183 10.2078 9.54718C10.2962 9.58407 10.449 9.59273 11.0027 9.5922C11.602 9.59164 11.703 9.58481 11.8062 9.53794C12.0057 9.44729 12.1736 9.20331 12.1736 9.00402C12.1736 8.80473 12.0057 8.56075 11.8062 8.4701C11.7026 8.42305 11.6034 8.41655 10.9963 8.41699C10.4438 8.4174 10.2837 8.4265 10.2014 8.46212ZM3.19973 11.9657C2.86004 12.135 2.77554 12.5658 3.02609 12.8511C3.2017 13.0511 3.26968 13.0655 4.04175 13.0663C4.59542 13.0668 4.74825 13.0582 4.83666 13.0213C5.23659 12.8545 5.33743 12.3524 5.02971 12.0601C4.86363 11.9024 4.78779 11.8893 4.04016 11.8893C3.35954 11.8893 3.35171 11.89 3.19973 11.9657ZM6.74204 11.9283C6.53218 12.0104 6.40076 12.1698 6.35942 12.3925C6.31612 12.6257 6.47466 12.904 6.71234 13.012C6.81579 13.059 6.91586 13.0656 7.52223 13.0656C8.30614 13.0656 8.37659 13.0504 8.54611 12.8448C8.79033 12.5485 8.68563 12.1089 8.33187 11.9451C8.22744 11.8967 8.13576 11.8907 7.52223 11.8922C7.0661 11.8932 6.80028 11.9055 6.74204 11.9283ZM10.2014 11.9362C9.71151 12.1484 9.71546 12.8159 10.2078 13.0213C10.2962 13.0582 10.449 13.0668 11.0027 13.0663C11.7748 13.0655 11.8428 13.0511 12.0184 12.8511C12.27 12.5646 12.1822 12.1339 11.8371 11.9619C11.6943 11.8907 11.6772 11.8893 10.9979 11.8904C10.4451 11.8913 10.2835 11.9006 10.2014 11.9362Z" fill="white"/>
</svg>
