<svg width="16" height="16" viewBox="0 0 16 16" fill="none" xmlns="http://www.w3.org/2000/svg">
<path fill-rule="evenodd" clip-rule="evenodd" d="M6.8568 0.901127C5.40108 1.04365 4.05565 1.57994 2.876 2.48787C2.30153 2.93 1.55551 3.76092 1.12439 4.43874C0.9382 4.73148 0.575759 5.47327 0.445922 5.82729C0.300751 6.22315 0.146026 6.82808 0.0698873 7.29747C-0.0232958 7.87199 -0.0232958 8.96279 0.0698873 9.5373C0.201641 10.3495 0.410065 11.006 0.766814 11.7329C1.15659 12.527 1.56188 13.0899 2.21089 13.7386C2.85992 14.3872 3.42315 14.7923 4.21771 15.1819C4.94501 15.5384 5.60195 15.7467 6.41459 15.8784C6.98944 15.9715 8.08086 15.9715 8.65571 15.8784C9.46835 15.7467 10.1253 15.5384 10.8526 15.1819C11.6471 14.7923 12.2104 14.3872 12.8594 13.7386C13.5084 13.0899 13.9137 12.527 14.3035 11.7329C14.5624 11.2054 14.6926 10.8597 14.8321 10.3296C15.0178 9.62368 15.0649 9.23669 15.0649 8.41739C15.0649 7.59808 15.0178 7.21109 14.8321 6.50513C14.6926 5.97503 14.5624 5.62933 14.3035 5.10184C13.9137 4.30774 13.5084 3.74483 12.8594 3.09616C12.2104 2.44752 11.6471 2.04247 10.8526 1.65291C10.126 1.29669 9.45605 1.08417 8.67045 0.960659C8.237 0.892521 7.26914 0.860751 6.8568 0.901127ZM8.23665 2.08308C9.67456 2.24137 10.9909 2.87849 12.034 3.92107C13.258 5.14431 13.9046 6.69864 13.9046 8.41739C13.9046 10.1361 13.258 11.6905 12.034 12.9137C10.8101 14.1369 9.25488 14.7832 7.53515 14.7832C5.81542 14.7832 4.26021 14.1369 3.03626 12.9137C1.81232 11.6905 1.16567 10.1361 1.16567 8.41739C1.16567 6.69864 1.81232 5.14431 3.03626 3.92107C4.06514 2.89278 5.39518 2.24332 6.79794 2.08426C7.12249 2.04748 7.90735 2.04683 8.23665 2.08308ZM7.28108 4.43617C7.13945 4.50045 7.02409 4.64076 6.97611 4.80713C6.95164 4.89207 6.94465 5.43982 6.95113 6.76698C6.95989 8.56109 6.96172 8.61202 7.02099 8.72684C7.0703 8.82235 7.30544 9.01421 8.2595 9.73753C8.90721 10.2286 9.49633 10.6658 9.56869 10.7091C10.0617 11.0046 10.6445 10.4788 10.395 9.96358C10.3352 9.84021 10.2167 9.74245 9.22672 9.00027L8.12492 8.17431V6.53195C8.12492 5.38253 8.11483 4.85953 8.09136 4.78942C8.00773 4.53982 7.79152 4.38109 7.53515 4.38109C7.46217 4.38109 7.34784 4.40588 7.28108 4.43617Z" fill="white"/>
</svg>
