<svg width="24" height="24" viewBox="0 0 24 24" fill="none" xmlns="http://www.w3.org/2000/svg">
<g clip-path="url(#clip0_1_261)">
<path fill-rule="evenodd" clip-rule="evenodd" d="M2.82775 0.766476C3.09021 0.504409 3.40537 0.301114 3.75234 0.170061C4.09932 0.0390087 4.47018 -0.0168078 4.84036 0.00631052C5.21053 0.0294288 5.57157 0.130954 5.89954 0.304158C6.22751 0.477362 6.51493 0.71829 6.74275 1.01098L9.43525 4.46998C9.92875 5.10448 10.1027 5.93098 9.90775 6.71098L9.08725 9.99598C9.04483 10.1661 9.04712 10.3443 9.0939 10.5133C9.14069 10.6823 9.23037 10.8364 9.35425 10.9605L13.0397 14.646C13.164 14.7701 13.3183 14.8599 13.4876 14.9067C13.6569 14.9535 13.8354 14.9557 14.0057 14.913L17.2892 14.0925C17.6742 13.9962 18.0759 13.9888 18.4642 14.0706C18.8524 14.1525 19.217 14.3215 19.5303 14.565L22.9893 17.256C24.2327 18.2235 24.3468 20.061 23.2337 21.1725L21.6827 22.7235C20.5727 23.8335 18.9137 24.321 17.3672 23.7765C13.409 22.3838 9.81516 20.1177 6.85225 17.1465C3.88118 14.184 1.61516 10.5907 0.222249 6.63298C-0.320751 5.08798 0.166749 3.42748 1.27675 2.31748L2.82775 0.766476Z" fill="white"/>
</g>
<defs>
<clipPath id="clip0_1_261">
<rect width="24" height="24" fill="white"/>
</clipPath>
</defs>
</svg>
