<svg width="46" height="43" viewBox="0 0 46 43" fill="none" xmlns="http://www.w3.org/2000/svg">
<path d="M36.4416 10.1079C36.1551 9.97028 35.8762 9.81947 35.606 9.656C34.8208 9.17388 34.1007 8.60586 33.4615 7.96416C31.8602 6.26356 31.2623 4.53844 31.0435 3.33174H31.0511C30.8681 2.32819 30.9435 1.68018 30.9568 1.68018H23.6669V27.8512C23.6669 28.2015 23.6669 28.55 23.6518 28.8933C23.6518 28.9353 23.6462 28.9738 23.6443 29.0211C23.6443 29.0386 23.6443 29.0596 23.6386 29.0789V29.0947C23.5621 30.0334 23.2382 30.9404 22.6956 31.7356C22.1529 32.5309 21.408 33.1901 20.5266 33.6553C19.6069 34.1411 18.5668 34.3958 17.5088 34.3944C14.1138 34.3944 11.3601 31.8233 11.3601 28.6481C11.3601 25.471 14.1138 22.9 17.5088 22.9C18.1519 22.9 18.7913 22.9946 19.4024 23.1802L19.4119 16.2868C17.556 16.0644 15.6706 16.2018 13.8747 16.6901C12.0788 17.1784 10.4115 18.0072 8.9779 19.124C7.72147 20.1373 6.66512 21.3463 5.85639 22.6968C5.54895 23.189 4.3871 25.1698 4.24753 28.3818C4.15889 30.2033 4.74924 32.0948 5.03027 32.8742V32.8917C5.20568 33.3505 5.89222 34.9198 7.0088 36.2421C7.90922 37.3034 8.97309 38.2358 10.1661 39.0093V38.9918L10.1831 39.0093C13.7102 41.2335 17.6238 41.0882 17.6238 41.0882C18.3009 41.0619 20.5699 41.0882 23.1464 39.955C26.0038 38.6975 27.6297 36.8253 27.6297 36.8253C28.6691 35.7064 29.4957 34.4312 30.074 33.0546C30.7342 31.4433 30.953 29.5132 30.953 28.7426V14.8559C31.0416 14.9049 32.2204 15.6282 32.2204 15.6282C32.2204 15.6282 33.9179 16.6388 36.5642 17.2956C38.4616 17.7632 41.021 17.863 41.021 17.863V11.1429C40.1251 11.234 38.305 10.9713 36.4397 10.1096L36.4416 10.1079Z" fill="#F8F8F8"/>
</svg>
