<svg width="46" height="43" viewBox="0 0 46 43" fill="none" xmlns="http://www.w3.org/2000/svg">
<path d="M36.4415 9.74116C36.1551 9.60358 35.8762 9.45277 35.606 9.2893C34.8207 8.80718 34.1007 8.23916 33.4615 7.59746C31.8602 5.89686 31.2623 4.17174 31.0435 2.96504H31.051C30.8681 1.96149 30.9435 1.31348 30.9567 1.31348H23.6669V27.4845C23.6669 27.8348 23.6669 28.1833 23.6518 28.5266C23.6518 28.5686 23.6462 28.6071 23.6443 28.6544C23.6443 28.6719 23.6443 28.6929 23.6386 28.7122V28.728C23.5621 29.6667 23.2382 30.5737 22.6955 31.3689C22.1529 32.1642 21.408 32.8234 20.5265 33.2886C19.6069 33.7744 18.5668 34.0291 17.5088 34.0277C14.1138 34.0277 11.36 31.4566 11.36 28.2814C11.36 25.1043 14.1138 22.5333 17.5088 22.5333C18.1519 22.5333 18.7913 22.6279 19.4024 22.8135L19.4118 15.9201C17.5559 15.6977 15.6705 15.8351 13.8747 16.3234C12.0788 16.8117 10.4115 17.6405 8.97788 18.7573C7.72146 19.7706 6.66511 20.9796 5.85637 22.3301C5.54893 22.8223 4.38709 24.8031 4.24752 28.0152C4.15887 29.8366 4.74922 31.7281 5.03025 32.5075V32.525C5.20566 32.9838 5.89221 34.5531 7.00878 35.8754C7.9092 36.9367 8.97307 37.8691 10.1661 38.6426V38.6251L10.1831 38.6426C13.7101 40.8668 17.6238 40.7215 17.6238 40.7215C18.3009 40.6952 20.5699 40.7215 23.1463 39.5883C26.0038 38.3308 27.6296 36.4586 27.6296 36.4586C28.6691 35.3397 29.4957 34.0645 30.074 32.6879C30.7342 31.0766 30.953 29.1465 30.953 28.3759V14.4892C31.0416 14.5382 32.2204 15.2615 32.2204 15.2615C32.2204 15.2615 33.9179 16.2721 36.5641 16.9289C38.4616 17.3965 41.021 17.4963 41.021 17.4963V10.7762C40.1251 10.8673 38.305 10.6046 36.4397 9.74291L36.4415 9.74116Z" fill="url(#paint0_linear_92_48)"/>
<defs>
<linearGradient id="paint0_linear_92_48" x1="22.6298" y1="1.31348" x2="22.6298" y2="40.7234" gradientUnits="userSpaceOnUse">
<stop stop-color="#56FFEB"/>
<stop offset="0.34375" stop-color="#40C6FF"/>
<stop offset="0.572917" stop-color="#56C2FF"/>
<stop offset="1" stop-color="#7E6BF0"/>
</linearGradient>
</defs>
</svg>
